<mxfile host="app.diagrams.net" modified="2024-01-01T00:00:00.000Z" agent="AWS Architecture Diagram Generator" version="22.1.11" etag="generated" type="device">
  <diagram name="serverless_analytics_pipeline_889" id="generated-diagram">
    <mxGraphModel dx="1422" dy="794" grid="1" gridSize="10" guides="1" tooltips="1" connect="1" arrows="1" fold="1" page="1" pageScale="1" pageWidth="827" pageHeight="1169" math="0" shadow="0">
      <root>
        <mxCell id="0" />
        <mxCell id="1" parent="0" />
        <mxCell id="2" value="" style="image;html=1;image=data:image/png;base64,iVBORw0KGgoAAAANSUhEUgAAB8EAAAKiCAYAAABGhq3CAAAABmJLR0QA/wD/AP+gvaeTAAAgAElEQVR4nOzdeYBXZb0/8PcMwzbs+76rKCiimTvupWmumZU3695u9avbXt723bpFN1ssK0vrlmW5dM3yZpq7Zi6JgiKKgggIDPs6AzPMzO8PdHJgYAYYGDy8Xn/xPctzPs+XmTnf53l/zzkl9fX19QEAAAAAAACAV7/JpW1dAQAAAAAAAAC0FiE4AAAAAAAAAIUhBAcAAAAAAACgMITgAAAAAAAAABSGEBwAAAAAAACAwhCCAwAAAAAAAFAYQnAAAAAAAAAACkMIDgAAAAAAAEBhCMEBAAAAAAAAKAwhOAAAAAAAAACFIQQHAAAAAAAAoDCE4AAAAAAAAAAUhhAcAAAAAAAAgMIQggMAAAAAAABQGEJwAAAAAAAAAApDCA4AAAAAAABAYQjBAQAAAAAAACgMITgAAAAAAAAAhSEEBwAAAAAAAKAwhOAAAAAAAAAAFIYQHAAAAAAAAIDCEIIDAAAAAAAAUBhCcAAAAAAAAAAKQwgOAAAAAAAAQGEIwQEAAAAAAAAoDCE4AAAAAAAAAIUhBAcAAAAAAACgMITgAAAAAAAAABSGEBwAAAAAAACAwhCCAwAAAAAAAFAYQnAAAAAAAAAACkMIDgAAAAAAAEBhCMEBAAAAAAAAKAwhOAAAAAAAAACFIQQHAAAAAAAAoDCE4AAAAAAAAAAUhhAcAAAAAAAAgMIQggMAAAAAAABQGEJwAAAAAAAAAApDCA4AAAAAAABAYQjBAQAAAAAAACgMITgAAAAAAAAAhSEEBwAAAAAAAKAwhOAAAAAAAAAAFIYQHAAAAAAAAIDCEIIDAAAAAAAAUBhCcAAAAAAAAAAKQwgOAAAAAAAAQGEIwQEAAAAAAAAoDCE4AAAAAAAAAIUhBAcAAAAAAACgMITgAAAAAAAAABSGEBwAAAAAAACAwhCCAwAAAAAAAFAYQnAAAAAAAAAACkMIDgAAAAAAAEBhCMEBAAAAAAAAKAwhOAAAAAAAAACFIQQHAAAAAAAAoDCE4AAAAAAAAAAUhhAcAAAAAAAAgMIQggMAAAAAAABQGEJwAAAAAAAAAApDCA4AAAAAAABAYQjBAQAAAAAAACgMITgAAAAAAAAAhSEEBwAAAAAAAKAwhOAAAAAAAAAAFIYQHAAAAAAAAIDCEIIDAAAAAAAAUBhCcAAAAAAAAAAKQwgOAAAAAAAAQGEIwQEAAAAAAAAoDCE4AAAAAAAAAIUhBAcAAAAAAACgMITgAAAAAAAAABSGEBwAAAAAAACAwhCCAwAAAAAAAFAYQnAAAAAAAAAACkMIDgAAAAAAAEBhCMEBAAAAAAAAKAwhOAAAAAAAAACFIQQHAAAAAAAAoDCE4AAAAAAAAAAUhhAcAAAAAAAAgMIQggMAAAAAAABQGEJwAAAAAAAAAApDCA4AAAAAAABAYQjBAQAAAAAAACgMITgAAAAAAAAAhSEEBwAAAAAAAKAwhOAAAAAAAAAAFIYQHAAAAAAAAIDCEIIDAAAAAAAAUBhCcAAAAAAAAAAKQwgOAAAAAAAAQGEIwQEAAAAAAAAoDCE4AAAAAAAAAIUhBAcAAAAAAACgMITgAAAAAAAAABSGEBwAAAAAAACAwhCCAwAAAAAAAFAYQnAAAAAAAAAACkMIDgAAAAAAAEBhCMEBAAAAAAAAKAwhOAAAAAAAAACFIQQHAAAAAAAAoDCE4AAAAAAAAAAUhhAcAAAAAAAAgMIQggMAAAAAAABQGEJwAAAAAAAAAApDCA4AAAAAAABAYQjBAQAAAAAAACgMITgAAAAAAAAAhSEEBwAAAAAAAKAwhOAAAAAAAAAAFIYQHAAAAAAAAIDCEIIDAAAAAAAAUBhCcAAAAAAAAAAKQwgOAAAAAAAAQGEIwQEAAAAAAAAoDCE4AAAAAAAAAIUhBAcAAAAAAACgMITgAAAAAAAAABSGEBwAAAAAAACAwhCCAwAAAAAAAFAYQnAAAAAAAAAACkMIDgAAAAAAAEBhCMEBAAAAAAAAKAwhOAAAAAAAAACFIQQHAAAAAAAAoDCE4AAAAAAAAAAUhhAcAAAAAAAAgMIQggMAAAAAAABQGEJwAAAAAAAAAApDCA4AAAAAAABAYQjBAQAAAAAAACgMITgAAAAAAAAAhSEEBwAAAAAAAKAwhOAAAAAAAAAAFIYQHAAAAAAAAIDCEIIDAAAAAAAAUBhCcAAAAAAAAAAKQwgOAAAAAAAAQGEIwQEAAAAAAAAoDCE4AAAAAAAAAIUhBAcAAAAAAACgMITgAAAAAAAAABSGEBwAAAAAAACAwhCCAwAAAAAAAFAYQnAAAAAAAAAACkMIDgAAAAAAAEBhCMEBAAAAAAAAKAwhOAAAAAAAAACFIQQHAAAAAAAAoDCE4AAAAAAAAAAUhhAcAAAAAAAAgMIQggMAAAAAAABQGEJwAAAAAAAAAApDCA4AAAAAAABAYQjBAQAAAAAAACgMITgAAAAAAAAAhSEEBwAAAAAAAKAwhOAAAAAAAAAAFIYQHAAAAAAAAIDCEIIDAAAAAAAAUBhCcAAAAAAAAAAKQwgOAAAAAAAAQGEIwQEAAAAAAAAoDCE4AAAAAAAAAIUhBAcAAAAAAACgMITgAAAAAAAAABSGEBwAAAAAAACAwhCCAwAAAAAAAFAYQnAAAAAAAAAACkMIDgAAAAAAAEBhCMEBAAAAAAAAKAwhOAAAAAAAAACFIQQHAAAAAAAAoDCE4AAAAAAAAAAUhhAcAAAAAAAAgMIQggMAAAAAAABQGEJwAAAAAAAAAApDCA4AAAAAAABAYQjBAQAAAAAAACgMITgAAAAAAAAAhSEEBwAAAAAAAKAwhOAAAAAAAAAAFIYQHAAAAAAAAIDCEIIDAAAAAAAAUBhCcAAAAAAAAAAKQwgOAAAAAAAAQGEIwQEAAAAAAAAoDCE4AAAAAAAAAIUhBAcAAAAAAACgMITgAAAAAAAAABSGEBwAAAAAAACAwhCCAwAAAAAAAFAYQnAAAAAAAAAACkMIDgAAAAAAAEBhCMEBAAAAAAAAKIyyti4AgFeXurq6LF66IhVLlmX5qjVZV1mVjRs3pr6+vq1LA9ijtWvXLu3bl6VHt67p26tHBg7om+5du7R1WXu0mpqNWbRkWRYvXZ6Vq9emav361NRsbOuyAPZ4ZWXt0qFDh/Ts3jX9+vTKoP5907lTx7Yua49WtX5DFi5emiXLVmTl6rWprq7Oxo21bV0Wu1FpaWnK2pele9cu6d2jWwb275s+vXq0dVl7NPMDADvG/ADsHiX1PpUA0AK1tbWZOXtuZs9dkOrq6nTt1i1du3dPp/LylJW1T0lJW1cIsGerq6tLTU11KteszeqVK1NdXZ3ePXtk/31GZkC/3m1d3h5l/YbqzHj2+cxbUJH6+vp069E9Xbp2S4fOndO+zPd4AZpTW1ub6g0bsm7tmqxeuTJ1tXUZ2L9PDth3VHp069rW5e1RVq1ZmxnPPp9Fi5eltF1puvfsuemc07Fj2rVr19blsRvV1ddnY01Nqtaty5pVK1NVWZUuXTpnv1HDM2LooJQY9DYwPwCwc8wPwG4xWQgOQLPmL6zIE0/Pysba2gwYPCT9Bw1Kh46uJAHYGatXrsyiF+dnxdJlGdi/TyYcsG+6lHdu67LaVF1dXZ6bMz/PzJqTdmXtM2josPQd2D/t2gm+AXZUfV1dVixbloXz5mfd2jUZNWxwDthvVDq0b9/WpbWp6pqazJj5fJ6ftyBdunbLoGFD06tPn5SUenIgm1StW5dFCxZk6cKF6datSw4et58rw2N+AGBXMD8Au4QQHICtq62tzSNTn8qixcvSb+DADB01Ku338skygNa2euXKvPDcc9lQVZVDDto/wwYPaOuS2kTV+g154NFpWbuuKoOHDcugocNS2k4QAdCallZUZN7s2SkpSY489MD07rl3BnrLV67Kg1OeTH19Mmz06PQdsHeee2mZqqrKzH32uaxcsSL7jRmR8fuNbuuS2oT5AYBdz/wAtCohOABNq1q/IQ8+Oi3rqjZk3/Hj063H3jlBBrA71NfXZ97zz2fhvHkZO2Zkxu03qq1L2q1WrFqdBx99IqVl7bPfgQemY6dObV0SQGHV1m7MczOezpoVK3LohP0zdNDeNbk6f2FFpkx7Ot169co+B+zvbiO02NKKijw/c2YG9u+TwyYcsFfdLt/8AMDus7fPD0ArEoIDsKX1Gzbk7gceTdqVZawwAmC3WbJoUeY8+2xGDB2UieP3a+tydovlK1fl/ocfT7cePbPPuHF71YQyQFupr6/P3OdnZ9G8+TnkwLEZOWxwW5e0W8yZtyCPPflMBg4bmuGjRnvGM9ttzaqVmTn9qfTo2iXHHn5wSveC2+ebHwBoG3vj/AC0ssnF/6QGwHapra3N3x99ImnXLuMnTjTABdiN+g0cmH0OGJc58xbkuTnz2rqcXa6yan0efPTJdO/ZK/sdeKAAHGA3KSkpyYjRYzJkxIhMnT4zS5ataOuSdrkly1Zk6vSZGTJiREaMHiMAZ4d069Ez4yYenFVr1mbKE0+3dTm7nPkBgLazt80PwK4gBAegkUenzcjayvUZO/7AtCtza0CA3a1X3z4ZNnpUnnx6ViqWLGvrcnaZ2traPPDotJR16JAxBxwgjABoA0NHjkyvfv3y0GNPZl1lVVuXs8usq6zKQ489mV79+mXoyJFtXQ6vcp3Lu2SfceMyf+HizJz1QluXs0uZHwBoW3vL/ADsKkJwABosqFiSFxctyX7jx6Vj585tXQ7AXmvQ0GHp069fHp8+M7W1tW1dzi7xzKwXUrV+gyvAAdrY6LFj06Fjp0ydPrOtS9llpk6fmQ4dO2X02LFtXQoF0aNXrwwfNToznpuTteuK+QUS8wMAe4a9YX4AdhVf4QMgSVJbV5dpM55LvwED0q1Hz21vu3FjPvOJDze8Li1tl8FDh2bkqDE55dTTUt6l664ud6s1veu9/5H9xx+424+/PVauWJFb//ynnH7WOenWrXtblwPsoYbvMybTHnkkM2fPzQH7jmrrclrVusqqPPf8vAwdPTodOnbc5rbPPP1UrvrxDxted+zYKcNGjsx++x2Q4046uU2exbl5TeVdumTk6H1y9pvenF69eu/2elrDczOfyZPTpuac8y9o61KA3ay0tDQj99kn0x9/PAsXL82g/n3buqRWtbBiaSqWLs8BBzf//OZbbr4pd/311obX3bp1z4jRYzLx0NdkwsRDd3WpzfrmJV/M8qVL85kvf22XnG9+/Ysr06VL15x7wVt3qp37774r7Tu0zxFHH9tKle2ZBgwdkqUVFXlixrM56rAJbV1Oq9qR+YHXveGMvO60M7a63ZU/+kFqNtbk/R/++E7XV7FoYS79xiX54tcmp2u3bk1uszvG3XvyPIR5ByiWIs8PwK7kSnAAkiSz5sxPdU1Nho1u/oNUXV1dpj3+WIaPHJ0TTn59jjxmUlJfnxt+95u85x0X5rFHH9kNFTdd0+rVq3f7sbfXtMen5Bc//XGenj69rUsB9mDt23fIkGEj8uzzc1O1fkNbl9Oqpj8zOx06d86AwYOb3Xbt6jWZ9vhjOXrSCTnh5NfnoImHZOWy5fnet7+RT3zwfVm0cMFuqHjbNY3ZZ7/ce9fteffb35oXXnh+t9fTGm75vz/mp5d/P5VVlW1dCtAGuvbokb79+2fajOdSX1/f1uW0mvr6+kx7+rn07d8/3XtuO8hLkkULFmTRwoU54eTX5/iTXpcRo8fk2Wdm5FMf/WAu/cbXUr2h7c7HL8yZnfvvuTvPPfNM/n7fvbvkGHPmzM78+XN3up1f/fynueaXv2iFivZsJSUlGbHvmCxasiyLl61o63Ja1Y7MD/zPz67IxpqaJrdZMH9e/vf63+W5Z1vnjhPr11dl2uOPpWZj08dLds+4e0+ehzDvAMVS5PkB2JWE4ACkvr4+s16Yn/4DB6d9h21fkfdKhx95dE4/65ycc/4F+fDFn86P/+fX2f+Acfn6lz6X1atWtridd77lvPz5j3/YkdL3eE317djjT8xPf/XbHHbEkW1UFfBqMWDI4JSWlmXOvN0f9O4qVes3ZEHFkgwZPmK7ngN+2hln5vSzzskFF16UT37hy/nRlb/M2jVr8u1vXNLiNioWLcppxx+V+fNa5/mdL9d00bvek8t/9qv06NkjV1z23VZpe3d77/s/lKt+fW3KO5e3dSlAGxk6cmQqK6sK9bzJRUuWpbKyarueA96zZ6+cftY5OePsc/OOd70nl0z+Ti751ndy3z135re//mWL27n9L3/Ohee+cQeqbtrdd9yeQw97bY45/sTcf8+drdbuzthaH7/5vR/mq5O/3QYV7X7devRMj149M2vO/LYupdXs6PzAsqVLcvttf2ly3XXXXJ26urrWKrFF9vZx997efyiiIs4PwK4mBAcgS5evzPr1G9J/0KCdaqdLeZd89FOfTV1dfa75VfG/+b+jSktLM3zEyO0Kf4C9U0lpafoOGJB5Cxe3dSmtZv7CipS1K0vvvn12qp3BQ4flgx+7OE9OfTwP7KIr4rZH5/LOOfPsN+Wp6U++Kq+i7NipUwYNGdrWZQBtqGPnzunRq2fmLSjQOWdBRXr06rnTzzM+7PAjc94Fb8sNv/tNVqxY3krVbZ977vxrJp1wUo469rhMfWxK1qzZ8648fVnv3n3So2evti5jt+k3cHAqlixLTc3Gti6lVezo/MCRxxzbZNi9bOmS3Hn7bTnl9ae1ZpnN2tvH3Xt7/6GIijg/ALuaZ4IDkMVLl6e8vDydynducijZ9Ny84088OTOe2nTLrcp1a3PX7X/NjCenZdWqVRk0ZEjOPu/NGTJseJLkK5/7ZCoWLcxll07O3XfclpNPPT2nnv7GZvdrTsWihfnFz36ct73j33LHX27JC3NmZ8iw4Tn/rf+S3r3/GbzU1dXllj/dlKmPPZquXbvmiKMn5fEpj+SEU16fsfuPS5LU1tbm/266MU9Meyxl7cpy1LHH5bgTT25oY/oTU3PHrbdkyeLFGTh4cA6cMDHHn3TKVvu2teeX3Xn7rZnyyMNZX1WZA8YflLPOPT/tO3TYrv4AxdOzT+8snD8v6yqr0qUV/k63tYoly9Ojd6+UtMKzvA8+9DUZPHRYnn7qyRw96bhULFqUO279c55/flZqqquzz37759zzL0iXrt1SsWhhPvmRDyRJPvnhD2To8OF57wc+kn32G7vN/bZHv4EDU71hQzbW1OSRhx7M7Odm5qhJx+W2P9+cZUuW5GOf+Xy6lHdJ9YYNuel/r88zM6anU+fyHH7k0Y3OK0lSU12dm//wv5k+fVpSV58DDjwoZ5/35pS1b5/Vq1flDzdcl1nPzkzv3n1y+lnnZN+x+yfZdF67587b88jfH8jadWsyctSYHHXspBww/qBtrnvgvnvzt/vuzn9+9otJkgfuuzcvzp+b0WP2zQN/uzfLlizOgRMm5uzz3txwbkqSdWvX5Mbrr82s52Zm6LARmXT8CfnlVT/NV795adqVGW7Cq03P3n2yYG7r3C1jT1CxdHkGDR/RKm298axzc80vf55Zz87MYYcfmZkzpufuu+7Ii/PmpVOnTpn4msNy6ulnprS0NA/cd2/DnUo++ZH/SJJ887s/TGlp6Tb325pnnn4qFYsW5chjJqVD+w5pV1aWv99/X17/hn8+f/nXv7gyY8eNz7IlS/LES7eJPvb4ExudX7bn2Ff//GdZv3593vMfH2q0/Cuf+2TOedNbsm7duq32salniy9ftjR/vPH3eX7Wc+lS3iVHTzo+x55wYtZVrsstf/xDnn7qySTJmH32y8mnviH9Bwzcrv+fttSz96bAf/Gy5RkysH8bV7PzdnR+4Iyzz8vkS76Uv91zdyadeFLD8huuvSbHTDo+A4cMzcJFCxuWt3TMf99dd+aRhx7IqlUrM3LUmJx93psb1s2f+0Juuv7aPP/87AwZNqzR+HjzcXdLx9TNjf+317baa+49qFi0MD/5wXfzkYs/kz/deENmPTczb3vHv6Vnz17N9mVH+9+SORKg7RRtfgB2NVeCA5Dlq9akS/furdbe4KFDM3/upmfJ/ePhh3L/PXeld99+mfiawzJ3zpx86P/9e5Yu2fStxdPOOCtJcshrXpuzzrsg+48b16L9mrN+fVXuvv2v+dRHPpB2ZWU55DWHZ8ojD+fiD70v1dXVDdt95XOfzHXXXJ3R++6X3n365orLv58br782a1evSbJpAPiZj38o999zVw459LUZNWaf/OSy7+bXv7gySfLIQ3/PZz7xkbTv0CHHHHdCunTtlmVLlmyzb009v+xbl3w5v7rypxk+YmRGjt4nN/z2N7n4Q+9PbW3tdvUHKJ6u3bqnpKQkK1evbetSWsXK1WvStXuPVmtvyJCheXHepnPOn268IbOenZkxY/bN/geMz12335bPfuKjqaurS9fu3XPWeecnSc467/ycdd4F6duvf7P7bY8X583NkKHD075DhyxbuiTXXnN1Lvn8Z1JVWZlhI0elS3mXVFZV5oPv+dc8/PcHcuCEQ9KlS5dM/tqXc8UPv9fQTvWGDfno+9+Te+6+I+PGHZRhI0dl+hNT066sLMuXLs37/vXtWbq4IkdPOj7lXbrkEx96Xx6f8o8kyS+vvCJX/eTyDBwyJEcec1xqaqqzds3aZtctW7okM2fMaKhh2dIlueonl+d3v/5lBg4clLH7j8t1v7k63538Xw3brF69Kv/x7+/IY1P+kQkTX5Oamup8+H3vzqOPPLzbb3kKtI6u3bunpmZjKqvWt3UpO21dZVVqajameyuNc3r37ZuOnTo1jHN+edVPs2rlyhw08ZD0HzAwV/748lz5kx8mSUaNHp0jjj4mSXLWeRfkrPMuaLgac1v7bc09d96eQw49LN26dU/HTp1y6GGv3eKW6HOen5UvfPLjefyxf2Tf/Q9Iz1698s2vfjF/ufmPDdtsz7GHDB+eP914Q6oqqxqWPfPU9Dz68EPZd+zYbfZx82eLz3l+Vt73bxdl4Yvzc+hhh6d7zx55bubTSZLPX/yx3Hv3Xdl//EE5cMIhWVxRkVfbDVXalZWlc3l5YT6r7ej8QHl5ec4+78353W9+1bBszZrV+cvNN+WCCy/aYvuWjPkvu3RyfvLD72XgoME56OBDMn/uC6msWtew/pIvfDYpKckhr3ntFuPjzcfdLRlTNzf+317Ntdfce7B+fVX+fv99+dRHPpBZz83MiJGj06dP3xb1ZUf6nzQ/RwK0raLND8Cu5qv5AKSyan16d+/Zau116dqt4Vawx514cqNvTZ/75rfmojefk4f//kBOP+ucHHH0sRkwcFAmnXBSjj3+hIbtmtuvpb57+U8bbu86/qAJ+dB7/y3Tn5iaQ17z2jz4t/sz9bEp+flvrkvvPn2TbApGLjjrDQ3733n7bVm0cGF+/pvrUta+fZJk1Jh98rUvfjYXvvNd+fv99+bgQw7N+z/88S2OvbW+be7Rhx/KA3+7t1Edrzvt9Lznorfm1j/fnNPPPLtF/QGKqbRdaTp07JjKqqrmN97D1dRsTE3NxnRsxW+sd+nWNRvWbwpr3v3+DzZad+wJJ+bdb39rFrw4L0OHjcixx5+Un/3oBzn2hBMzdNg/rwxsbr+WmDH9ifzvdb/Le17RVk11db753R9k4KDBDcuuvfqX6dy5PJO/98OGK+/GjZ+QyV/7Ut5w5jkZPmJkfn/tNamvr893fnjFFlfn/fKqK3LQxIn5+Kc/37CstLQ0119zdSYeelj+du89Oef8C3L+W/9lixq3tW5rvvX9yxtCjQ4dO+aqn1yej37qs+nQoUN+e/X/pEePXvnv7/+ooc6+/Qfkyh/9oMXtA3uWl6/8XFdZlfLOndq4mp2z7qUgv1XPOV26Noxzvv7t7zdaN2jwkPz6F1fmvf/x4QwaMjSTjj8pzz799BbjgG3t15T6+vrcc8ftuehd72lYdvSkE3LZpZNTuW5tyrt03bSwpCQTJh6aT3/hqw3bVSxamL/+5c857Y1nbfexjzn2+Pzg0sl5+MG/5fiTTkmS3HP3HTnymEkp79I15V26brWPm/vJZd/L8SednA989OJGy5cvX5YZ05/I96+46lV/hWmn8s6prHz1f1ZLdm5+4OzzL8jvr/ttHn34obzm8CNy0w3X5aCDD8moMfvkb/fd02jb5sb806dNze233pKrfn1t+vUf0GjfF+bMTpL89w9+lBEjRiVp+fh4W2Pq5sb/27pjQ1Oaa6+l8x5nn39Bo9fr1q1tti870v+WzJEAbatI8wOwOwjBAcjGjRtT1oq3LF28aGGGjxzZ8Lpy3dpMefQfmf3cs6lctzbLli7J6lUrm21nR/d7pU7l5Q3/3nfs/unWrXvDldpPTH0sBx9yaMPgLkm692g82H/qialZXLEol3zxMw3L1q9fnw3r12fN6lWZcPChmfy1L+UbX/1Cjpl0Qo446ph07LR9E4aPT/nHFnUMGDgorz3iqDz15LRGIfi2+gMUV1m7skI8Z7Jm46Y+tG/XrtXaXLyoIgcdPLHh9ZLFFXn0kYezaMGLWfLSVTSrVq5sNszekf3+5fyz07lz51StW5f6+vq8493/L6ecdnrD+qHDRjQKwJPksSmP5viTTm40iXr8yafkh9/97zwzY3qGjxiZfzz8UI478aQmJ1qnP/FE5s97IetfMemxpGJxal96bydMnJhr/ufnWbZsaY486thMOOTQhhB7W+uaMmx44+dIHnrY4flZ3Q+yYvnyDBg4ME9OfTwnnPy6RnXu99Jt2YFXp3btNo0JXv57/Wq28aU+vNynnVVTXZ0Vy5dl+IiRDcuen/VcHn/0H1m+fFkeeuD+rGrhWGV79nti6mNZtnRJbrzud7nztluSJKtWrMzGmpo8+Pe/5aRTTm3YdtiIxuesQ15zeG68/nc7dOyOnTrl2ONOyn333JnjTzol9fX1ue+uO/PBj+Cm7vgAACAASURBVP1ni/r4sprq6kx7fEouete7t1jXs2evDB8xMt/8yhdz6ulvzJHHTsrIUWO2q/09Rbt2ZampKcYdunZmfqB79x4546xzc+1vfpXxB03ITb+/Pl/+xre2uv22xvyPPPxgxh84YYsAfPPjvayl4+NtjambG/9v77PuW9JeS+Y9jpp03Hb3ZWt2do4EaHtFmR+A3UEIDsCmqxm2MQm+vZ56clpGj940efHM00/li5+6OK89/IhMOPSw9OzZK/feeUezbezofs1p/9K3r5Nk1aqV6dRp21eGlJSWpk/ffnnTWy5stPxf3vmudOveIyec8roMGTYst9x8U378/e/ksksn54ILL2rydm9bs3z5snTsuGVw3rNPn6xasbzF/QEKrLSk4cqzV7OX+1DfSuecdZXr8sLsWTnr3E23Ob/l5pty1U8uz2lnnJV999s/++w7Nnfcekuz7ezofp/6/JfTqXOn9OrdO4OHDEu7zcL9pgLmlcuXpVMTf/N79e7dcMvZxRWL0qlz+RbbJElpaUkOP+roLc5LnV/a/oMf/2SOOPrY3Pbnm/Olz/5nevXuk//4yMfz2iOO2ua6lmjfofE5Z3ULzqPAq8vLf7fq6wpwznmpD9v6ss/2mPHUkykpKcnI0aOTJN/++lfy1FNP5vVveGPGjhuf+rq63HjDtc22s7373XPn7UmSs9/05kbLL7t0cv52912NQvDNdejQYaeOfcppp+eLn/5ENqxfn9mznk11dXUOO+LIZvv4SkuXLkldXV3Ky7tssa60tDTfu+Kq3H37X3PHbbfkVz//WQ448KBc/JkvZNDgIdt1nLZWUlKSugJ8Vkt2fn7gTRe8Le9825vy7W98NcNHjcr4gw5ucrvmxvxLKxalvLzpz0NbsyPj41fu09z4f3s1115rz3vsbP9bMkcC7AEKMj8Au4MQHIBW9fiUf+Tpp6bnY5/6XJLkD9dfm8Nee0Qu/tyXGrZZvnxZnp89q9F+m394a+l+O2Pw4CH561/+nLq6uq3e1mz48JG5u/LWjNln33Tp2q3JbfYdu3/2Hbt/PvTxT+aWm/+Yy779zUw64aSGiZvmPpgOGTK0yTrmzJqViYe+Zgd7B1B8N/z2N+nbr38mnXhSkuTqX1yZd7//QzntjDOTpOFq6c3DnM3/Lrd0v81NmHhIOnXevonCQUOG5KmnnswZ55zXsKyyqjKLFi3MiFGbgpV+/Qdkzuznmtx/+IiRWblqZSZMPLTJ9aWlpTni6GNzxNHHpqa6Ot+/dHIu+/bkXH39H7a5bkcMHDwkM556Mmecfe4rlrbel+oA9hR1dXW5+udX5rQzzkyfvv2yYP683H7bX/KLa65vuK1w+7Ky3HDtNY322/x809L9XlZbW5v77r4rH774043uDpVsOlf9z1VXZH1VVYvORdt77GTTea579x555OEHM/2JqTnxlNdt8YWv5sY6ffv2S2lpaWbPfi6jxuyzxfryzuU5/cyzc/qZZ2fFiuX57Cc+kt/84spG40BeXXr37ZvXnfqG/PlPN+WSyd/Z6nbNjfn79h+Qe+++M/X19a32ZZbmtGT835rt7Y55j+3RkjkSAHg1cTYDoFWsWbM6t9x8U7762U/lne/+fw0BcGlJaZ566smseOmK5meefipJMuwVtxHs3qNHpk2d0mgCpSX77ayTXn9ali5dkp/9+Aep3bgxdXV1ueOvf2m0zetOe0Pad+yQ707+r4ZQpK6uLhWLFiVJ5syelWVLN906rKSkJN17bPp2+MtXXTTVt6bqWPaKOurr6/N/N92Y2bNmbtfzzwH2FkuXLM4Vl38/N11/bT74if9smJAvLSnNlEceyob161NfX5/bb/1zkqSkdNPEabce3VNSUpJpjz3WqL3m9mtNp7/xnNz111sbruyrqa7O5d/9dkaMHNVwW/fjTjw5d/z11kx9bEqSTeedeXPnJEnOe8vb8uTUx3Ptb37VcG6pqqzKyhUrkiTTn5iayqrKJElZ+/bp2rVr2r90TtrWuh3xhjPObtSXDevX58eXbX2yG+DVpq6uLnOen5XPXfzRLF2yOP/6nvcl+efV5Q/+7f7U1dWlesOG/Piy7zbat1v3HlmxYnnmvjCnYVlL9nulKf94OGvXrM7Rx255K+Sjjp2U6g0b8siDf29RX1py7K5dumbVS+eTl/c5+XWn5r677sh9d92Zk15/WrN93Fz7Dh1y1DGT8pv/+XnDGKq6ujoLF7yYurq6TH1sSmpraxuO376sfdp36NiiPrHnevu/vjsXf+YLee2RW7/bTHNj/kknnJhFC17Mtddc3bBPxaKFqd6wYZfV3dz4v7Xb2x3zHtujJXMkAPBq4kpwAHbYt//rq+nQsWM2bqzJqpUrM3z4yHzxvyZn4qGHNWxzwdsvymc+8ZH8y3lnplv3HunVq3cGDR6SsldcQfCWt78z37rkS3nHBedmv7H75wtf+2aL9ttZAwcNzqe+8JV855tfz81/+N906NAxBx3c+FZt5V265quTL82lX78kF5x1WgYPHZZlS5bkqGMn5eOf/nzuvv223HDdb9Ota7eUtCvN2tWr8+/v+0D69O231b41Vcdnv/z1fGfy1/N/f/jflLXvkG7duuYr37i0oR2Avd273n5BSktKU1lZmQ0b1ufgiYfk8p//qtHtUt/9vg/mO9/6et581mlp364s4w6akHaveKZleefyvOktF+aH3/3v/P663+a0M87MBRde1Ox+ren4k0/J/Plz862vfTmXXfqtVFdvyP4HjM/nv/qNhituzjz3TZk/b24+8/EPpV//AVm7dm26du2SK6++NuMOnJBPfuHL+fH3vpPrf/vr9O3XP0sWLcp7P/TRnHr6G/OLn/0kM558In369su6devSoX37/Ofnv5wk21y3o32ZM2d2Jl/ypVx26bdSX1+fffbdd+ffJIA2NGvWs3n7+Zuuul69amXK2pXlhNe9Pl/82uR0Lt90xfWgIUNzzvkX5IrLv59f//Lnqa+tzfgJB2dxxT+DskMPe23GTzg473/XRRkwcFA+8anPZfyEg5vd75XuvuOvOejgienZa8vnEA8aMjQjR43J/ffe1XBHlG1pSc0nnnJqvvDpT+S973hbLvnWdzJg4KCcdOob8t53vC1Dh43IfmMPaNTm1vq4uQ987OJ886tfzLsuPD8DBw/J4opFOXrScXnXez+QS79xSVauWJ4+fftl6dIlGTpseC5857812x/2bL379s0pp52+zW2aG/OP2XdsPvyJT+UnP/xebrzud2nfvn0q167NN773g3TqtOWjZVpDc+P/rZn81S+m3Wa3Iv/CJf+Vgw4+ZJvt7Y55j+3RkjkSAHg1Kan38ACAvd7Nt9+XIaNGZ8CgQS3avr6+Pk9M/edVdJ06dsywEaMbJoU2V11dnblznk95eXkGDh6SZUuXpL6+Pv0HDGzYZvXqVVm0cEGGDh+R8peea9qS/TavadSYfdKtW/dsWL8+zzz9VMYf2DjImDH9iQwcPCS9evVuWLaxpiZz585J//4D065dWc59w0m5/KpfZsw++zU6xtIli7NsyZL06z8gvfv2bVheWVWZigULUrOxJkOHDkt5l66N9tu8b1urrba2NvPnvZD2ZR0yaMiQRrd8257+AMXz5JQpGdKvV8aPHdPWpeyUdZVVue2eBzP+0EPTtVvLbjG5ds2azJ71bMPr7t17ZNjwEVsNqdeuWZMF8+emb79Nf6vnzJ6VfgMHpssrnkVasWhh1q1bm+HDR6bspQnLluy3eU0HTpi41VtFLl+6NEuWLs7Y/cc1uX7D+vWZN/eF9O7bN71792lym3Vr1+TFeXPTtVv3DBw8pNGx6urqsuDFeamqrMrgIUMa3WJz5YoVqahYmI4dOmbI0GGNrvbe2rrN622q/uoNG/L0jOk5YNyBjdpcV7kui16cn+EjRmXKPx7Jty75Un5/y+1N9gnY8z10zz05fOL4DBnUv61L2SkvLlychx+fniOOP77F+yxauKBRKNyv/4AMHDR4q7diXrK4IsuXL8vQocPSpWu3TJ82tVEIXFdXl7lznk+HDh0yaMjQhnaa2+9lM2dMT7cePbf6fOx5c+ekcu26jB03Pi+88HzatyvL4KHDGtYvX7Y0SyoqMnbc+BbXvG7tmixfvixDhg5vOO+88y3n5Q1vPCtvvehft6ihqT42VUuSLFu6JEsXL07f/v0bfdm3YtHCrFi2LN179Gj0Pr2aPD9zZuqr1+fYwye2dSk7bUfnB8bsN7bJz00vq1i0KGvXrm40zm7JmL+6ujrz5s5Ju9J2GTx0WDp06NCi8fHm22zvmHpr4/+m+t6UzW+BvrX2tvUebK3mXd3/ls6RAG2jKPMDsBtMFoIDsN2D3CKbOWN6PvaB/5fr/++2hjAeoK0VZZC7IyE4ry7X//bXuf/eu/P9H1/Z1qUAO2hvDsHZ0oL58/Lvb39Lfn7N9VsN49m7Q3CKzRwJ7HmKMj8Au8FkzwQHYK/27DNPZ+2aNUk2PVP1Fz+7IqeecabBHQC0wLTHp6R248YkyYL583PT76/Peee/tY2rAqC13PaXP2ff/ccJwGEvYY4EgCLxTHAA9mq3/OkP+cv//Sl9+vbLihXLc9Sxk/Lv7/9gW5cFAHu8urq6/PA7/52FCxekR4+eWblyRf7lHf+W4046ua1LA6AV1NXV5Y5bb8l5b/blJthbmCMBoEiE4ADs1T588afz9ne9J0srFmXgkKHp3r1HW5cEAK8KpaWl+emvfpsF8+dvesb6iJHp2KlTW5cFQCspLS3N1df/oa3LAHYjcyQAFIkQHIC9Xu/efdK7d5+2LgMAXpUGDx3a1iUAANBKzJEAUBSeCQ4AAAAAAABAYQjBAQAAAAAAACgMITgAAAAAAAAAhSEEBwAAAAAAAKAwhOAAAAAAAAAAFIYQHAAAAAAAAIDCEIIDAAAAAAAAUBhCcAAAAAAAAAAKQwgOAAAAAAAAQGEIwQEAAAAAAAAoDCE4AAAAAAAAAIUhBAcAAAAAAACgMITgAAAAAAAAABSGEBwAAAAAAACAwhCCAwAAAAAAAFAYQnAAAAAAAAAACkMIDgAAAAAAAEBhCMEBAAAAAAAAKAwhOAAAAAAAAACFIQQHAAAAAAAAoDCE4AAAAAAAAAAUhhAcAAAAAAAAgMIQggMAAAAAAABQGEJwAAAAAAAAAApDCA4AAAAAAABAYQjBAQAAAAAAACgMITgAAAAAAAAAhSEEBwAAAAAAAKAwhOAAAAAAAAAAFIYQHAAAAAAAAIDCEIIDAAAAAAAAUBhCcAAAAAAAAAAKQwgOAAAAAAAAQGEIwQEAAAAAAAAoDCE4AAAAAAAAAIUhBAcAAAAAAACgMITgAAAAAAAAABSGEBwAAAAAAACAwihr6wLg1aJqbW1qN9bnbzcub2JtSRP/2vqLRotfWlKSpL6kqXWNt9nysCXNLGrqaFtZUrK19S05zla22eLFNrZ55aum/9nwauuHbvw+DzuwLH1HlKVjl5KU+trPbleycX3qq9cms+5KFj+57W23+mIb+zS7Xf0W7TXzY7uNg7Vk0/otNtrmPtv8ndt2IyUvH6/FB9uO97i8XzaMvTD17Tol7bs1Vx27wJr1y7OqcmkenHnzK5Zu+z+4yd+HLX4et9FGi34e/7lRCw7X5A/dVtt/xd/xlvzebL2tlpzTGm/eknNRs22VJIeMOC3dOvZJl449mzsqu0D1+rrUVtdn5j2rU7lq42Zrd/6zWtLceWc7Pqttu5BmP6ttc5utH3rbx9ltn9Uab9N9aLsMGF+W9h1LUtp+853Y1WrralNZvSrzls7MU/MfeMWabZ8vmly7neec5j9X7aJzzmbbvVrPOZP2uzDtSsvS2We1NrFh3ab5gal/WtHE2p0/55Rk0/xA0+v/uc2Wh23uXNDc2eMVS5o5fjOHbnqbLV7s6nNO4/e5/7j26TGsNO3LzQ+0hZrajams2ZApL87OC8sr/rlisx+g5n62W/x71cxJoCU/t43+bm+90ZZvs5Wf/VcuaurMVNL85Me2t9lG282dP7t3LM9RQ/ZN+9J26dTOh7U2Ubk0Wbc4mXZdtpgHeoVm/tw3vU+z2205r9Zk87vweC35rNaiwzfZhybez2Ya29av8SvVjH1r6soHpL5Tv5ZUB+wiQnBoxqolNfnHbavy9z8uT+Xq2pdO1k18+C7ZfFlTkzav+NcW7Wx51i7Z7Izfkg/CO9zOZjMym++zxbImjr397bz0Tm3tA3fJZq//eeCmB76btVOS5NE/bUhKkpET2+ewszpm0H7+7O0WNVWpf+72/H/23js+juM+G3/2+qEXAgR7A5vYq1hE9WJ1U7IsW3bcFNvyz7bexEneNDv2++ZNnLhGLrIlW7Ji2bIjieqkCkmxUyRBgr2BIAmA6O0AXC+7+/vj7vZ2Z2b39g4dmEcfgTezM9/53uzMPN+Z524PH/0MaKxSsgVBX7RNF6xTdZV8HR8EQFAHsxm1BegFwnp1Uy8ZQrhRYKzYTBPo6204dPpUb0OitSmzigAC4Dr495CKKhFe+iQicx6G7CrVfw8cA4bWnjp8cPpF7DrzZyWPtUZSY1EpS67TjDLUOk1XIDd1rDVXbz7QXEG0rnfuompUb1PJ5jgyzeIdEz4wOIS9PjB7AxCAPRdfBCBg3ZyHcEPlo5iQP502wDHgCHlF1B704vg7HvQ2R6gYS0kZxGpUnlKcEWfxWC311yBW0+alt1My24Z5dzpQsdgGq4Nym2MQcKmlGluP/wYn6/cqedQ90osrMIScw4xh9OYb0foQcw5zxpF2GUFadpzzB+Q4CrCh8hGsmXk/CnMm0gY4Bhy+rhjO7ezFqW0ehLz8fMCo7cztZM85rJnCiu0uvhcBBKBiiQ0L7nagtJKfDwwFIrEoqhpr8drpg7jQfo09htRzhpwP6sVPM6R15pW6DDUXGXkC7QdzjBGEweQTsowhL6n9F4gsxtyleDfNGkDO7370+59rPsLE3ELcNX0JVlfMRp7dRbXNMQjoqgUO/wo4+pySxTwb0421iGJZnKvF/zEhhOvGO/SZlWG9ZB1mXKTvZ+qSbLo/lCydPmWEbAybBudqJ34EAAgv/goiS74JsWiuzhvg4OAYTPBoj4NDB70dURx514NjH/SirysKhYblZNCg0HL8VfyCKi9xRVZ/w1s2sCPHA9FUViovUVUWVOkEZFnWBLlZ24EMQfVVdLJO3KS2Htl25nYSPZXqOm3vpf6o3w4gy5A1G122HaVlGag7EUXdiShmr3Jg5b0OLoYPJs69CfnAUxBaqqlLsixog27NOFXfYxBRJaOukq8TCMtIjBM5i7aSm0eiPc181rMpJAyY8FFjM9GeST9Ta4+gDbpTS4/2bbHyibopm/EXlp5auPc+CcepXyK8+AlEFnwGsBfovBGO/qDJU4vtJ1/E4dr3EIz6NPeOtUZSY1EpS3ACY+zR67R2fYUgUGNBO550fNDlCmJtlmlBQLXcQ2OBGvcsjlPX1eMdrf9MH1gcwlwfSN4F4auMQ5dfw8n697F0+u1YX/kIKgrmgGPgEQ6KuLirD6fe86CnKQK9GAtIjhP9WC31j36sFq9nHOfwWE1pWLuWmLDTfSWGQ78WUTLTinl3OTBlFY/VBguXWqrx7onnUV23i8EjxD1KjBXGcjh0nMPyQXe+DS/n0NxM+0D3U7acIyMQ6cOOc8+h6upbWDXzPlw/60Euhg8SfJ1RnNneg/Mf9sLfHYP+vj55j/Q5h58PDDznZHo+0Ho6htbTMUxebse8O+1cDB9E7L96Dq+e2o+azibjMaSeM+R8UC6RnKAzr9RlqLlItEWUoWMYpMYYQVhMPiHLGPKS2n/tXGXOXYp3GXNOnUfO7372e5u/F78/vx876s/glumLsGHKXLj5JxcHBx3ngcPPAGe2ABGv5hLzbIyMVRj5unXBjuHU9eMjRmbESkZtJW0m1/dUOb1ztVRSAHmuls7PlE1tXSMflSzyXI3lp6q+1qa2LhnXAoDzzLNwXPwTonMfQWjJ1yGVLGK8CQ4OjsGC9Xvf+973htsJDo6RhotVXrzyo2ac2e9FOCipCE/1SiDS2guqPEFJmLMjkEW0G1KBSCt2tHn8E9+MlgXA0yLh4sEoZAkom2WF1caKnsYfaq40oKC4GHn5/Xicoqce8of/F8LO7wHeFgA6wSkY38qhhwcjoVM3eUXvVpLjxHRb7LGdLGtsk55/hj4qNtnOGfmptKfTp4wuJPLpugLxwhLqgr3hfVi7TkMunAMpd4ru2+DIHHsvvIan3/8WaluPIyZGlIFC3VLWQGDc+nhZcp1mlKHWaboCORZYa67efKC5gmid6ZO2UbJ96grpf1reMeEDi0NMrA+krzEpimbPRZxs2I48dzEmF82jjWSA9pYWFOS6UT6hpF92hhvRaAyX6xtRPmkSHE5n1nbaaoPY85s2nNwa/yYeQEcK/Bvh+m1nbif7WE2bl95OsEdGU3UMoT4ZBZMtcOTwWG2gEIz68U71b/DC7u+hqbs2nknF00q2OqUfV2AIOYeVrzvfiNaHmHOYM460SxXKlnMEhGMB1HWewKW2IyjOnYwJedNoIxmgqb4eUyrKUZCf2y87ww2vz4+m1g5MnTmzX3bqq33Y8bNW1H7kRSTEzwdIt0cS57BmitH5gLdVRsORGCABxTNtsPRDC+/p6gLEGKZPqcjeyAjBQJwPtHo9eOHoTvyuaju6/H3xTHKcscYQ/0Y4kcWYu8P4jXAIgDcawpnOa7jm7cLEnEIUu0Y3V4w4nPgjpFe+CFw7DIgRZgyjF9swbjMzkfm5WqIe055RW/R4UpczrMcY+2b8JNcEMz4q7en0KZVNmacLkX0lSBFYO47DcellIKcM4oTlOm/CHMbK+QAHxxDgAP8FHA4OFWQZOPRON/77uw1oqw8lMtWfV5M1ZZlXZDJPztCOTBZJ5Sl2WJ/a0+ZlbUfrKFWHymO0nbmdRE9pzKh6TybSqYZJT5h2ZM1lGWIUOPxaGO/8MIBYhPadIwt0XwV+/yBw9HnNeGAMjUQ+ER3Sw4OR0Kmbpq34UBQ0afNtAcwoWNavm3opUDZ1fdTYFDLyMzW+2X1KNcnKJ+rK1Is47PXvIe/NO2Br2U9a5cgCoiTid7u/h+c//A4C6k93y4z1DuT4YXGLuiy5TjPKUOs0XYEcC6w1V28+0FxBtM70Sduo3lhkcxyZZvGOCR9YHMIsx+wNyv9Q1IvXjv47Xq/+T4iSSBviyBjN5wPY8u0G1Ff74hma+6sfYykpg1jNvB3jOIfHakrDRJ45O7IMXNkTxf6fBuHvkCjfOTJHJBbCT955Am8c+SUiYjh1gYqnlWx1Sj+uwBByDjOG0ZtvROtDzDnMGUfapQplyzmp/mvru4LfH/hbHL7yGrNfODKDLAOn3/Pg7X+/hq5r/HyAVYfKY7SduZ3sOYc1U9KdD0hR4NzbERx4KgiRnw8MCFr6uvFP2/4bW88dgSSpeJwcZ6wxRJ0nkGnFkMqEzrxSl6HmIiNPpv1gjjGCMJh8QpYx5CW1/zKRxZi7FO+mWQMGqd9Pd17Df1a9gxpPC9U+R+aQpRjkrX8D+c1vQAj3pvJ1liXm2Rh9mxkJnboGbaXuO31elb6t5Cv6zMqwXrIOMy7S9zN1STDdH0qWTp9SxelpSdWVqRcJryI9cO9+Au693wCkGN0eBwfHgIOL4BwcKhzZ1o03ftECSUoTSCdfURtUzQVVXqZ2styg8o2urh1t8BFPNV2M4a0fBBAO6EVPHKbQdQXyi5she+oyCk65EK7np6o9sxsY5cXgC+GIhZC3bTNsTbtIqxwZICZG8If9/4bdZ1+Or5/UeGKsdyDHD4tb1GXJdZpRhlqnDXxgjicdH3S5gmhdd/Op8ZDVsA7HkWkW75jwgcUhzHLM3qD8l2UZR668gXdO/TT+bX+OrHHtlB9v/WsDYhGJirFS/+jHWEqKC+FZ2Mk+VtPmmbfj65DiQng7F8L7g2DUhx+/81XUNB+LZzA4h80jmpR+XIEh5BxmDKM334jWh5hzmDOOtEsV6r8QLskS3qj+IQ5ffo02wpERzn7gwa5nW/n5wCjjHNZMMXM+0Fkbw4GfhRANslY5DrNo7u3CP257AS193UreUAiyuvNKXYYL4Yzm+tfvUSmGp6rfx/nuZqp9jgwQCwPv/gNQ9Vy8s9PGC8l8LoSz/ExdGplCOGQZzrO/Rc6BvwHUH07l4OAYFHARnIMjgYtHvHjzFy2MoFgnkE6+IgND7YV+2GEEuWY2qHyjq2tHG3zEU00XYtj5bJDym8MkZAnSi5she+p1A2Egg4A9k+CUC+FktcSLIRDCI17kvv8YrL01pFUOk9h24nnsPP0nxnqsAhfC1R6yGtbhODLN4h0TPrA4hFmO2RtM/w/VbsG+Sy/RRjhMwdMcxrYfNCISTAmiZIxF5YGOsZQUF8KzsJN9rKbNM2/H1ylh308DxtzJYYjf7vwnnG86kpZz2DyiSenHFRhCzmHGMHrzjWh9iDmHOeNIu1Sh/gvhAPDWiZ/gQssB2giHKdQf82H3s62GXEFeAWiukLUX+mEnS64Yp5zDmilmzgc6amI49kKI8pvDHCRZxj9uewGtfR5jkZYcZ6wxxIVwIosxd0eIEB4SI3j6xHa0Bnqo9jlM4qNfQK56DnpnVgArXkjmcyGc5Wfq0ggVwgE4zjwD98mf0hc4ODgGFFwE5+AA0NMRxbbnWiFJSfYig2KdQBrq4iYC6YztMIJcMxtUvtHVtaMNPuKp+lMxXNgbpfzmSA95+/8BPA2pNBfCdWyOPSFcCHvgOvgPEGIB0ipHGlxpO4V3q19Q0lwIH19C+L6aP6HRc442wmGIWFjGvt+1IexPPFJ+QATsgbJjHOfwWE1pmMgzb8ffJePMFv4tiWyw78LrOFm3T0lzIXz8COGyLOG900+jN9hG8D4BcAAAIABJREFUG+EwhLczgv2/b+PnA6SdUcY5rJli5nyg9ayIhoP8EbXZ4PnDH6DNmxJCuRA+foTwQCyMly8eQkTkcydjNB2DdOCXSpIL4Xo2x6YQbj/xM9jaDtMXODg4BgxcBOfgkIFXf9KI1roQFdCqikDNaoxwmW90DdrO3A57Y6D8lYl0qmHSE6YdbfAhIxaR8eHzAXia+aM2M4F85g3IB3+RSKjyuRCuY3PsCeH2um1wHfs+aZHDALIs4UdvPwFfuDfNeqyplMwGIztViVVXKUuu04wy1Dpt4ANzPOn4oMsVROu6m0+Nh6yGdTiOTLN4x4QPLA5hlmP2BuV/MNKHF/b/DWSZc04mOPJyB64e9TLHJUDHWFSeUpxxn7gQnoWd7GM1bZ55O5e2R9BYxQ9WM0Gz5wqe2/VdRGKhjDiHzSOalH5cgSHkHGYMozffiNaHmHOYM460SxXqvxDe1ncFW47+G7NPOHQgAzufbkFnAz8fGAucw5op6c4HxIiMY38IwtvKY7VMsPfyGWw5tZ/K50L4+BHCT3Y04O0r1VTbHAaQJUh/eBQIeog1kQvhbJtjTwi3hLuRu3UzwM8HODgGDVwE5xj3uHTch0vHfIkUsUniG91UGYM6VB6j7cztsDcGyl+ZSKcaJj1h2tEGHzLEGHD4tZCxKMmRQiwE7PmhNkhjBewZBKdcCNfzU9We2Q2M8mLwhXBn9Q8hRPhjz8xi6/Hn4Q15AGiWsUSaXI9V4EK42kNWwzocR6ZZvGPCBxaHMMsxe4Py3x/uwd4a/lh0swj7RVRt6UikzMdqVJ5SnHGfuBCehR12jKX8lYl0qmEiz5wdWQbOvxOGxB/eYwqSLOG1I7+AKEaZ6yYXwsePEH6prQqX24/SBjiYaDjlR301Px8wtDPKOIc1U9KdD0gx4NzbYX4+YBKRWAx/rN4FSZbTC7BkmhxnrDHEhXAiizF3R4gQvu3qCQRj/Ok9ZiEf+DkQ6FJlqF9yIZxtc+wJ4UK4G84TP6bb4eDgGBBwEZxj3OPIu93s4FRJkkGxTiCtKW4ikM7YDiPINbNB5RtdXTva4EPGpUNRREN6UROHGvK1KkhtjMf5sgL2DIJTLoTr+alqz+wGRnkx+EK44/zvSGscOth99lVNmljqGeuxujBjvQM5fljcoi5LrtOMMtQ6beADczzp+KDLFUTruptPjYeshnU4jkyzeMeEDywOYZZj9gblf9XVt+jKHEyc2e7RHwOAYYxF5SnFGfeJC+FZ2GHHWMpfmUinGibyzNnpa5HQdUWkfOagEY4FcLhmm5JmrZtcCB8/QjjnHPM4s52fD4xFzmHNlHTnA41VMcTCrNWNg8SF9muo60r99AIXwslxqXo3ZBlDXlL7LxNZjLk7QoTwvU0XqXY52JCOvUhnam4JF8LZNseeEO48/wLdBgcHx4CAi+Ac4xr+3hguHY9/ypsZnCpJMijWCaQ1xU0E0hnbYQS5ZjaoY3Sjm3ppsAkh6qTb6F48GKH85WDgVFzIYwaYrIA9g+CUC+F6fqraM7uBUV4MrhDuuPQy7TMHhYvNx9Dla6FuNrHUM9ZjdWHGegfSJItb1GXJdZpRhlqnDXxgjicdH3R2fMMtSrD8H2whvCfYhrrOE3RlDgoX9/UCMBgDAIxiLCpPKc6ai/23QxQxF2ON0VhN1v5Js56Zs3PtMP8quBkcvPCOzphGmnGlAhfC1R6yGs6Kc5gzjrRLFeqfEH6prQr+sIeuzKFBsC+GhpN+ANlzDmPG8fMBg7Yzt6PPFamXbM5hzZR05wOcc8zhw0sn6PvIhXBV3VQes4whL+nP+ZEqhB9quUy1yUFDrv8I6G0yf65G5AOseCGZz4Vwlp+pSyNPCLf4m2BroX9SgoODo//gIjjHuEbDhQACfTEYBqdKkgyKdQJpTXETgXTGdhhBLsHc42Wjqw0aDDYhhGEjO/Un+G9NpkWoB1LDESXJhXAuhFt6LsPSU8P2m0PBucZDiMbCiSWLsToZrsfqwoz1jjLJ4hZ1WXKdZpSh1mkDH5jjSccHXZ+I1nU3nxoPWQ3rcByZZvGOCR9YHMIsx+wN5UVMDKOWP542LTxNYfQ2h6HhedYYAAxjLCpPKc6ai/2zw2M1bSFZ+yfNepbeTtflGKIBI8LkAIAT9XsA6I1ppBlXKnAhXO0hq+GsOIc540i7VKHshfBApBfXuhlPceLQoLUmiJCXnw9kZGcEcQ457om3w1jP0ttpPc3PB9LBHwnhXOs1AIz7yIVwVd1UHrOMIS+pfdXO1ZEohLf7e9Ea4D+ZlhZX98V/ahAszgexJnIhnG1zDAnhsRBsjbtZXnNwcPQTXATnGNeoPeFTpQyCUyVJBsU6gbSmuIlAOmM7jCCXYO7xtNFNdY/BJoQwrLfRbTzHP+mdFv4OoOOCJosL4eNbCBeifbB18G+0psO5xsPK6/iSxVidDNdjdWHGekeZZHGLuiy5TjPKUOu0gQ/M8aTjQ4JfaK4gWtfdfGo8ZDWsw3FkmsU7JnxgcQizHLM3lBeXO47RlTg0aL8cQjgoJVKqMccaAwCMYiwqTynOmov9s6OM70xjrDEYqyl/ZSKdapjIM7bT1ywh5DUiSw4AOG/AOax1kwvhY18Ir+3gH7xKh4bT/HwgKzsjiHPk5BUDzmHNFL3zgY6LXARPh56gH3Xdqkehk/eRC+Gquqk8ZhlDXkr4qu4fsm8M+n0ohfBgLIKrvZ1UexxaSFf2atJcCAfGuxBua97D9pmDg6Nf4CI4x7jGhSPeNAd18RdkQMsoTQfSmuImAumM7TCCXIK5x8tGV/krE+lUw6QnTDsygFgEaDzHN7pGkC7sYOZzIXx8C+G2+nf1feZAe18jmruvaPLiSxZjdTJcj9WFGesdZZLFLeqy5DrNKEOt0wY+MMeTjg+6XEG0rrv51HjIaliH48g0i3dM+MDgEPb6wOwNQAY6+urQ7W+mK3EouHq0jzGm6YND1rhMFdHeWHLmDJYQrniWaYw1TmM1bZ6xndZTPFYzwrmmw4jEwpo89phGmnGlNsCFcJWHrIaz4hzmjCPtUoWy45yalkN0BQ4N6o76+PnAOOEc1kxhxXZiBOi4KFJ+cqRwuD7x+8/kfVOnuRCuqpvKY5Yx5CW1/zKRxZi7wyiEn+looNriSEH2NAAdl+h8BrdrbwkXwtk2x4YQbvVchKWvTsdpDg6ObMFFcI5xjfaGEPSCSmZwqiTJoFgnkNYUNxFIZ2yHEeQSzM03ukrDpCdMO5IE9LTyTa4humoyC4RZAXsGwSkXwvX8VLVndgOjvBh4IdzKH4duCF/Qg55AJ32wDVA3m1jqGeuxujBjvaNMsrhFXZZcpxllqHXawAfmeNLxQZcriNZ1N58aD1kN63AcmWbxjgkfSD8Z7cfLMXsDvpAHgXAvXYFDgacpgozHAGAYY1F5SnHWXBwIO8ZxDo/VlIaJPH073lYJHPpo9dRDlOh4lj2mkWZcqQ1wIVzlIavhrDiHOeNIu1ShzDmnve8qXZhDg+5Gfj7QLzujjHNYM4V1PuBt4+cDRmjwtOuPGXWaC+Gquqk8ZhlDXlL7LxNZjPswTEJ4s58/Dt0QQQ9kXwfzzIoL4cB4FcKFQDuEUJeOwxwcHNmCi+AcHAD0gkpmcKokyaBYJ5DWFDcRSGdsR2ezoarKN7pKw6QnunY40oML4Xo2x68QzmEOXAhnj9HxKoRzmAUrVqMPDlnjMlVEe2PJmcOFcP22M7ejH2PJ2j9p1jN9Oxzpob9ukj2MNONKa5TNI0QrenEFhpBzWPm6841ofYg5hznjSLtUIc45gwd+PjBeOIc1UzjnZAcuhBuMMYIwmGsJWcaQl9T+y0QW4z4MkxDOYQ5cCNezOT6FcA4OjoEHF8E5xjWobZ7hpilRRlOEDIp1AmlNcROBdMZ2dDYbqqp8o6s0TN132g6HWXAhXM/m+BPCOTIDF8LZY5QL4Rwk0vc/F8LHYqymzdO3w6EHciwyrnIhnOET0foQcw5zxpF2066B6rKcczKFMeeQ61eijKaIPlcwZhw/HzBoO3M72XMOa6bw84FMYGLsqdNcCFfVTeUxyxjyktp/mchi3AcuhI9ocCFcz+b4E8L51OHgGHhwEZxj3IPa5hlumhJlNEXIoFgnkNYUNxFIZ2xHZ7Ohqso3ukrD1H2n7XDooj+BMCtgzyA45UK4np+q9sxuYJQXXAgfOpBrIOMqF8IZXEG0rrv51HjIaliH48g0i3dM+ED6yWg/Xo6TTaZI3/9cCB+LsZo2j2WHwxjkWGRc5UI4wyei9SHmHOaMI+2mXQPVZfmkyRTGnEOuX4kymiL6XMGYcfx8wKDtzO1kzznUukHZ4TCEZrzqjBl1mgvhqrqpPGYZQ15S+y8TWYz7MMRCOEdm4EK4ns3xJYRzcHAMPLgIzjG+wRQM+EaXb3Q50qI/gTArYM8gOOVCuJ6fqvbMbmCUF1wIHxIwDgW4EM4eo1wI51Agy0zOzmgMJO2oyxE3lpw5XAjXbztzO6wYS9VTMpFONUzksexwMCGDWti4EM6qqzffiNaHmHOYM460SxXinDMg4OcDCTvjk3OodYOyw2EILoRTfjDHGEEYzLWELGPIS2r/ZSKLcR+GTAjnkyctmJzNhXC2TS6Ec3BwZA8ugnNw8I1uwg7VA9nZITc26YJlRtuZ22FvDLQvDTYhRB2+0TWJ/gTCrIA9g+CUC+F6fqraM7uBUV5wIXxIQKzZAH1fZUYmWW08COG0T0TruptPjYdMm1wIH4VIK4SrxhxrDCRsMEoT/+jHWCn7A2HHOM4ZT7GarP2TZj3j88YMtGsfORYZZbkQzvCJaH2IOYc540i7VCHOOQMCfj6QsDM+OYdaNyg7HBTU/cOFcMoP5hgjCIO5lpBlDHlJ7b9MZDHuw5AI4RymwORsLoSzbXIhnIODIztwEZyDA2AHpzpBJTM4JewQpelAWlPcRCCdsR2dzYaq6njZ6MrJK6o+Ym5CSMMc5tCfQJgVsGcQnHIhXM9PVXtmNzDKCy6EDyZkzQtyDWSUHedCuJz4z8h/LoSPfaTjbHpM0weHrHGZKqK9seTM4UK4ftuZ20n0CmMdkrV/0qxnfN6YgR7ncCGcVVdvvhGtDzHnMGccaZcqxDlnQMDPBxJ2xifnUOsGhyFkEP08xoRwIbG31udKIo8L4RyZgsnZXAhn2+RCOAcHR+awDbcDHBzDCRkq+pRlQBC0eZAhywIEQVtDBiAoBWVVWJyyQ5SOE54AqK+kiqvSitn+2kl4pXpDGk9lQBY0nifsyBAETQ9kZwcyhJSjVJ24SW09su3M7SR6KtV12t5T3Tjy3suCxhNwGEPbf+oEEnOGtYFS3xe6bvwuypQ93bqMtgSbG5b8cqUwVUUgk4x7LTDqqeqqtsBKnuRrA6JB6j1p/RdAjS3NfAbRH8mXQsIAaY/lpNpmoj2mTdrP1NojJOaJ9gL1tvTyOQyhog41kcSvEfc1XkSbSVaj1+N0vEa2w+IWdVmCE3TGnsPqhN3qgNVqg81ig1WwwmZNhpkC7FYHCt1F6Al0Q5RjSr2YFIUsS4iKUYiSiKgUQUyMQj12aa7Q+q/laVY/qSxQ457FccZ9TI97HR9IPyGQt1wxyZEBGJxN9z/Z3+ZjtdQ/+jGWUm9A7BjHOckYK6fACqc7SURk1AUAAsIBCUGfZGiH6qVRFKux1jMOY+hxDmstZ49p9Yv0nCMzxiZ1rxOVWPfSDOcIggUOqwN2mwM2qw0WwRrnHYs1WQJuRy5y7DnoDnRo6kbFMGQZiIoRiLKImMI50J8nw8w5NDfTPtD9pM85HMZIv+6MnfMBq02A3SnA7rDAahNgscbLkTGjGAViMRmxsIxYVNYZx2OPc/j5QKYg5oZmvOqMGfV9ZN1rihNUaXKcscaQ2gdyPiiXSF5KzSu3w4G75y7B8orp2Fdfg70NNQjHYjpcSeSpBx2xllgFC5ZVTMXdlUvQ4uvFWzUn0RX0QTsuVT1HELIxL6nXBW2/M++DUR/3t9/5tEkL7bqjTiSyGGdrps/VGDbNnqtBsMBaMBGwOeNJsgIZmymNaTOZIYigfilr8uSIH5K/Q7dPUv4n1/dUOb1ztVRSAHmuprVJQGNTWzftfQMS65tMXaDiutSU5SEbB8cggovgHOMc7A3qWN3oUp7qHvZwIZwjPYwCv+EQwgWrA4UP/xLupQ8BgpUuOFiQJYTPvArvm18HooFEHnT8J4L1RNmxIIRzmIf2HINgHOK+UocojGpDIYTbrDbku4pQ6C5GobsEEwsnY2LBZBTnlqM4ZwIKXEXIdebDbc+By5EDh9UBlz0nbV/4Iz6IUgy+UC8iYhi+cB8CYS86fa3o8Lai3duMTn8rvMEe9AS7EIz4mf6PdiGcwwgyY+0ZX0J40SQbPvMvFSidYjfsqY6GKP7n39rR0x5j2hkLsVpyPeMwDz3OGclCuMPmRIG7CIXuEhTllGBiwRSUF0xGSW4ZinJKkecsQJ6zAG5HLhw2J1x2NxxWZ9q+8IZ6IEoS/JE+hKJBBCJeeEO96PS2osPXgnZvM7r8bfAGe9Ab7EY4FmL6z4XwsYyxeT4gWATkl9hQPNGOyXOcmDDNgZJJduQXW+EusMKVa4HNTg8USZQR9EkIeiX4e0X0dYroqI+g5UoEnpYY+rpESKJM99wY4Rx+PpApxoYQbhMErJoyE19dczOWTJwCAQLumHMdDjdewbPH9uJcR3PWQvik/CL8xZJ1uHfuEtit8TOLuysX4zfV+7Cn4SIiosReSwhCHhVCOIcpaNcddSKRNQxCuGvxAyjc/HNY3EUZv5/+QPTUwfvqFxBtrNLtEy6Ec3BwZAMugnNwjMKN7sRZLkya5URTbQid1yJp7AytEO5wWTB7uQuxiIxr58KIhEbfRpfDPIwCv6EWwq35E+Fe+jAgDPEvfQgWOK/bjPCZVxG+sDXNBgZcCOcAoO5ngDyhHm4hXLBYUJpbhhmlczG9dA7mTlyEKUUzUOAuRr6rELnO/AHpAwDIdeQBAApc+htsUYrBH/aiL+RBp68V17qvoL67Fo2ey2jpbYA31AOap1XvisXT1LjnQvjIBhkpQOHstP2P7GK11D/6MVbK/kDY0Y9zZixypRXAAaBsuh1T5zvR0xbLLObLKMZKdh0XwkcT9DhnJAjhFosNFQWTMXPCPEwvmY3KiYtQUTgVBa4i5LsKTX2gyizyE1xTlFOiWyYqRuAL9aIv1IN2bxPqu2rR0F2Lpp6raO29hmDUj+HgHC6EDyVG3/kAy47FIqBitguzl7kxe1kOyqc7kFdsVb7xbQYWq4DcQityC62YMDXJQ7mQZSDQK8LTGkP92RAuVwfRXBtBLDL2OIefD2SK0S2El+cV4Curb8KdlYuQY3cobVotFmyYXoklFVPx+vlqvHTqMDxBP4MrifmZSDttNnx8/gp8avFaVOQVaN7flPwifHvTvbijaSF+c3w/LnW3s9cSgpBHvBDOozXT0K476kQiayiFcKsF7hWfHnIBHACsxTPh3vhXiL7yechSTLdPxroQzsHBMfDgIjjH+EaaDepI2+hOrnThhoeKMW9NHlw5FvR2xPDCtxvR1TRyhPC7nyjGok25kCUZ3c0xHHnHh9O7/JBi+nVG2kaXIw3o+M0gOB06IVxwFWHIBfAkrHa41n4VkdodkGPhNBsYjE0hnCMt6DVVfY5BMA5xX9WHKNo8qO5p9kJ4obsYi6aswuqZm7Bg0lKU5U+C25ELm2X4Q0WrxYYCdzEK3MWYWjwby6dtAABEYiEEowG09l7DhdYTON96HGeajiIY9Wnq6/I0Ne65ED6ykY0Q3r9YLfWPfoyl1BtEIdySCbUly2Ya82UUYyW7bhhjNR6vpYVZzhkOIby8YDKWTbseK6avx7yKJSjOKYXbkQvLcMVxKtitDhTnlqE48WGwNTNvhgwZ4WgQwagfDd2Xcb6lGudbjuNC60nEpIim/mByDhfChwBpuMKY8/vHOQMlhOeW2LD8lnwsubEAE6ba4XAN/LwSBCC3yIrcIiumLnDi+gcK0NcRQ01VECd2+NDVGFO6ZExwDocxqC4afUK4zWLBvfOX4Ym1t6A8V/8Dv/kOF/5i2XrcOmshfntsLz6oPQsx0QF683Np+RT81brbsWBChS7P2SwWbJxWiaUTp2LL+Wr88cwRBKKRMSCEcxiCjAEY+UrWEAnhEOywuAoYF4YGjrl3wVaxBLHm44Z9MpaFcA4OjoHH8J9scnAMI8xsUId7o2uxCqiY5cTNn56ABdfnaQ5CC8vijzTrbIqY2DAPjRA+baETggAIVgETptlxz9eKsf7j+Ti4pQ8XD4UQDrJ/q3JEbXQ50oMZSOpcG0IhXI1w7S6Ea3Zo6qa9x4wCgk4+ALjXfhnW4pkAAMesm2CfuSkuhEO/P1L+E8F6oiwXwsc2RooQ7rA6UJpXjo2Vt2N95a1YOGk5bNb03zRNtSsjJkYRFaOIiRFExAh6g93wh72JR5r7EIj4lD1pT7ALMTEKh9WBAneJ0gdWixWF7lJYLVYU50xAjiMX+a5CWC122K122Kx22Cxsvxw2Fxw2FwrdJZhfsQwP4vOISVFcaDmB49cO4EjdbnR4mxEVI/o8TY37YRDCOQwhJ/+wYiwA5oRwUAeHo0kIJ3HorV54u0QAQFG5DWvu1R5UZR3zZRRjJbuOx2ojGSNFCHfZ3ZhcNAMb596O9XNuxeyy+RAyELxlWUJUjCIqRhCTogjHwugNdMEb6kUoFkRf0INILAwIgCSJ6Al0Q5JFuO25yFMd5MY5qBg2qx2F7hLkuwrhtufCZrXDbrHDZnWofls8BQECXPYcuOw5KM4pw7Kp6wDICEVDONV0GMfq9+L4tQPoCXRBlGKDyjn9FsI5DGFmX2/M+eT6pW+HKE3cX6N9fdJsyo7FJmDSLCfWf7wY163Ph91psFrKQDQiIxqWEOiLP+Lc3ysi0CdSRZ1uC3KLrCgstyG30Kr8hjg5fW12ASWT7Vj3oB3XP1CAqydDOLrNi6snQ4hFZM45Yx4ye90ZBUK4RbDguvLJ+KsNd2J5xTSqzWu93dhTV4M7Kxcp4rgAAVMLivG9Wx7EA/OX46lD21HT3Q5JlpW3JACYlF+Ev1y5CXdVLoKVmDS+SBjbr5xDZUk5FpVNhiXRbr7DhS8s24DbZy3EU0c+RFVzHWKSqF1LCEIeqUI4pxyTMHk+A2DohHBZNQYifnh3/Hs8oSpruD7qXBR0rtkmLYNr6SfjZexu5Gz8a/S9+gVAlgz7ZMwK4RwcHAMOLoJzjHuM1I2u3QHMWJSDNXcXY+G6POZvdKnfhLkN89AI4SSKJ9lw79dLsPaBKE7u8OPcgSD8PSLf6I52MANJnWvDIIRHG47Av+9n8YResM6oz/Iznk/nybEI8u/5T0CwABYbXGu+jMjVPYAYNbGBwdgTwjlMYTiF8Am55Vg5cyNuu+5+LJq8Eg5b+t9QDcdC6At60O3vQJOnDk099WjpuYYuXxt6gt3oCXTBF+6l6gnQ7ui0c0/Q5gmpf6wWK/JdRSjOKUNhTglKcssxqXAqphXPweTEY9kLXEWwMr6lbrPYsXjKGiyesgafXvsNXGg9jv2176O6fh+6/e2qeTNyhHCO9DCMsQCkF8JN2BnRQrgWp3b70Ho5/u3TqQuclAiueXeZxnwZxVjJruOx2kjGcAnhFsGCisJpWF95K25deB9mly1gCswkAhEf+oI96PS1obH7Cpp7GtDa14guXzt6gt3oDXQlHkmuRbacY7fGf3+8yF2KotwJmJA3EZOLZmBa8SyU509BYU4J8pyFjG/vCXDZ3Vg782asnXkzglE/Tjcdwb5L23Cq8TB84b4RKYRzpMdIPR9gCeEWS/zMYMODxZi/Nlf3UefhoARPSxQNF0JoqgmhszGKrqYIgj4p5ZVm/mgnkwABDpcFxRU2lEy2Y9oCJ6YtdKG4woacAu28FgRg9nIXZi114dqFMI681YcrJ0KIRjjnjG2wYq+RLYQXu3PxpVWbsHnhSrhVjz4HAF8khLcunMDz1fvRGwrgf04fxpdWbsLH5i7WlF05eQaeeeDzePXcMfzPmSNo93uR63DigfnL8dll61DqztPYjUkiqprr8XTVLtR6OuCy2fHgvGX47NJ1mJCTKju1oBj/cetm7K6vwe9OHkB9b1ciHhw9QjgdwXLowuT5DIChE8KT16PB1LkatHW1sZa2XibnapbcCXDO/xgEZ3xP45h/D6wlcyB2XaJd1vU/ub6nyo1aIZyDg2PAwUVwjnEO8xvUodroWqwWzFqSg00Pl2D2slxj8Vuxhgw2zIMrhOtCiP9W5e1fKsLKu/NQ/Z4PZ/cGEOiTMNI2uhwZgBlI6lwbpm+E0/Yy31TotRU68RJyNn4T1qLpAADn3Dthn7QS0cbDJtsCF8LHKYZaCJ9aOht3L/kEbpz/MZQXTKLWeDWCkfjjXmvbz6Om9TSudF6Ex98Bj78Tkiwp5ch1mRZPaCFPl1tV40mURPQEutAT6ErVSJhJPqa2LL8ClWWLML9iKWaVzsfEwmmUQGGz2LB48hosmrwand5WHLj8Pnacfw2tvQ00T1PjfuiEcH5AlA7xPjL8JjcAc98IH72PRie7xOjDhxob2cR8GcVYya7jsdpIxlAK4QIEXDdlBe5Z8gjWzr4RRTmlhr71BT2o67qEmtazuNR2Bg3dl1UckMJgcU5UDKPL14YuXxvQkaovAHDZc1CSW4aKwqmYW74YcycuwazS+SjNm0i9D7c9F2tn3oI1M27GNU8tdl18C/suvYueQOegcE62QjhHOpjnCmPO7x/nmNnXl0134uZHS3HdhjzYnfSTFWJRGY0XQrhwxIerp4LouBb/zW4g2WyyBXNcEQlJaKuLoK0ugvMH/bBYBZRU2DF1gRML1+dg2nUuuHJTfggWYPp1TkxdUIa6UyEceLUX186Hof6GodKUOi9UAAAgAElEQVQW55zRj0SfjQYh3GGx4va5i/D4qhsxq3iCxrYkyzjceAW/OboHZ9qaICVGQKuvF/+xbxveqz2Dr19/K5aUT1HadNns+MzSdbhpxjy8efEEbp45H4vKJlN+1/V04YXj+7GrvgYRMf6TAaFYFP9z7ig+aryMLy7fiNtmLYTdGv9gidViwW2zFmB5xTS8ev4YXjl3DCExmuo5gtRGnBDOJ09mMHk+A2DIhfBs/MzkXE3ydyJY9TxybvgrAIh/G3zDk/C+/U1Wswb+J9f3VDkuhHNwcABcBOfgwEjZ6ApWAbOX5uDGT5Ri1pJc2Bw0/fl6RLReCaFyZa7Ge21Am37DPJhCuBqe1hiCPgmTK7Wfqi2ZZMNtXyjCqrvzcPwDP0596EfIqw3GhnOjy2EMKoxlBpI618aYEC6HehE8+jvk3f7deIbVAfe6ryH6yuEM2koe7KYJhJn+0wH7cAnhHMZg9dFQCOEVhVPx6Nq/xE3zP4YCdzHbN1lGc089TjQcQnX9QdS2n0NvsBuhaDBljLEpow9H6LGXrShB9Upi7EbFCNr7mtDe14SzzcdgOWVBnrMAFYXTsWLaBqyeeSNmT1io+bahAAFl+ZPw8eVfwC3zH8D2c6/i7VMvwh/xJj3UtK/xneJKuo/7L4RzmMM4FsLZ3QGZ+Q0LmUhxIXw8oj+c0x8hfN7ExXhs/RNYPfMGuOxupm+SLOFy+3kcr/8IJ64dQkNXLXqDHkTFCNRkM2yck6gvAwhFA2juqUdzTz2qGw7AKlhR4C7GjJK5WDF9I1bNuAFTimZp/BIEAdNL5uJz676FuxY9irdO/Dc+vPgGYpJKuKCcy45zshPCOdLDPFcYc37/OEf3iXFOYP39Jbjxk6XIyaefruDvEXFydx+O7+xDZ2MEsais8pHNOdlwhSTK6GyKoKs5itN7/Cgst2Lh+lysvDMfxRWpo0aLJf7N8KnzHTi92489f+pFyMfgqhHMORzGkNUvRrAQDgBzSsrx5IY7sH76HNiIp5N0Bnz45aGd+KD2LMJiNJGb4gRJllDdXI8nt76Ee+YtweMrb0RpTm6yFKYVluAba2+l+icixvDS6cN4+exRdAf9cVcUX+N90dDnwff3v4vtV87ha6tvRmVJuVK/1J2Lr6y8ETdOn4tfH9uD6rZrkOVRIIRzZA4yBmDkK1ljTAgPHvkt3Gseh+CM/+yAc9FDCOz5AcS+a6xmDfxPru+pclwI5+Dg4CI4BweA4dzo2u3A3JX5uOWxCZhS6aIeYSbLgLc7hgOvd+PYB72YscitEcGJVg03zEMthHc1RfHK9zsxe4UL6z9egCnzHbDaEmGCABRX2HDrXxRi/eZ8VL3jw8kdfgR6JcjDvtHlMIZAB7PMQFLn2iAJ4bQ9Yz+z2VSw/AxVPY+cdV+DJS++UXUu2gzb3h8h1nYmg7bAhfBxAOaB/SAJ4XabHZtXfg6PrXtC83uoSUTFCFp6G7Hj7Bs4cnUvrnVfgSjGkHyiB/uwhN6UDYcQrnZNgoS+UA+8oV5cajuNLdXPoaJwGjZV3oWb5t2HsvzJGkG80F2Ch1d9GRsrP4bff/QTHGvYB0kWU8xBjXsuhA87ZG1iYIRwGNthihKAWhwbSiGcXGC/9IPJSh6LNzP+GRu9mC+jGCvZdTxWGynoD+dkKoQX5BTjcxu+gbuXfgJOm4vyJRQN4nL7eXx44R0cvboPHd5WiFJMua6515p5lsb/weIclg8yICL1pJKTjYfwh0NPYVbZAtw6/wGsm30bCtwlylNJBEFARcFUfHnTP+Hm+ffjt/u/j6udFyCrZ8AAcA4XwgcL5LoTzxtOIVwQBFTMcuHBr1dg2kK39p7KgNcTw6G3e1D1bg+CPjHBE4naKjt6nNOf8wFJBDwtMRx8rRdVW/uwYF0uNmwuQNl0h/L74Q63BavuzsfsFW6890w36k6FNXs4zjmjGySfjDQhPN/hwudX3oDHlq2jHn0ejEXxbs0pPHNkFzoDqZ/bEATFkCZu80fCeOXsUey6ehFfWrkRDyxYAaeVPl6PSRKONl/Fzw7vxFVPpxLOUXu4xOuIJOKjxis43noNn1y0Gp9Zcj3yHXFOFQAsnDAJP7r9Eeysu4DfntiHVl8fFc+yxjMXwkcumGdOZAzAyDeq328hfID9NHuuJvY0IHT8JbjXfRUAILiL4F7/dfje+0fNOmzcVtJmcn1PlRtNQjgHB8fAg4vgHOMaxpudeN5gbXSdOVbMWZGLGx+agBmLcpiH490tERx9vwdV7/Ug6BXBDkeoVqkN82BsdHUPVwlIoozao0FcORHE7GVurL0/H9Ouc6Ye8y4A7nwLbvx0AVZ+LBfHP/DjzO4AetvF4dvocpjCaBDC0/mZzaaC9FMKdCN45Fnk3vrteIbFBveGb8L7+hOZBcIyRrcQzmEKQyGEl+VX4Mk7vov1lbeAHGg9gS4cvrIHH5x5HWebjsUfby4oo0inHRa3GPjPeo/UOq0eZwS3ppoD1Ss68yG5xotSDE2eq/hz1a+xpfo5rJl1M+5Y+BCum7RK+f1zAQImFU7H3931E7x98vd4+dgzCMeCKeagxv3gCuEcxmCswNSBX+ZCuAk7LLFPldDEXUpxxqhV2RGsAkom2hNP+0mVI+deb0cMkZD6nWt7If1P5aSJ1TKJ+TKKsdhtZ27HTKzGJ48ZDIUQXlm+EP/7nv/AnPIFVDsd3hbsufgePjjzGuq7auMXBHKUMThnBAvh6nkSk2K41HYGl9rO4KUjv8D6OXfgjoUPY3bZAlgEa+LtCpg3cSn+z/2/xYuH/wsfXngdMSk2oJzDhfCBw3CeDxgJ4VargFV3FOFjj5fDnaf99qrPE0PVe7346M1uBPpEzY0ejvOBaFjG6T0+XPgogKW35GH95gLNN8OLK2z45D+X4eBrfTj0hhdRFd+NXM7hMIYMTS8nOm4kCOE2mwU3zlyAr6+7FbNV365OwhsO4X9tfQknW68l6gLa+ZEwRH4QUhbQ6ffiB/vfw/u1Z/CNtbdh+aTpit1rvd149tgefHj1AmKSlBqx6nnOEMJlxB+R/vuTH2FPXQ2+uvombJw6R3lEut1qxcfmLML1U2bhdycP4t3aMwjGoiNSCOdTxxxGohA+0H6aOv+TJQSP/AbOpY/AklMCAHAueQTBQ09D7GnQ2jNsC6p5LGsqjRYhnIODY+DBRXCOcY7sN6jZbnSdLguWbCrEuvtKMGUu/c1vAGhvCOPgW904d9ALn0dU8llBgzpCYW2Yh2Kjy+glClIMqK0Oou5UCNMXubDq7jzMXu7SPPY9r9iKTY8WYMWduTi3L4jjH/jhaY0N+UaXwzxGmhCejZ/ZbCq0fsoInXwZ7rVfSX0bfMG9CJQvhNh+LsO2wIXwcYDBFMIrCqfiuw8+hXkVizX2fWEvPjjzOt46/kc09zQk1kOtQXJIjlYhPImoGMVHl7ej6upuLJ6yBvcueQzLp62H1RIPfy2CBQ8s+zwK3aX47f5/R2iYhHCO9KDH03AJ4dobq8lTijNGbcLOqjsKcPeXy+Fw0b/dqpSXgDP7vdjy41bIUtyO1yNCkuKPlDWCGJPh70nFjWNZCOecYx6DKYQvnLQM//ehX6Ikt0xTpsPbgjePv4QdZ99El78dADTzSjs3WX6mFnpWuDeShPAkvKE+bD+3BfsubcP1s27FvUs+g9llC5VvhrsdufjShv+NfGcRXj/x/IA/hcSsEM6RDkN/PpCOc1w5FtzxuXKsu69Yc3YgxmScO+jFhy91or0hAihm9blrKM8HohEJ1e97UXMkgI2fKMTy2/Jgd8WvW20CbnikEBNnOPDBcx70daq4ayRyDocx5NSLkSSEzykpx1evvwW3zE79zjaJQDSCE831KR/I+aDa8zOfCCQDJ1sb8eODH+DFh/9SsfvH04fwQe1ZYi6S7xe6QrgAoL63C9/d/SZumD4Xjy/fiNnFKa4tduXgr9fehptnzMPvTh7EybZGyMpZAHs8D7UQzoM18xhxQvgg+Gnm/C/WdQmRi+/CteIzAABL/kQ4V3wWgV3fB3XWZdhW0mZyfU+VGxVCOAcHx4CDi+AcHEO00bU5BSzZVIQbPl6KyZVu5kFmZ2MYB97oxum9ffB7RZXtVADODEdGyEaX9VlP0k4sJuPqyRAazoYxZZ4Dax/IR+UqN9Q/x5RXbMXaB/Kw6EY3zu4N4ti7PvR2iHyjO0LBhXBA9NQhdPLPyNn4JABAcBfDvfpL8G372yzawugVwjlMYzCEcJfNiSfv+I5GAJcho7ruIH63/79Q03omfjiSvKYZTyxeI9thcYuB/6z3SK3TBj6kmgPVK2k2sGqTMSmKE9cO4mzzUSyftgGfWvM1zJoQ/8aiIAi4cd49aOtrxKvVz0KmDu8I3ymuBBfChwRZCNgAzAnh5H0cPCH8ug35hgI4AAgWYPEN+Xj9p20Qpbidy8cDeO+3HZg02xn3TGf8NF8K4+qZoPa9jVEhnCMzDIYQXpZXjr+75/saAVySJXxw9nX88eCv0NrbqK1DcM5YFMJlOf7o9z01W1FVtwcbK+/CI6u+ggl5FQAAm9WOT6z6Mq55LuNI3YfQzIAB4BwzQjiHGYwcIbygxIrNT07GguvzNffR3yvinWdacfaAF2JUva9PmtXnrqE+H/B5RGx/vhuXjgZx1+PFKJ1qBxB3b971buSXWvHWU13oaopp6o0kzuG7HRNgjenEYB9qIdxtd+BTy67H51begBK39qcEY5KIqChSj0TX+EDOB+USyQmpeSURnzISJVmJ//ojhEdFEbuuXsDx1gY8tngtHl6wUvFdEASsrJiOBaUVePfyGbxw8iP0hAIaUht+IZzDLEaaED4YfqY9/5NEBA8/A+d1DyR+G1yAa8VnEax6HrKvlRErGbWVfO/J9T1VjgvhHBzjD1wE5+AAMJgbXbvTgpW3FmPDx0sxcYYTFgt9WNLeEMb+17twel8vwn5Jsai3QdV6rvWH8H7IN7ossOyIMaDhXBiNFyOomGPHugcLMHe1C1bVIz5zi+Ji+NJbc3BmTwDH3vWjt01U+mDwNrocmWLcC+GQEDr+R7hW/gUs7mIA8d8GDxx6GlL3lSzaAhfCxyDowzr6vvRHCL95wb1YO+smJR0RI3jxwC/w2tH/RlgMKfm6B+ZjQAjXEyUEIf476FV1u3GupRqfXP1V3L34U7BZbLAIVty39LM4fHUnGjy10NwpatxzIXz4MFhCuPmYjyhN3F/9GEupZ/KeJ38/NWlHjAGH3+5NXYd28gnaRNpYbWwI4RzpMJCcw6r7qeu/ghmls5V0b6AbP9/xr9hX8z5EWfUkKwPOGatCuCAAgYgP289twbH6/Xjipm9j9YxNAATYrQ58aePf4XjDfkSlCDR3agA4hwvhA4XhF8JLKhx49O+nYMbCHKgv1Z8N4LWnWtDZGFHytfv6pFl97hpqIVwSBVw5EcSL34ng9i8WY9ENuQrXTap04NFvl2HLf3airS6qqcc5Z/RAd0wnLgyFEG4RBKydNhv/a+NdWFA2CRZiHF7t7sAP9r6Lzyxfj00z5zHehMoHcj4ol0hOYLETlGETf/vkXCTfLwyFcADoCQbwq2N7sfPqBXx99S1YMWkarIlJlGN34OEFK3HDtEo8U70Pu+ouIiaL0BvPQyqEc2SEESGED7Kf6c7/os3HEbm6D84F9wAArEXT4VryCQQ++iVY53/GbSXfe3J9T5XjQjgHx/hCmofqcXCMbWi/uSwTArOc+iuzayQrECEGZBnIKbBi3b2l+NYzc/HwX0/BpFkujQAuiTKaaoN45UeN+Nn/V4uq9zwI+SVoLMpq2/pkmHKPLG1sR5aJNCPwkbUJsgcSdtITtZ4dSZTRXBPBaz/sxAt/346zewMIByRNXVeeBavvzcOXflyOO79ShAnT7aoDYoY/2jdMta3NS/QU495z6ECne2SZEcnpJclrZF0l37h9WR1VZhCw69vT95FZV8kHYm1nET77hpJnya+Ae/XjkAUV1WbUFqC3odarm3opMPqY6TphU9WfJvxMrT18k2sKjDWUdV/IdU3WvGDXFyDg7qUPKwcOoiTip+9/By8degahWCjNuk4bJN1irpFkXT3/We+RWqcNfGDuyXV8SPSxUT/7w3144eCP8eaJFxRfc535WDvrVjbfU+OexZVkmsU7hBVONSZhFKsl8jTFGJGKTI0IxphOY8cgxqLylOL6N9nfK+Ktp9vwduL/KycDzHIsO+niHDOxWtYxX0YxFrvtzO2wYjUOQ+jeC0ZRk5yjLlaSV4Z1c25GMm7oCXTjX974BnZd2AZREjPiHDaPEB4x11Ed/weLc1j5uvMt9brb34Yfvv+3qKrbq+SV5lVg6dR1g8Y5zBnH548pDOb5QCZ2Jky244v/b7pGABdjMg5v9eB332lAZ2NY0wq9r9f6Q7RKjBMjO1lyBYtzZMDnEfHmU53Y/acexCKpMkUTbfjUv5Rh2kIns55e21Qeo+3M7bA4h08gM9Ad04kLzBhOM+VMjD11WlU+x+7Ad2/bjF8++HlcVz5ZI4B7gn788qOd+Mz//BqHrtVClLTnTdrxYDAf1G9I454MeowQZai5yMiTaT803SNJuNjVhm9tfxn/uncrmr29UGNibgG+c8M9+M/bHsKUvCJNa+R41t/byUQW4z5QvJt+DeCgIUMnZmGdrejGMObqmz5X07HJQn/8NDz/k2UE9v4Qspj8oJcA9/pvQHAXQWacV6VvK/mKPgc0rJesw+xjpvuETSGz+waAn6txcAweuAjOMe4xGBvdafPdeOJHc/DQk1NQOlm7kZMkGXVn/XjlJ0145m+vonpHD8SYnPEGlX4fWn/M2hlUIZzYC6Sz01YXwVtPdeOl73bi9O4Agj7t5sTuFLD8jhx89v+VYv3D+YZt88PVwYVeXw2rEG62Lqutfm4qkm0FDz0DOexT8lxLPwlLXoXupiJ9W8CoEcI5zIGx9g2IEC4A8yuWKHlnm6qx4+xb0Ks21oVwxb6OD7IsYUv1c/CGepS8OWXXwWKxsvmeGvcsriTTLN4hrPAJlB7UnBksIdyEnQEUwsMBCUe29uDw1h4c2dqD1qthyhcjO1wI50gLE2thKs8c5ySLleaWoaxgkpK/6/xWnGk8xqjL8IHBOWweITxirqM6/g8W57Dydedb6nVUDOPPVb9CVIx/y1WAgMryxfrrzQBwDnPG8fljCsMthOeX2PDYP01D2dTUOUIsKuP9F9rx9q9aEAlKKtv6XCFrL5CtEuPEyE6WXKHDObIIHNzSi3ee7tLs93OLrLj/yRJMnGmn63HOGQVIMzcSFwZLCL9j7mJ8fNFK2FS/OxgVRXxw6Qz+8rXn8VzVHgSjUTaJgBwPBvNB/YYMeIlZZgCEcMgyYpKE7VfO4Wvb/oBXzx9DIKp+KoSAtZNn4lOL1lCkNvRCOJXFwcCIFMLN1NVpx6yfRudq0WtViF7dp+RZi6bBteghrZ9UrGTUVvLVKBHC+dzh4Bhw8Mehc4xvyGA8RktGfx99tvqOYlTMdGmbkoC6s37s29KJmmM+RCPJDZ+5x22yHjur83ZM2lFKJ4qr0sj+0WekP0RTae3IsoyWy2Fs/XkEE6bZsfJj8d8Gd+akNjPOHAs2PJyHg694NfUG6tFnHOagGmZE/vA8Gn0g/TTy0cjPaNtZhGveg2vJJwAAloLJcK/4LPx7fwi931tK3xZGxaPR069QHAqYax99XzJ5NDpkwGFzEgbopOlHqBK8xvbTmKOG+9HoNL9rfRAEQeOf3epQZqn+4xwJ3ymuNO5jtv8caUHNGTJWS+Shv49GV5ob1EejM96eTp6xnXRxjtnH1I7GR6NzmISJtTCVZ/7R6BaLDTaL+ihBZswNpBlX2vV+LD8aHYg/plftT5KzB5NzWI9G50gD5pzp//mAWTs5+VZ8+h+mYXKlW6kVCUrY9lwbDm/tTtxCMu7R54qUe9r5mZNvQfl0JybOcGLCNDuKyu3IL7bBYtWOmECfCG93DF3NUbTXR9DVFEVXczT5brLmHFkCzu71IxqWcf/XS+HKi+/1iyba8MBfl+Llf+tAb7uorcc5Z2RDNZCN1zWdGK6fj0YvdLnVBnG1uwO/+GgH9ly9gKgYH0u6j+hmjSG1D+S8Ui7pbIJI42reYHIlkacmD9ZakuDMzoAPTx3ZiV11F/H4ihuwYuI05T3mOpzUfUiO56F8NDqHObDjsuF6NLp5H/vrp9H5X2D/U3DMuQXJx4DmbHwSoRN/ghwLJpmEESsZtZX0P7m+p8qNtEejc3BwDDy4CM7BMQgbXatNy2INFwLY+VI7ao/7EA3HKU3hXh07RKsKidL+y1Azp24gTdhJv2HO7lCUci9LO5Iso6Mhig+e86DqHS/W3J+PpbfkwOaIl7PahEHb6PKowzy4EE4G+zL8e36oiOAA4F73BAIHfg45Fkoc8MpZtJXctNObi5ElhHOYBmPt65coAaAv2IMCd/zRd4unrMRNC+7GrvPvaIwS1RjrsfaAZSwL4Q+t+BLynIVKfkyKQfmWkqafBlsI5zAFas4MlhBuPuYjShP3lxVjaX0VoJoQLI7StaN934KmfspTWSfGGhNCON1dHHpIsxZqiprknHA0hFA0CJc9LjrcsvA+7Dz3Ns43nyTmBtKMK+16P1aFcLvVhkdXPwGbJfUN15io/u3jweMcMx+k5iDAnDODL4Q77Bbc/8QkzFqaq5QWYzLefLoF1Tt6FDE28319/FVugRWLb8zH/DV5mDzHCVeuVdlbm4EkyoiGZXhao7h8IoizB3xovRyBnPxsf4acI0tAzeEA3hRlbP7WBDhccaGjbJodD/5VKV76bgdiUVlbb5g4h5OOMWT1i+ESwgmf/m7bn1HT2WpepGWNoQyEcPLDEjLU7hK8kYEQnrwm6wjhkiTjRNs1/O32V/D2o99ArkP9oWg6Lga4ED5SMZKE8Ex87K+feud/kbr9iNQdgGPWJgCAtWQ2nAvvR+jUy4nxOHaFcA4OjoEHF8E5OIBB2egmIYkyfv7NWoIU+3G4ynDd7Ce+R5sQLkMGRAHdLTG8/6wHsiRj1d15bNtK1w3ERpcjE4wkIXyg/cxmUxFrO4/whW1wLrgHAGDJmwj3mscR+OiXibE+doVwDmNQ3cVY+7IWJWSgtbdREcEtFiv+4b4fYGrJTLxx7EV4w33a+obrsfaAZawJ4XnOAnxi1Zdx39LHNH51+dviv2XL7CcuhA8XZCIxdEI4jO1kIYSrUTLJgX/duiDtG2fZWXZzHu77ejmcbv1fthJjMnb90YMDW3rGqBDO47V0YPH1QAnh/rAX3lCvIoIX5ZTg+4/8Fr/68PvYfX4bwmKYUTdpb3wJ4aW55fjqTd/G6pk3aXzo8LYQPg0e53AhPAsw58zgCeGCRcCmT0zAituKlPxYRMbWZ1tQvd0T55As9vU2hwUzrnNj7T3FWHB9Hmz27EeCxSrAmSOgYrYTFbOd2PhQEdrqIjj6bh/OHfAj0Cfqc4WBEH6pKogtP+jEI/9Ypvg3dYETd365CO8944EqNBtGzuEwhHq7qJoQxuvawAvhagRjiScWMERaynn1S3IMmRXC9fpFPT8zEMLLcwuweeFKLKuYCrvFhq6ADzvrLmBvfQ0iYkzxTRbisWpYjOl4wYXw0YSRIoRn6mN//WT6GIsg8NHTcMzcAAhWQLAgZ+OTCJ9/B3I0kBiPXAjn4OAwBy6Cc4xrpN80ZbnRZbU0kN8yYrVABuSKWX07o0UI19vYDN5GlyNTjAghnCo4MH5mvKmQJfj3/Rccc2+HYHUAANzrvopg9YuQw32Jsc6F8HEH+nYrGQMhhMsAWnubMa9isVLGZrHh8zd8Exvn3oY/H/oNDl/ZjWA0CFU1cwfmY0QIz3XmY9WMTXhw+ecxewItPrb1NlJ5ujxNrWXZC+Ec6cBa74ZCCE+1PmBCeDZvnWHn+vuLDAVwIP7EnI0PFeLAlh79GGtUC+EcxpCVv/Qy3X/O8Ye98AZ7UZZfoZTJdxXi7+7+d9yy8F786dAzONd8AlExSq3b8ZdjXwgvzS3Hxsq7cP/Sz6AsfzLlX2vf0HIOF8LNYdDOB9II4ZXLc3Hrp8uUtCwBe7d04NBWT+p4IYN9vdUmYNaSHNz4SClmL8uBxaJ/98WYjJBfQsgvQZLijSVLO1wWuPIsyre0SUyc6cC9X5uADZsLUbWtDyc/9CHQJ2bMOZePB7H9eQ/ufLxYearekptz0XgxglM7/Vo7nHNGIGTt2q2aEMbr2gAK4QZBFn3/tYWN7v3CssmJ+SOgNxRAY5/HpBCe2vxlKoRvmF6Jf9p0LybkaL8AsmnGXOypr8EPDr6P3lBA6Z+kEE41T/Y7QWqDLYRnEfmOL+h0z7AL4Sw/yTiEVbeffrLqRmp3IdpwBPYZ6wEAtorFcC64G6HTW1TjkQvhHBwc6cFFcI5xj0HZ6Oq1NCBCuH4gOeaFcLbRAd/ocmSHYRfCmU6BCiSHQgiPNVUjenU/HJW3AgCsRTPgXPQgQtUvKjbGnBDOkR46YjJr7ctGlGjra6KaFCBg7sRF+OcHfowLLaew9eTLOHR5N3oC3QT/sNZj9T1m+z7ShXCLIGBq8Wysn30bNlTeiRkllRAE9kFuu7dZxyejwzvCd4rjjPuYb3TNgYqyqDkzWEJ4trGaQIzP+N+e9tTjj43Q2xmFlFQ9GHbIn93Rg+a3XfVirFEqhHOYAGvd1r0XmXFOIOJDb9BDNSkIFqyZtQnLpq1Fdf1BvHtqC47VHUAwGqDWzbEohNssNswuW4gb592D62fdgrL8Scz9kQwZnd6WIeccve0UhxZDLYTn5Fux+ZtTYHem4pNzh/rw4UsdkCQJYNghWtXMobJpDtz6WBkWbchnPu5cEmV0XIugsSaEhvNBtNWHEfJKCPokSGJqnyBAgNNtgTvfiuKJdkyqdGL6AhcmVbrgzsxDXlkAACAASURBVNPGUsUVdtz5xVIsuyUfe1/24PxH/vgczIBzTuzwYcJUO9bckw8I8Q9z3fTpQrTUhtFRH6PvEeeckYdhFMJZvmiT9P1XNaeNbVT3/tnNX1AeMf5uzSn88/bX6PMyOVGHZZiYnxR3EXN6dvEE/OMN91ACOBDf19w8cz56QgH85NB2iJKkvFeZ8d6Y/U6Q2uAK4ezu5lBBZz844oRwhs2hEMLliA/Boy/APm0tYLECFhtcq76I8IVtkKNB1XjkQjgHB4cxuAjOwYFB2ujqtdTPw1V2PKINwIdTCKff78AdrupiwDe6HEaQk39MBuvx/CEQwoki9mkrkLvhK8z3oLv/jQYQOvMG5LCX8iWTTYUcCyFw6Newz9oEwWoHLFbkXP9VhM+9BTnUq9jgQvg4xCAK4c2eBt1mLYIV101egQWTlqHT24ojV/dhf812nGg4FP9dUt31WH2P2b6PRCG8LH8yVkzfgE1zP4Y5Zdch15mv2zdJv1p6G0DztMoHFk9Ta1kWQjifO6YwvEI4jO2YFMJ3/L4D3q4Ycgqs8XrEOBMAiCJwancfxJisWrO1dtTweUScO+hT0rOX52DClNTvDpuKsUahEM5hDGWUDJIQLksyWhlPz0jCYXNi3ZxbsHrWDWjpacS+mvex/9IO1LaegySLpjlntAjhM0vmY+WMjdhQeQemFc9RHhOvB0kW0dbXiGHhHA5TGEoh/O7HJ2HClNTv+Ha1RPDaU02IhqWMOEcQgJW3F+HOz5ejoJQ+6vN5Yqje2YfTe/vQ3RJBOCBpPBFUf5GYEiG/iN7OGFqvhnH+kA82u4C8Yhvmrc7FslvzMXW+K9UHAjBxlgObv1WOuXt8+OD5LgT9kmnOEaMy9v65BxNnOTD9unh/5JdYcfNnivDajzohRhj3aMiEcA7TGCYhnLxLrHuWjRBu8DY152U6JqF77qYjhG9euBJlual9S1QSEYhEUOByQ0i0dnflYrT7vfBFQqrWBNgtVqoHmP1OkNpgCuEcJqAzjIZVCFdBsLt0z9Ug6M0ACdGGw4g2n8rYT9LH0Pm3kbPxSdgqFgEAHDM3wj7rRkRq3tfUH1NCOAcHx4CDi+Ac4xtGBwT92OgaNJORHdZG18ybGU4hnOnZAB2u0u94kDa6POpIi/jmiQ74AP3hOtTfCHfNvwOu+XcYvxHaIkLz74TnT58H5OQnqwFimDF9JP2M1O5ErPGo6tFNS+CovB3hM1vUzY0tIZzDEORaTPUdY+3LRJRo7dEKElVX96MkdwJmlc2FRYgfilgEC8oLJuO+ZY/inqWPwBfqw8lrR1BddwBnm4+jtbcJkVgYohRTjI9kIdwiCHBYnXA7czFv4mIsmbIWS6auxfTiObBabUweiYlRnG4+gtLciZheUgkA8IV74U9++IXiaZUPuod3hO8Ux0FflOAwhoY2hksIN2HHhBDu9USx4w8disXUoUsKQuqCrh01PG1RbP11u2LnoW9N1IjglKc6MdaoE8I50sKQc3TvhXnOaSE4Z+e5d7B46kqU509SytssdkwrmYXH1j2BR9d+Gd3+dpxoOIyqq/twoeUUPIFORGLhxLddweSckSSEWwULHDYXCtxFWDhpORZPWY2lU69Hef4UWDXiQwrhWAiHruzEimkbUOAuBhD/PXBRTv7QMeecEYVBOh/Qi6MWrMnHqtuLlOYjIQmv/PgavJ54HGaWc5xuAfc/MQmr7izSjCVZBrpbItj/WjdO7u5FOJBaQJXaGZwPxKIyejuiqHq3F8fe78XUBW5sfKgIc1flKE8psdkFLL89H5PnOvHGUx1ouRKmnuqmxzlBr4R3f92Fz/1bBdz58W+bV65yY9ENuTj5oW8YOYcTjxFk0Ovm8AjhhF+sey3LiIgiQonfDA/HVE8ZIGMb8rbLhA+y9ryMKqv0i868IoTw/5+9846P2zjz/hfbK6tYJVKd6rK6ZMmSJbl3O3GJS7qTOPVyKZdcb3nfK7m8uSSXntjnNLc0925Lsq1mq1rNqhRFUuxtuX0BvH9guQtgsctlkygLv89H4mIw5cFgZp5nnh9mxm13ML98UiqL/liEr7z4OEc6Wvj88g3cNX85AC6bnc8sXWf80BlCZKl31TWYRPj5QjbiNnXf0C47t0S44PRRdOt/Dfosekj97XT+/AYSbYeHLKdmgUmkj9COn1Fw83dBsIDVjnvF/cROvE7q66hUe3yfEOEmTJgYdZgkuImLGkOfNOU30TUuS63QRpcIT+et+qUzyPWOMF2pWSe6QybCs+CCIsJN5IXxRoQr2yFJimE8bAg4Z12Fo3YVsdNbDQXLd1IhJ6KEtv+EwpplYEmuBl/9eWJHX0SO9asS8L4gwk3kB/1YnPFaDca+fEmJs7pVed3BDv7hj19gw5zruHHRXcysmIs9eU49KIR4gbuItXVXs7buagDaAy00dJ7gVPtRTncep6HzJN2hDvqjfYRi/UiSmFX2sSbCLRYrXocfn7OAEl8ZdRULmTqhjsmlM6kpmaZ5NiOE4yGOnN3Dn/c+zIHmd/jOHY+m7vWGuwmp+2WGnlY9VVbnnU72DB2HSUoMA3LGeHNhEuEWm4DLY8HptmB3Kv8KSmx4CqzYnRZ8RTasNgG7U0iuFE8XXP9uiN0v96m7lbaOdLZatnq0WATl+64sNpZJhL//kFPnZH0X+ekc/UrwQ817+Z9XvsV1C2/nuoUfoLposoYYtlqslPmruGrerVw171YkWaSlt4nTHcc51XGU+o5jNHbV0xfppj8aIBzrR5Zlg75pJGda2Rj1hOHoHKvVjs/hx+8qpLxgInWVC5hSOpMppXVUFdViGcTe7Iv0sPv0mzy591e0Bhp5+OObUvdaes8MQjik69nUOecWY+UfMNIVTo+Vqz5cmdoGXZZh61OdnDoQGlI+ReV27vjKRKYv8mqeJdQnsvXJLrY93U04oHx0of74aqT+AUkSaDgU5szhMLNWeLn8rhKqpjtTU7HyyQ7u+6dKnvlRB4e3BfPWOe0NcTY/2sO1nypJybzuQwUceydEqM9gZfm50Dkm8oJWx5xjIjybTAbv+rtvvsAv3t4EQEKUtHHy8UMZEuHZKyRnv1LpLqfVhs+R3hWiLRjgYFsToiyzvfFkigQfGnLUu+oaRp8IN5Efxh0RLkuKb22EsPjK8Fz6afqe+iqpBSZDkFMtY2T/43jXfhlryVQAnDOvwj5pOfHTb2XkaxLhJkyYMIJJgpu46HFOiPAsW58Na8Kc+QCDTlBHa6KbvmMS4Rc1NDbh+CHCxZ5GwgefxT3vBkZChAsOL+7lHyXWsBNk7ZfhQ51URA8/S6L1MLaqhQDYJy3DMW0d0SPP6RJwwRPhJvKHfizOqEaDsS8fUqIv3EN/NIAvufV3ZeFEIvEQz+//A68ffo55kxZz5dybuKRmBZWFEzE6G7vMX0mZv5KlU9akhAlE+ugKttMb6qajv4Wm7tO0B1roDLYTjPYRiPQSjoWIJsKEov3ISKm0mbolu/w2iwOPw4PH6cfr9ONz+in2TKCiYCJVRTVUFdZS6CmhxFM26PbmA5Bkicbuk+xp2Mobx1/gVPthREnE7yrC5yxIxQtEegjHQueFlDBdRINjUH2d0WfGkgjP0QaSedidFkqqHZRWOaiocVI5zUXhBDueAisevxWX12p4Tms2iAmZ3S/3kvKSGiCrE1bV3tZ8oIiJdU66muN0NMXpbknQ256gr0NUzoFl9Gw1k5QYP8ipc7K+i8F1TltfC3ExlvoAqbJgIj2hLh7Z/jOe3fc4S6asYv3s61kwaSkl3rIMuSyCleqiWqqLarl0xkZA2Sa8L9xDd7CD7lAnrb1NtPY10dZ3lu5QZ3LXjn5C0X5iYpRgNDBsItxpc+Oyu/C5CvE4vPichZT6yqkqrKGqsIbygmoK3aWU+spx2lx51XVcjHG68xjbT77K1hOvcLa3AVmWmFSs/VCrLdBsUM/nRueYGBznighftL6QSXXprfNb6yNsfqIdWZLzzqe0ys6HvllDzax0PrIM9QdCPPuzFpqPD2yXPHb+AVmGIzuCnD4YYfVtRay6uQiHS4nnKbBy25fLsdnbeXeLwUruLDpnz4v9LFjnZeIshRAsmGBj+Q1+Nv+u19Q54xEyWXTMOSTCjWRKRde+66bebgBt28uDCNeMoDoi3NhA0+ulLP0qeRGMR+kIBagtVD4AmVRQzN0LVnKwrYl7F640yH8QqOo4a73r4+TUS2r5ByfCsxqtJjIwnohwxDih3Y/jmLwCi6uAkcA9/xaCb/wAsevksORMLTCJBght/wn+6/9DuWGx4VnzJXrVJLgq/YVOhJswYWL0YZLgJkwwBhNdw0KMyI5hTJh1KvG2L1cRCyvnhfW2J3job0+j1sqyDHd+vYqJM7Vn0x18K8Arv+7QlCoIAl/88ZQM0V9+uJMj2/s1E+aJs5zc+hflmngCAv4S460A09UwikR4jjQjmeiayAOauh8fRLgUj9L1yGewFlUDSXJPlU5zjqpOJounmJJ7H8ZaUAWAe96NBN/6MfHmfVnlzGdSQSJCaMdPKbj1h8lyLbgv/TzRoy+BlNAl4IImws2ekweM6n8UifBYIkpXf3uKBK8uqk3Fi8TD7Dq1lT2nt1HoLmFGxRxWTrucJZNXUVs6I+s2riDgdxXidxVCqf5xZGKJKNF4hLgYIyHFiSWiJMQ43aHOVLmBSG/q4QbEFwQLJZ4JWAQLDpuTAncxVosVu9WBw+bEYXXisLlyyJUdCTHOifbDvNu0k92n3+R05zH6B7Y6T/aHIncJLrsnlaazv5WEFE/WaS7nz0BoLuedto4GIyVM5IfxQ4Qb22oOj5VZS/3ULfMxZb4HX5ENl9eafSwd8vOrnKcqVE5z8sUfT05d+3XnwKrrbeolbqZdkrYHxYRMpF8i0C1y5nCE+v0RTr0bJtIvjXsi3LTXBoFM/jon67vIrXN6Ql1E45EUuVtdXJOK1xfuYfORF3jjvZco9ZUzb+ISVk5bx4KaZVQV1mS84wFYBCtFnlKKPKVM1T+SLBFNRIglooqukURiYoRoPKLoGaA/2kc4FsrQOTarnSJ3CQICHqcPj8OHzWrHZrHjtLlw2Bw4bK5BV3cbIRIPc/jsHvY37mDfmW009ZwmEg9rZKgsnKRJ09KXXkVv6pzxibEmwt1eK5fdVobFqiQQRZnXHm2jvycO5JdPcbmde/6mRjPPFxMy257q4rVHOpTV36lH0PoHxuJD+XC/yOu/7aLxSIRb/qIcb6Fiw9ldAjd8dgJA3kS4mIBXH+7m3n+pSG2zvvQ6P3teCtLXkTjnOsdEnjiPRHjma5LVzdX4XWfsEpJJhOuz1bYrlQyZ03CVHEJqvpyLCI+JIlvPnGBx1WQEwGG18bnlG0hIIg5r2r7rCgf5m1f/SG9UvVpX4Jc3fxSP3aEuOZPkxqDe9XFy6iW1/LmJcLPn5AG9X03XbjVRDe2ysSHCQ3t+T6x+O6g/AtTYVtl9a/4NX8Gz5G4guRp8+Ufpe/GfEZC0EfOUc0DGyN5H8K77Khaf4od21l2NrWI+idYDhvleyES4CRMmRh8mCW7CRBKjOdHNXogR2TEcIjyNorL0uY82uzrv9K+iCjtlNdptYv0lNsOJrj4egMub3qJtYKJrdwqGcTMe2UDy4RLhhnmPwUTXRJ7QG+zjgQiPBpHbjmUWJqh/yhlhAOE9j+G7/MvKLVcB3lWfpOdPX0aWpRER4eE9j+Bd97XU1k2OqWux16wgrt5uXZXHBUuEm8gPRvU/SkR4NBGlo7+V2tJpALgdHgo9xfSGulNxJUmmJ9TJO6fe5J1Tb+K0OSn2TmBu9WLmVF/CvImLqSmZitPuwirYshIVoLx/p81luEJu6lDqZJiQZYmEJBKJhzjV8R7H2w5y5OxejrTsIxgLEBdjum6SdjgVekpw2dJO47O9Dbq8czl/BkJzOe/U8UxSYrQwHolwn9/KujvKWHxFEf4SGxbL0F+qLCn9eMCBKstoxtXUKu1Uqembdkd+9hgyFJVrp35Wm4C3yIq3yErlVAdLry0g3Ceyf3M/O57sI9AlqpKPLyLcRJ7IV+dkfRfZdU5nfxvheAhfcpVQsXcCTpuTaCKaSish0R5oYdOR59j83gs4bU4qCqqYP2kZc6sXMatqAVVFNTisDiwWa5bZjgJBsOCyezQfMJ1LSLKEKCUIRHo50X6IY60HOdKyl+OtBwknQohSQjeOCCkSoKJAS4KbOufCwFgS4Tanhe6WGGUTnVjtAg2HQ+zf0pN3Pg6XwF3fmKQhwBNxmed/2cq2p7uQxTQLdS53jJMkmaNvh/j1P5zlg18vp2ySop+cHgvXfbqUQJdI/YFwXv6BxveiHHozxIL1yjbvbp+Fpdf5eP3XPabOGc84b0S4gSj69jAMItzwETXtKpuzQ30r3YFy9itZ4Kkje9k4dTZzy6oBsAiChgAXZYnfvrudfS1nlABV2ZKsJxmT9a6q46z1ro+TUy+px44cRLiJ/KD3qyFn6PZUVEO7bAyIcEkk0XU6UwBB/VM2DA+89m08i+4Ai9JuPSs/Sf+W7yGFuoctpywLSKFuQtt/gu/Kf1ACrXY8a75I3x8/kylnqj2aRLgJEyYUmCS4CRMqjBURrp8AjIQIz+MhDCeo2ePnnjigu5N1u82c8owSEW4goTnRPc/QG+zjgAg3LCuPiUX/tp/jWfFxLO5CANyXfJD+zd8j0Xkip5yDTioSce3WTYIFz9qv0HN6OxlfwybzMInw9yd0vgVdmJFuwHAMzUZKxMUYHYHWVJjNaqfCX01vqEuTqzp9NBGlpbeJ1t4mXj/yLAAOm5MpE2ZQUzKNyRNmMKV0BtVFtfhcBbjsblx296Dnb48m4mKMSDxMJB6iL9JDc/dpGrqOc6b7FKc7jtLSe4aElEg9VOpJBX03STucSn2V2Kzpj8iaexsMdEUu548qx6zOO3W8HKSEiSFhPBHhMxb5uPNrNRSV28mFWEQiFpaIRiQCnQl62+MEuhP094iE+0WCPSKxqEQ4IIEsE+wVGdgNVwDiUZUdBkq8PBDul1JP63BaiEUkgr0iTrfFcDt2iwW8RVYuvaWQBet8PPm9dk7ujaTum0T4hYUh65ys78JY5wQivQSjAcr8lQAUeybgcfiIJiKpXNVpZVkiEg9zuvMkDZ0neW7/EwB4HF6ml8+hpmQKtaXTqS2dTnVRLR6HF5fdjdPuxmY5d26LaCJMJB4hEg/RE+qksfsUpzuP09h9kobOE7QFmpBVD5ZT5yTba6WeBO/RkuBg6pzxirEiwvu64jz49yeZPM/LmlsmsP3ZThIJWdN+suVjswrc8rlqps5PnwEej0r88XvN7HmtNxU29CPPtOODTvoh5CPTcjLKI//Swp1/XUnlVMVmdPut3PylMn77T2fpbI4P6h8QRZkdT/dRt8KN06N8lD9vrYe3nwnQ3y2aOmdcQdbpEyMdM/ZEeDbJRkSEZ2aY2Yb0y8A1eQ+Il+5AufpVTzjEN1/+A3+99nqWTZyCXbUrVlc4yG/3b+exg2+npt7CIM8/pkS4nJQ614pwE/khD39VKqqhXTY2K8Lz8qvpwhPtxwnv/zPuRbcDYHEX4l31KQKv/eeI5JRlCO99FM+qB9KrwefchLXsvxHbD5OBVHu8AIlwEyZMjDpMEtzERY0hnwOV90Q3oyTtNGtERLgWZ09FlK3OgEBnIpVUbUg3H48gpRfzIADtjVHDie6p/SFtAQLKJFM30Y0ERerfDaPHpNkubPZMj82oEOFZMOoTXRM5IZPdYLyQiXCx+wyhXb/Dd9lnARCcfrxrPkvvU18bVM7BJhXhPY/hWfVAejX49A3Ya5YTb9iRwxC+0IhwE/lA51vQhRnpBgzH0GykRHN32rFut9opL6jkaMsBtSIxTK/oGiUwlohytOUgR1sOMjD3EwQBv7OQIk8pxZ5SCjxFlHjLKPWVUegpxevwUeQpwW514LK7AQG3w411EOIiHAshySJxMUY0EaE/0kd/tI/uUCdd/a10hzrpDXfSG+6mK9hGMJrcRlMle1bdmvYtaXQtCFT4J6ZCJFmks781effcE+EmckOWs9gL55kIL65wcMdXJ2UQ4JIk09Map+1MlKbjYVrro3S1xAh0i/R3J5ASqgag+ZMuJe10SUNI3+DFh9rZeE8pTnfm0R8DF2JCZuuf0rtAxKISv/yrJnxFNvwlVooq7VROdVA93UnpRDu+YpumfnzFVq77dCk/+8tmHQk/TohwE3lhyDon67vIrnOmTJgJQLG3BI/DS3ewQ6NzDNOS1jmhWJB3G9/hQOM7yk0BLIKFIk+JsjW6u4QCTzEl3jJKfBModpficfoocBenjs8A8Dp9OXcvAQgmj8aIxMMkpDg9oU6C0YCic4LtdAfb6Q510BvupifUQSQeHrnOkQXNSvC4GKUn1GE4xzF1zvnH2PkHMuf1kixQfyBI/YGgEi1P/8DSq4tZfEVRKlYiLvPiQ63sfa0nGUXQl6qbB2hLcXktON2W1NbsJO/GojKxiEw8Kg2ajxER3nU2zh/+q5W7/66SkipFVxZX2Lj+MxN45FstJOKD+wda62MceyfM/HUK4V8wwUbdSje7X+hPVYmpc8YJ9DbTOSbCfU6nRhy/06WOPSwi3O90YcmyyjujDWUQVyrbKTW2pztQrv7ZEujlqy8+zpKqWhZUTMJls9Ee6md740kae7uUTNX93EDRumx2bBYLCUlK17tOYRnWuz5OTr2klj+TCDcxOHL61ZB1EVTpDO2y8UOEBzb/N655NyLYlX7oWXU/we2/QAp1jUhOsaeR8O7f4F33FQAEVwGeSx+g76kvp+UwyPeCI8JNmDAx6jBJcBMXPcZmomtYknaaNWwiXIvnf9HC0V3B1HVKaaqU6DM/adEkVjtX1Y4wGYFf/vUZbT7JP/qJbvPxKA/9TaM2XwT+8sHJFJYZDC3ZJqjjkAg37fX8kNNgv0CJ8OC2n+Nd+TEEu7K1oHvJXQRe+0+k/rZB5cwloxTqIvzOr/Bd/Y8ACDYnnpWfpvfMzmQ7zKwTpc9cOES4icEgo3N3GNf/CInwlt6m1G+LYKWicKKqAJ3G0aU3cqIMJJOR6Yv00Bfp4UzXyXQiQSun1WLDYXciIOC0ObEIyuoFrZzpRLFEBEmSSEhx4mIsGVf7UJkEgH681zrX8iElqgrT56WHYyF6w105dEUu54+2njROpAzhjHWcifww3ojwilonReXaHRGajoV57pcttNRHCPaKaDb7UBUs6BqmbmTIIBOSj5Pqn83HI/zmX5oybLX0H2ObLxaR6GqJ090Sp+FwhP2vg8UqUFBsY/oSNxvuLcFXnF5xVFJtx+YQiEXG3xnhJvLBMHVOXmOhgrMqneOyeyj2TqCp+3SGzhmMCNfKpGyj3hXsoCvYoW1HOp1jtzlSO5O47O5U3Gw6JxIPgQwxMYooJZJxz63O6ehvIy7Gc8yNTJ1zvnEuifCh+gcqap1ceV956pxsWYbtz3Sx9emuNAeXZSW3zS5QMcVJ5RQXlVOclFY7KJxgx+G2YHdasFi09ZCIycRjMuF+kZ62OG2nY7Q1xGg9FaW7LY66hHSxqmtk2hti/Om7bdz3z1WpD7emXuJm2bUFbH+qd1D/gCTK7Hk5wKyVHuxOpR7mrfWy//UgiYEPtM6FzjHVTn44D0R4hb+A+5as4faFKzSifPuGu/nFzk08e2Qf0UQ8sz3kIMKtFgurJ8/k0yvW47apP3bM9APk9lUZ6cH0hFyjpTXzdJmEKLKz6RQ7m04pYRo7UpNhWp+qsGLiVP7p8pv5+Z43ON3Tma53ncIyrHd9nJx6SS2/XueYHScfZPPtXMhEeKL1MNGjr+CadyMAVn857sV3EXzrxyOTU5YJ7/4t7qUfweKdAIBzzo1Y3/wBYufxrH41pVmaRLgJExczTBLchAnGaqKryWzYE90M49TIjhzxlmVZDOkh56MzlgzqbSRE+GAYrYmuifyR02C/AInwROdJwvv+gGfZfQBYXIX41jxA34v/kpec2WWUCe97DPeKT2ItUlYDOWddh71qEfHmPYMYwhcGEW4iX2hGV+P6HwER3tSt3WK1snCSriydxtGlTzlRDIjwbGOruj2JUoJwTNl6JBxLf6AF+vYjpP5kdNGMlRgGE/yM8V7rXMtFSlgEC2X+qlRekXiI3nC3JiOTCB+fGE9EeF93glhYSm3RClA51cWdX5tEw+EQpw+FaDwaofV0hEhQZOBjw6RYjJQIH24+gqDUodtnpXKag4l1LqbMd1E13YnblybAAUJ9Yvo88qF+tJjN5hslW80kwvPFMHVOXmMhmt1HACoLJ/Ju4y5DnTNUIjwfnRNPxIiLChk3qM5Jqx2tDGOsc2xWO6XJbTsBuoPtqY++ss+NTJ1zvjEeiXCbXeCK+8opnJAm5U7uD/LSr1oQExIY5GOxCkye62bplUVMX+TDV2TF7rAMuS1Mnqt8ICyJyurwjqYYR7b3s39TgJ72OKltkQ38A2cOR3j5oU5u/FwZoLTtdR8q5tiuEJ1N8UH9A2cOR2k7HWNinbLSt3qmg9JJNlpOxM6ZzjExBJwjItxhtfHBhSu4f8V6Kv2FGe+stqiUf7zyNm6bv4zvv/USuxpPIcmDE+FTi8v40pqruGxKneYsboBgLJq1DekxraQcm8VKQhJTTz5UIlwTx1BXasOCsRg+h7Ly1mm1sXHqbJZVT+FPR3bz6IG36Y2Gzy0RbiJvGNlgys8LkwiXxTj9b/0Y56yrEGxOECx4V32S8J7HkEJdI5Iz0XGMyMGn8Kz4BAAWXwWe5R8n8OLf5VxgojTLC4MIN7uPCROjD5MEN2EiidGc6Oo11nAnukYT5hwPkNUpei6JcEPRMpxXwyPCc+arDjMnumMLmbyM0wuSCEei/40f4l54G4JD2XbPvezDBLf+DDHQkpec2WQUe84Q3v0bfBu/amzN5wAAIABJREFUAQgIrgLcKz5J/MkvgSyZRPjFACOHgyY8cyzOeK0GY6j6vfSGuwlGA3idfgAmFU8xKFqncXTvVe9oMUqWi5TIJrveeZKpW9Rxx46U8Dj8FLqLU/kEYwF6wl26CjDSFbmcP0b1lCcpYWIQ6J0w44MIbzoWYtsznay7fQIWixJqtQkUTrCzYG0hC9YWppL2dsTpaIzR3Rajpy1Ob3uCvq44oT7lPPBEXEaWlS3MkUESFaKB1GOpbS61I4ZUuRaL8kxWu/LbYhUomGDD47fiL7FROMFGYbmd4nIbJdV2/CW5p4HxiMwrD3cRCaaXs483ItzEIBipzsljLGzpbUSSJSyC8jHIpJIpBkXr5w0GYo6ACM/8SCVTTnUio6nFWOqcMl8VNkuatGwLNCsrwTWinUMi3ETeGG9E+IzFfi5Zl94GPdiX4E/fbyIalDLyESww/RIvN3y6kqpp6W2hRwqLVcDlFZhU52JSnYsN95Sy99U+XvtdJ4FOUSW+qt8js+flPqZd4mHumuT8ymdh/d3F/On/tSFJ2fqAUv9iQubAG0EmznSCADa7wJxVHlpOxEydM14gy9pBawyJcLvFzuopM/ny2muZVZ7+qHUACUnCltzWwGqxsLh6Mg/efj+vHD/ID7e9wsnONmS1fkm+60p/IfctXs09iy7FZtF+FBgXRXY31/PQrjcz21kyrwFbcAD3XrKKJdW1/GDbq+xqrle2JUddTXq9ZDQ30sUZhAj/v28+x1+tvoZqf1Gq/RY4XXz0ktVcN2MBD+/byosnDhJKxE0ifLzA0A+jD78wifBY/Xaixzfhmn0NALYJM3EvuJXgjgdHJqcsE9r2Y9wLb0dwFQDgWvQhQtt+jNjbmNOvpjTL8U+EmzBhYvRhkuAmLmrku9JkqBNd47KGPtE1NCoN8lU9gM4ozmJIaxxR6glqpiE9nHyMn38MiHBzont+ka/BfoER4Ym2o0QOv4D7kg8CYPWV41l2H4HX/ytvObPJGN7zOzwrPoEluSLIOe8WbFt/SKLtcM46Udr6BUCEm8gKmUw9oBpdjet/GER4X7iH3nB3igQvK6jCarEiSqKuLJ3G0b1XvaPFKNmFSoS7HV78rrQTubWvGVlSHMiZop0DItxEThhZVeOFCH/hobMUlNhYcmUxuVA4wZ5cuec1vB8NSSRiEuGglFxlJ2nO4R5AIi5js2e2GZfHis0uYLGCy2fF7hBwuC0Z8fKFJMq88qtO9r4WQN8zTSL8woCs/jESnTPIWNjU3aAhwSsLJyUtKjmrzrnYiPBSXwUWFaHS2tfEwKpBrWjniAg3kRNj5R8YKRFusQps/FA5gmpo3/x4O21noqDLR7AIrLm1lGs/UWmoMwAkSSYckAj2JoiGJUJ9IrGIpInjK7LhdFtw+ax4Cqy4PJl6xWoTWHpNIbVz3fz+v1o4eyKqEj/dCBMJmdd+20ntXFfq2I1ZK73UznVTfyCcow8o9X9ka5CN9xVjdyr3p17i5o0neknEZFPnjAOkdY5q0BplItwiCCyoquHTqzZy+fTZGUR1MBblmcN7eKv+KPcsWs3ymmlYk2S4IAhcNXM+l9bO4NF923ls3w5aAr0gQKHLzU1zFvOxpWup8Beix9GOFn62cxObTh5Jruoms53J0BUK0tLfS6Uvncecsmq+d+M9vH7yMD9/ZzOnujt03wvo9ZLR3EgXJwcRvqPxJJ948n+5fe5SPjBnCaUeX0qWcq+fr6++hutnLuDBPW/xztnTyvPobQT9mKS3I3LqJbX8Rha8CUPk4du5EIlwOREnuP2XOGesT64GF/Cs/ATh/X9ECveMSM5E2xGi772A65I7AWU1uHvpR+h/7d9Q2qWBnKr0454IN2HCxKjDJMFNXPQYm4luZilDneimStIZlUZbLRk5YHSlZhrSGkeU6jol3nDz0QmW03k1RCLcCOZE9/wiX4P9AiLCla2bfopr9jUITp9irC//MKFdv0Hsa9HlOTQiXOw6RXjf43jXfAEAi7sY97KPE3j+G4qAOepEaesmEX6hQ68HVKOrcf0PkQjvjwToj/SlwnxOHwXuIrqDnbp8NYKk0l8MRLjH4dOQ4C29Z7LIT6ZABvKPlJQwMTgMd34ZB0S4mJB57pdnmbHYR0Gp+szIocHpseD0WPAWDR73XODU/gh7Xwkgi8AIjrExSYnzi0zdMkydk/VdQFvfWSRJBIviVigvqMJqsZGQ4gYy6OcNBvK+D4nwMr/yMdoAWnrPqFUfWtHGngg3MTjGIxE+faGXKfPTH1K1n4my9alOw3wm1bm58r7yDAK8vydB/cEQ9QdCNB2L0N+dINgnEg2JyBKoG8uAo99qV47P8BZYKa12UDPbzeR5bqqnu1KENEBZjYOrPzaB332rOfURl97P0NEY450Xeln/oRIQwO4UWHy1n4bDYSSRHH1Apq9TpOVUjJrZypboldPs+Iqs9LQlDOvf1DnnHno9QvL3aBDhVQVF3L9yPTfPW4Lf6daUm5BEttYf42fbX2NvcwMyMlvrj3FV3Xw+tXID00rSx1H4nC7uX7Gea2ct5Fe73qIzFODTKzdQN6Ey4z239ffx273b+NPBXfRGQqnwVDxdO2sN9PL15x/jMyvWs6Z2Ziqe3WLl6hnzWVo9hT8e2sWj+3fSEwmNGRHeGw3z4J43efXUYe5duIqrp8/DqdrWfV5ZNf92xW28deYEv9q/jaOdrZk2gn5M0tsROfWSStdjIm/k4du5EInw6NHXiDW8jXPaZQDYq+bjmnsjoV2/GbGc/Zu/g2vBB1I2qHvlpwlu/R/kpC/EJMJNmDChhkmCm7i4MYTJzvghwo3zNspHV2qmIa1xRGmNVf0EJt98Mp9ZEyW/Cep5JsJNB9EQka/BfgER4bGGt4meeiu1dZO1ZArOuTcS2v6LIclpJGN45y/xrPgkgl2ZwLsW3UXwze8i9Z3NLWcyD5MIv/Ch1wOq0dW4/odAhMcSUToCbdRVKtcep7L19wAJrs1XIwiqonSyagP1yQYjJbxOP0smr6bEO4GWvib2NmwnloieNyK8zKclJNoCzdllyKqncjl/jOopOylhIg8MxV44x0R4b0ec5x9s4c6v1aTyicckXv1tG3anhcopLsomOSmusGN3Dn919mghEpToOhunqzlGe1Mcf5GVZdelVy3FIhIvPdRBLJLWM8PdvWcsSQnTVMsPmbplmDony7vojwToC/cwwV8BDJDg1hQJnlm0fv5hIO8IifAJ/koW1qzA6/Rxsv09DjfvRZKl80aEVxRM0tRZW6Apuwymzjn/yDHunE8i/LLbyjTv/PXH2lUrt7X5TFvoxeVN2znhgMgLD7ZyeEeAQE8CeWD39IFSUo+Q6R8Q49DfnaC/O0Hb6SiHtwWwOy2UVDtY+8ESLllfkFqdXj3Dib/EStfZeEY+oBBnu17qY8nVBRSUKq7Imcs8FFfa6WyKpx4lm845viuUIsEtVoGaOU56WhPnROeY/oH8oNcjJH8Plwi3CBbuWrSKB1ZfYbhK+3hHKz946yW2nDxCNDGgdwTC8RhPHdzNlpPvcfeiS/nw0ssodKXJ80mFJXxzw41IspzaOn0AMTHBnw/u4qF33qA50GOgE1TXqnYmAwdaGvnac4+yftocvrDqCiYVlqTSlXp83L90HVfPmM8vd23h2ff2jxkRLgP1PZ38x5vP8+zR/Xx66ToWV9am5HZYbWyYMosV1VP403t7+fnuN0jIIujGEs2YpLcjcuqlpKyZDkITuZCHb+dCI8LlRIzg1p/hnLoaBAsIFmU1+L7fIyciI5Iz0XqY6LFXcc5SfHYW7wTci+8ltO3HueVUZWYS4SZMXDwwSXATJsZgojtYYflMdLX6MgcRLqviGOSjKzXTkFZNUJ1ugbmrCzi2u59wn4QsyUPOJ1O8YTpFDZyrWfPOlc8wJromhoF8DfYLhQiXRPq3/ADnjMsRbC5AwLfmAcL7/oisPjs4DzkzjPWO40T2Pop7+ccBsHhK8Vz6Ofpf/PvB5UzmYRLhFyj09ap3JmgvtUmGQIQ395xJ/fY6fRR5SpHlY7oxVV2WTuPo3qve0WKUzJiUEFg+dS1fvfb/UOyZgCAIyLJMY/cpvvX0X1LfcfS8EOHVxZNTaSRZoq2vMbcMyToGdHZCLuePUT2ZpMSIMAR74VwT4Xs3dTNvdQHz1ygOWrvDQu1sD7/5VgNiQsYiCAhWZWvZonIHRWV2/MU2PAVWPH4bvmIbNodAQYkNQRBweZWV4WnkbiyhPpF4TCIRkwn2icTDEuF+ib7OBOGASLBXpK8jQU9rgnBQUmQH3F4rn/1+rSavN57oobU+lix16LbauSLCTeSPTN0yTJ2T5V0095xJkeAVBdXYrHYi8XBeOmc0iXCLYOGWxffy8cu+jMvhQUBAkkX2nN7Od178Gzr7284LET6xKK1zwvEQPaHOVA4mET5OMWBiZ+y4M3pEuL9Y7YoT0v8L6bCBn8UVDqYvSm9r3NEU5cDWnow2MdCv9duau31W1t0xgQmTHJzYF+LsyQiRoIiYkBET6Oweff+UsVgELDYBu8OCr8hKzRw3s1f4mLHEq9meXU5XnWE+INDXkWD/pgCXfbA4KZuFuWu8bHm8e1BdcWpfmA33po8fqZ3r5N1NQVPnjDPo9QjJ38MhwqeVlvPNK27CabNr8u/o7+PBnZt5dO82IolEpg2XHB97wkF+su0Vnjy0i89deiXXzlqI2+4AwCIoW6wPIC6K7Dxzgv9643nl3HB1jnkS4QDRRIIXj73Lm/VHuXfRpXxo4UqK3couDoIgMLmolH/eeCu3zFnMD7a9yqnuDi6bPIOVNdMp9/ppCvTwRv1R3m46RUwUM/tnnkQ4KOej72s5w1+88Cjrp8ziE4svY0phaUp2r8PJvfNXcKyrlVdOHs60EfT6RG9H5NRLOn+DCUNk2Bd5+HYuNCI8fOAZ4mcPYK9eCICjdhnOWdcQOfikgexDkVMmuOnbOGdsBKsyRnjWfInwnt8hR3pzy6nKzCTCTZi4OGCS4CZMwKhPdPUGX7YJ6nCI8Kzy58hHV2rWiW7dch93fK2KUJ/IyX0hNj/RydnjkSHnkyne6BDhOfPOlY850R1l6Cc8SeRrsI8DIhybG3vpZKRwT3qLc52c0RNvEju5FWfdRiVJWR3u+TcR3PnwkOXUyxjc+iNci+9RzkYC5YvVN76LFNIS7CYR/j6Evl71zgTtpTZJnkR4Y1d96pZFsFBRWK1EyyCs1GXpNI7uveodLUbJ9GPr5LIZfP26f6fIk14FIQgCNSXT+NKV/8g3nvgYcTF+zonwcv/EVHxRStDe36LJwVCGLLrCJCXOBfSOhfFHhCdiMi/+bwuT53jwlyhOmFnL/Sy5soidz3cjyjKCpKwa7+2Ic1qfj6pgQfW/9o+gi66tA2GI+QgW2HhfCYVl6elg8/Eo259SndE3DFvNJMLHC2TdO9DrlmHqHIN30dhVz8KaZQDYrHbK/JX0R/ry1jmjRYQvn7aWBzb8dep8cgCLYGXplDXcvfIBfvTat87LivDygupU/ECkh2CsX/ukJhE+fmHwHkaDCLdY4V/+sHDYYu3d1EM4ICbl0ZNOAn1dCW0CAUqrHaz94ATWfhBEUaanVdFHfZ0J+nsSykdUvSKJuAQIeAus2B0WPAVWvEVW/CU2SiodeAusWdtROCARDUqqpqbv58r1nlcCrLqpCJtDuTdntZdtT/YQj+bWFW0NccIBCbdf6ePVdU5T54wnDELIDocIt1utGgK8NxLi6YO7+cWOTbQGkiSXoO8HSuKBMBlo7u3m7178PU/s38kX1lzF8ppp2JO7QkmyzKHWJn6+cxObTx1BlJSPSDL6+RCIcGQIxqP87O1NvHD0XT69Yj1XTJ+LK/ksgiCwtHoKP7v1o7QFA0wsKNa0tA/OXcqmU0f41uZn6I2EdfMSnd4YpN5lICGKvHLyMG+dOcEdc5dy+5yllHn9KVk8Nkf2ealen+jj5KGXTOTGBU2EI2ArnoRgdyN2nkIW45lySgkCr/8/Su7931Q63/ovEz74NALaj7aGKme8aQ/RE6/jrLsaAGthNa4FHyD89kOD1oc6M5MIN2Hi/Y/zvyefCRPnEdlWF2uuDbbwkQeUo1GazOhKDFl7nfpfVsXRFmyQnWyQv5xXPrpSdVkpvxZvVFYweQqszLvMj8trUWWbfz5GkFXxDSWVs7yPPLZQyiufPN6Zuc3ZUCBg+GqydQVNuJC1qWR73RkfgBjYxFnv6dIKdjfFH/gO5V/eQtnnXsBRu9xYTlmm/80fatJ6L/scgtUxLDnVSRLtx4gefCp1bfGV4V7xqSx5GpelNGmdNW1QllFdK3kazZZyvbcBZL4/2WhoMpEB43FQfa0b943q31A3oBn7WnqbkOT0hLK6KL3SUz+masvS67+MIjIC9cnU4+jldddpCHA1ZlbMY271EoNyjHSLWqbcMqZkyNIfrIKF8oKq1LUoibT1NWfqWiMZsugKvfzGMqGpbKN3bCI7hmMv5NT7hvkYvbtBbCylYGSgpT7C5ifakSQlhtUmcMU95ZRU2gfPJ4eNlRGWim7UF/PPZ+pCD4uuKEjFT2+DLo3YVhu2zWfaaqOKrGPhSHWO7l2odx8BqC6qSUfNU+dkHzf1bVovZ/rixkvu1hDgalxWdzUT/JUGZcmq5zGQYYQ6x2VzU+QuTV33hbsJRgOZvddIhqz9TVe6qXNGFWPpHxiN8SsWkTjwVq8qJNPPEOiKk4hnL8tqFSitdjBtoZdFGwq57LZS1t81gRs+XcEtn6/ils9XcuWHy7j8rlKWX1fE3Ev91Mxy4y3MToADhPoSRIKSzn7K1F0djTGajqW3wa2Y7KCo3D7wNOpH0VyLcZm2hljquqTKjs0umDpnnCD7mK2u1zx8Xvo4Kvx066v8n1eepCXQk6FPDG04jZkns+9sA5//08PsbqxPBXeF+rn/97/k1eMHEUVJFT0Pe0fO0c6SPxt6O/nHV/7EV559hD3Np5FUaRxWG5N0BPgA1k+dzV9ddi32ge3a9f1K3ewHqfeBOOF4jF/t28a/bHkms8CBejeyEfT6RB8nD71kwggC6g+FNMhiV2jDBYMIqvtG9oHRwqo8ysqW3jP/Jsq/8AoVf7GZgqu+SWp7EJ2ckSMvkWh7LxXmmLQI54z1+fvVssgpJ2KEtv0UWUzqBsGKZ+VnEFxFBnkal5XuS8b1matO0nlm+gFzphtIY1jHWeQ0YcLEiGCS4CYueuQz2RnyRDdbSQZaMKuTQikYzW2DK01olnxcboEp8zz6UjWKuWCCjdo56XOSus7GOHsyCoC/1EblNJeBcZ2ZT6Z86jvDnKBmtYyGmI850R1lXJhEuGvmOjxL7kCwObGVTqVg41eUJRkGaSNHXyd2emfq2l4xB9eCm4ctZ+qnJBLc+iPk+IADSMC99CMIbmPC8EIgws2ukx/OBRHe2d9GNJ52LqoJCSV5Fq2iFURdlE5Wg/QGY2tt6bRUWCwR5c1jL6euHTYnH1z2MYo8pQblGOmWHPIbte+M8V6BzWKnxFOWCg/F+ukL92ji5JQhq52gK91QJjSVbXaZoeFCIMK3Pt3JmSOhVHBxhYMr7y3X+oMGsfnSUbRjhb7Xj4QId/stXPWRUhyu9FRw90t91B8IpyUboa1mkhLjA+eCCG/ubtCUWV2s3WL/XBHhk0unp8J6w93sqn8rdV3sKeW2JR/BkdyB51wR4QXuIlx2Tyq8O9SZ0s8ZtWIkQ9b+pivd1DmjijHxD4zS+NXWEKG1IZLRftTiBLrjRIJi6joelTK2SB8NRIKSttyuBGJCGhBJ3bvTv5IN8/C2YCrMYhWYutCtim2sK8SETMeZeOqW1QbFVTZtGlPnnB+oq38MifDeSFjV9/Qf+ORHhMfEBKF4NBWUkCT6YwPjsq49jBIRLsoS28+c4ItP/4Zvvf4Urf19Bk+nnEeuxuVTZ3NJVQ3qCtbU7hDqXR2nJ5K2VXUPk6E70mnTYYZx8tBLJrLhwiTCLa4C/Fd+HWtBJYLDg/fST2KvmG2YVooGCWz5n3SAYMW//i/BYhsxER47sYX46e2pcFvFHJx112TJ07isdF8aH0S4CRMmRh8mCW7CBAaGqsEkaXwR4Zn5ZsunqNzOR/55Mh/718lMW+jVx04p5hmLvbj9aSLw6K4g4UACl9fCnX9VzSf+bw3zLvNnbI+rz0fWKX69k/ZCIMJNDAUXGBFudeBd9QkEqyMV7qzbgHPKpYYZyZJIYPP3NAL51n4RIXnm0EiI8ETzfmLHX02FW4tqcC+629jYz1GW0qTHCRFuIi+MNRHeEWglEg+ngsoLqrGr2rySXNYnMxJEXZROVoP0urG1O9iRunbYnKyavkGTZsW0y/nJR5/kk+u+ygR/BYLGLNXqFj2GS0rYbU7K/OmV4C29Z/TFDS5DKjiXDCYpMWoYob1wLonwWFTiD99r1KzAW3pVCbOXFzBgJeVj86WjaBumvtcPhwgXBFh5YxETZ7pScdrPxNjyRBeqDSQGtZdMIvzCwVgT4Y3d9ZryJhZPzpThHBDhXSqdU+AqYlHtSk0+ty35CD/96FPcuuQ+/K5CtPaPrGpbBjIMU+cUeybgdnhTYYPqHKPwrP1NV7qpc0YVY+IfSP6UZJntz3Wo/nWy/blOdhj8O7oroMm//lCQeJLQzhhxkwHBXpFoOD2gtzVE+fbH3+N//6Ge1x5p59C2AG0NUSJBkVhEIhGTScRlJFFGkpR/YkIJi0dlYhGJ/u4EZ94Ls/uVXp79aSs//vJpHvm3JsREWorO5niGzjHoucgynNiTJsEBaue68tIVXWfTJLhgESiusGemGQOdYyIPqKt/lIhwoyL04xoIVBcW8+/Xf4gb5y7KiwjPeK/6968RVblYWFnDD27+MPMrJxken6HOK5vdEorH+POh3Xzo0R9xqK1ZU+a/vv4UV//vd3hw15up1E6rjaXVU3L3qyHUuz6OIUwi/DzhwiPCXbOuwFE1NxVm8RTjW/OZ9GpwXdrwwWe0q8Enr8Q5dXVWGfOVU05ECO34BYhJ/SBY8az6DDj8WfI0Livdl0wi3ISJ9yPMM8FNXNxQbObkzyxnRQ3jDLBMuyXXuZOKEDJZzm9TCk6dl2T0CNnymTjDxYe+UUN5rbLq4a6/msiDf3ua1tNRdWwEYP6agpRMYlzm3c19WGwCN36mgqkLlBUMd3y9mpcebGfHc90MfKSqzkdnCavqLX0GmObpstW/TNazuwzrdRj55DwDzMQQIST7hi5Y815ynGUky3mfY6SED/+McEftclyzr9RKb3fjvfQTROu3g6T6+jqZNnJsE7HG3ThqlgJgr5qPa+71hN99cthyygBijODWH+OYsRHB7gbBgnv5xwnvfRQp1GV4lnm2spS2Pj7OCDeRH4zHryxnsaUv0fxU6Qb1K+gOdhGOhyhGWWVd5C3BZfcQF2OoMdZnhL957BWuXXg7TptCttksWrNTQKDYU8qdy+/nhoV38drhZ3h+/+Oc7jqOKCXSEunbYjb5DfqHfrx32z2p1ecArX1NGXWse3JjGVLBIz8j3ERu5LSpsun5jLZ97s4Ibz4ZYfMTbVxxTwWg+IFueqCK04dDhPoSqWcazOZLxdM1TN3IkGFjpfM3zqdqmpM1txWnoidiMq/8qpP+bjHjrPHB7KXzeka42XWGhMz61OuWYeocGVp6m5FkKbUVeVXhJOPxOE+dYzyWG7VprZyvHX6aeRMXA4pdYxV0OkcQqC6q5bMb/pbbl32SF979Pa8dfoqW3sbkHCM90BuYS8PSOcXespQOBGjpaxxc54zxGeEmBkG2sQrjsOGcES5LMo/+V70ub/27Uy423FlO3VJ/siyoPxAkdZFhAyptIBIUCfYmKK1SPoB0+6zIEhzeEeDwjgAD83/BAr4iG54CGzaHBY/fittnQRKhv0ckEZOIhiRCfSLh/jSpPqArFqwrwGZPl97dGldVoZH9lJa2qzVBoCuBv0Tpp5XTHLnrP9kHelpVJLgA/lLVbl7qNKZ/4BzDYAw1HLNVg5Ys53VGeGY56XGt0O3h9ktWcP/KDRS7vSyaOJm36o/SHQplPSM85yOo37+qPTitNh5YtZHLptSxevJMHtu/g1/veYuWQPpogsHOCFfPG3ojYeKqVd99kTAvHnuXcCLBS8cPcOeC5fgcig+v2l+syiJLvxriGeFGHzPr610WDM7/xsB+1cfR6SUTQ4GA0lZ19oWRTZYRfm7PCBecPnxrPwe6+b37klsJbPpvEp2nMvKUgl307/wVRTf8KwgWBLsL35oHiNVvQxbj+fvVDOSMHn6eePNe7DXKUYf2mmU4p28gcujpIfvVlL40Ps4IN2HCxOjBXAlu4qLGcFaa5PPFd9ay1Fey9m7qf9k4Ra5Vf0b51C318YlvTUkR4KBMcqcv8mbELq6wM7FOtSKoKUbLqQj+YhvTLklv4WezC1x7fxnXfqIch0vIyCcXRmtFeEa+w8xn0JVh72Ps2n+YP7/wOicbmrKvsM8FwyQXwopwgYLLv4Bgyfz+yz3nGuzVCwwKAjnaT/9bPwVZ2VZQsNrxrnkAwZ7uM8NdER6r30b8zNupMFtZHc7Z1xunHaQspUnrrOnMn4Z1ba4IHxzxeJwn//gkhw4eJhqNDJ7AAJkrqo3GL/W1bnQ1qn8D3SBKCVp6GlPXxZ5S3A5Plq/AM50gBoJkkT8zUJ1sf+NO/rjrYRKSdmu/hBQnIcU1YV6nn5sW3c13PvRbvnHdt1k4aUVy9Xq6jgyHmCGuzqss1G4Nfza5Kk9fx4a1kqU/jHxF+PsbL23exoubttHS1jF4ZENkvvzxviJ88+/baT6R3o2htNrJxrvLkgsj8rf5dLF1f2RddKO+qM3HaoNr7y/D6UlPAQ++1c97O/pz5JOj3oZS97qsTVstN1rOtvDi8y9y4vhJxIQ4eAJPiZKUAAAgAElEQVQ9BhkLNVFGqHOisTAdgdbU9cB26CPROcNZEf78u79n6/FXM8qIiVEkWVuHZf5KPrz6C/z3PY/y2Q1/y7Sy2VgsVtTjzWjonKpC7fnorb2NhrJn1IpReNb+piv9Itc5j/z5BbZs301PX2DwyAYYK//A4PkY+wfKatLzjVhEoq0xqoqS2R8H8uluTX/46Cmw4vJZM3SOLClbmLfWR2g/E2XKPA9rbi1lxfXFOFwWmo5H6GiOEe4XNaUM6Ar1KmxJlOk6my5Tr7v0PVeMy7SrtjYvKrdjtWuiZNaRDIFubV/2FlpMnTMKGKl/QPN+1dU/GivCDUqzW61smDGXh+9+gK+vv5Fit+Ljqi0q5WPL1ikUlJENlyXjrG0meb1x+lwurZ0BgN1q5b7Fq3no9vu5a+FKvI60vy3fFeEA7cH0GFXo8nDH/BVMLirhljmL8drTO3g19nYZ23/6fjWEes+sGoN6H7UV4e9fjIZ/IPNlpD8IzBbPQFUkf+b+cGc0V4S7ZqzFOXlZRlKLuwjvpfeT4VtKpg3veZxEZ30q2DlzI/aaJTllzEdOaWA1+EAGggXPpQ8gWO3D8qspf4zrM1udaPPMfP6c6QbSXCR9x4SJ8wFzJbiJix6DfvUr6MIgry++dTcN8hnminCjJ5DTX7FZrLD8mhKuv78Sty/9ZXQiLvPcz1vY/kwX+i9Bp8z34CtKDwfHd/cTCYlEQhK/+qdG7vh6NZVTnMn8BVbdVExhmY2nfthKf4+okz7LwzNQrOqa4X2pbVADo//F9/sY4UiUXfsO8c6+Q3jcLhbNn0UwGB48YRKpiU5GVY3vFeGO6rm45lyliiAxsFWT4PThv+yzdD72WQSdoxQZIkdeIt56FHvlHAAcNUtxTF1D9Gh6O/NhrQgXYwTf+h8cky8Fqx0EC97VnyNy8M/I0X7jr15zlKW09fO0Ivz9Dhmampppbmpm86Yt1NZMom72LKZOnYLNnr85lbmiemxWhDd21bMkuc2/31WI31VIa2/ziFbnGcuvXXGgTiZKIg+/9QPebXyHdXXXUOqr4GT7e7xx9EXcdg/XLbyDy2ZelTqjFcDt8LBu1rWsnL6ew817eeHdJ9h+8nUi8UhmW8wmv9EzJsf7ioKJmvCW3sbM+kvpbM2TpwJHfUX4+xy9ff3sP3SUN3bsprS4kHmzphONxQZPqIKRjTWeV4SH+hI898uzfPQfp2B3WpQtyK8r5dC2Pk7uDzIwzubMZwxWhC+9ppAp89MfN4b6RF58sB1JGiyfcboi/H0MSRI5cfwkJ4+fxGazMW3GdGbOmsmkmklYci5lSyOflcqZumXoOicuxmntbaK8QDlqYoK/AofVQUyMjUjnDHVFeCwR5d+f/TprZl7J8qnr8Dr97D+zk7dPvcHE4lpuvORulkxerSm70F3CzYvvZePcm9jbsJ3n9j/G3obtSEmb1MjcHYrOKfdXp8KiiYhyTEi+OmesVoS/z9HU0sah907w8uZtTKyqYGrtRBKJxOAJVRgr/8Dg+WjfnSDIFJelieZ4RKKvK65rE5k2IMh0Nqf1rNNjxVNoQz4Tzapz1txawoa7J2CxKCHV01089HcNNB+PGK7klmUorVbJFpUJ9oo5dZc6H0kkuapbOQvcYhUoLLPR2RzPqSsiQe3Z5jbHgDymzhkJRuofAE3rYLRWhBth5oRKvrj2GtZPn4vTpp2D9ceiBGNRBJR3Z2jDydm8VlnajCyQkCTagwEq/YWp+NUFxXxz/Q3cOHsR39v6Eu80nkqKn9+K8C3173HljHmp/L6w6go+umQNhU53Kn0kEeftplOZdZqlXw2p3jMqwGAsGeGK8Pc95NHxD2QaG8kWrH9dRjZZRvjYrwgXbHb8ax9Au+152rfmXfVRAlt+iNTXjAYyiIE2Qnseo+CqbwKCcpb4io8Ta3gHJDGrjPnIGd7/B7zrv4ZtwkwAHFMvwzF1LdHjrw3Lr6b0pfO0Ivxi6D8mTJxjmCS4CROMwUTXuJBBJ7o5jcp0wcZPIAvYHQJX3lfButvLNFuThfpEfv/dRg5tC6SVaVIzW6wCcy9Nn/WdiMscTq4IApmzJyM8/PdnuO3LVdQtVb6wFSww51I/hWV2Hv+PZjrPprc+y/nwqWLVU6TxR4RfDLBYLYiiRCgcYfuud5EkiWP1Z5g7bw6z5syiuLg4Z3qdn1KF8UuEF1zx1dRZ3gCBN36Cd+VHsDh9ALgvuQ37q98h3vZeRllSsJvgtl9QdOu3QbAg2Fz41nyO2Mk3kRPpFRnDkTPy3kvE2w5jr1oIgK1qfmrrJsO0g5SltHWTCB8ryACSREPDGRpOn8FisTCpZhKz58xi6rQpWKzWwbI4J0T42d6mVP6CIDCxuJbjrYcNy1fCxoYIT4hxdp7cwtsn38BqsSW3OVeyO9D0Do/u+Ck3L76XK+bcjNuRJuecNheLalexYNJyzvY08Oz+x3j50J/pjwaS9TWI/EbPiJyxEnxmxVzeOPY8CTGudfykfUtk1EqW/jBcIvzigDKudHb38saOvciyRMPZNubOm8vs2bPweD2D5nChEeFHdwV4+6VuVt+kbL/v9Fi4/pNV/OJvThEJiqqcBrH5RokIL65ysPGeCennkOHFBzsIdCt9cvB8xhcRfrFABuKJBMeOHuPokfew2R1MnTaF2XNmMbEm81zSjPRZxsLRJMITUoJ21Upwu9VORdFEziS3wjyXRHgoFuTlg0/y6qGnsQgWxKRD9VTHUXae3MKsygXcueJ+lk5Zk9xtRIHPWcBlM69m5bQNHG87yJ93/5odJzcRSYSNzKW8dA5AVWFt6rfVYmV6+RyOtx1SVqafJyL8YsDAczadbaW5pQ1Zlmnt6mXWnNnMrJuBw+HImV7J4/wT4XaHRVnBnUQ8JtHfPTDvzr2NdFdLmgQXBCipsFN/wFjn2O0Cs5f7UwQ4KDvIfexfa9nzSi9v/rGT/t5EsmKVxIKAZiV4NCyl9Em+RHhfZ/rjBAFw+61APKeuEOMysbCEw50kW1Qf8ps6Z2QYqX9A/37Hggj/0KJL+esrbsbvdGvCJVlmy8kj/OfrT1Pf1ZFekS0Y23DZH8G4zbx89F32NNfzyeWXc8fCFTisSruzCBYWVtXwo1s+wsvHD/I/217hbF9PXkT4aycOc9vc0yyungyA1WKhyKW1h18/eYS9ZxsyKjhXv8qr3rNWQOZYMhIi/GKBDMP2D2SvMmXuNB6JcOe0NbhmrE1FS3SeItqwC+/i2wGwOP341z5AzzP/YOgXDG57EN+l92PxlQHgXngb/Vt+QLzlYE4ZB5NTTkQJbf0JBTd/RwkXLHhWf47o8ddJ69bM9j8uiXATJkyMOkwS3ISJJAadoJI5Sco20c1qVw8y0VVHMjQqc8hvscBtX5zI8mtLNOFtDVEe/Y8zNB0f+JJXO7kommBn6oL0Fuk9rXEaDoVUulimtyPO777VyPWfqmDZNYVYrIq8E2e6+NS3a/nFXzXQ0azd2lb3yNpfOudqvhPUjLzNie6oQJKUL+ojkQh79+xj9649FBYVUlc3k7rZsygsLDBMp/NTqjD+iHBH5Wxcc9OrwMVAO32v/wBZjFOw4S8UqW0OfJd/nu4nvmRYVmj3Y/jWfR5b6TQAXHUbsE9aSqx+68jklESCr3+bont+lQwQ8G74BpHDzzGwBfuFQIRfbBhwroiSyJkzZ2g4fRqb3c7UaVOZMXMGtVNqDVbr6cdB9Z3RJcKbuk5rxsiqokk6+Y0mv2NDhA/ovYQU14zHCUmkvuMY33/5n/jN1h9y69IPs3H2jZT5KxGSX5JbLVYmlUzlM+u/yb2Xfo5XDj3Jywf/TEPXcYW4ziW/wTNWFmrr4aZL7mNu9VIe2fFj9jS8paxc1NWx7slTgaNFhF9skGVF5/T19rFz+062b9tBRUU5M2fOoG52HS6XK3tanb5OhQ2m588DES6JMq/8poW6JT4mTFR2O6id42HNLaW8+khbcuCUkzmN7Ypwq13g2k+U4S1KO+EOb+9n/6a+IeUznojwiw0Dtlo8HuPEsRMcfe8oHo+bGTNnMH3GdKqqq7KmHWsiXJIlmrobUnlbBCsVBdUpEjyrDGNEhCOAJEtIsqRpVzExxoGmXRz40y6mTKjjtqUfZvWMKyl0p4kdu9XOnKpFzLlhEW2Bs7zw7u95/cgztPY1I+t2ChpM5zjtbgo96XmZ3ergs+v/npXTNvLYzp/wXuu7SLI0uM4ZZSL8YoJM2l5rbWujtbWNNza/waSaScysm8n06dNyrtYbTf+Ar8CO05MegwXV/7o/qV8ur1Wzs1skJCJLpBpMLiK8uzWGmJCx2pQYpdUDR8xk+hkSIgrJrYO/2Ma6O0pZdWMx+zb3sfP5blpPRUjEZZweq4aAtjsEymuc9HcnBio+q+4aqNKgukwBfMXpZ82mKyRRRlR1Ravu9Zn+gdHBcP0DWvtYN34NhwjXYWF1reZakmWOtDXz/TdeYMuJI0ip9yRo9Mng54GrZctsMxIy7f0B/n3TM/z54C7+cu11rKiZis2itFmnzc6NsxexdkodD+96k8ff3UkgGslJhAfjUf725T/wDxtvYdnEqdgs6VW1MVHk1ROH+NdNTyk7kzAgnrZOC50uFlRMYmpJGZIscbSjlYNtTUQSidz1ngujSIRfXL0mrW+G5h8wssEGIKDocp0dZGSTZYSPEREuCPgv/zzqVeCBzT8icnIrnnnXIyQ/avcsu4fAlh8h9rVklCMG2ujf/iAFV35DeUq7G9/aL9D9+Ge1czwDGQeTM7z3MbxrPo816bNzzNiIY8pqYvVvZU+bo6y06jq3RLgJEyZGHyYJbsKECkN3ihpPdPVqa6hbn+UyKjNlVuD0WFh2jZYA722P8/A/1dPeGCOle3Ul1y334SlQOUV3BEjEk05Z1QQmFpF4+sctCBZYfm1RKr6v2Mbc1X62PNGZxULRTYSyOFfzmaAawXSuji4GJry9Pb3semc3b7+9i4qKMmbOnMnMWTNxu7VfXev8lCqMIyJcsOBf91ksTn/qdnDnrxEDLQTe/Dm+lR/GknRSehd9kMCm75NoP55RlhQJENz+EIU3/KsSYLHhW/t5uk7vgAzH6NDkjBx5nkTrYWwVcwGwV1+Cc/q65FerWdIOUpbS1k0i/FwgTU7EOXFcISfcbpfiYB0gJ1IVpB8H0/mMJhHe3HMGSZawCsr4Xl1Um6HTzjURrnnG5M2B9tQVbOfBLf+PP+36NetnX8c18z/AlAl1WFQTbJ+zgFsXf5jrF9zJ/sa3efHA79l3ZieBSE92+XUyVulWggNML5vD39zw37x9ajO/2vY9GrpOZNSx7slTgSYRPjIM9J221jbaW9vZ+ta2FDkxbdpU7A57xthyIRHhfZ1xnvvlWe7728lYrEro5XeWc2BrH631kbzzGSkRvmBdAbNW+FKl9feIvPKbDhJxaUj5DFpvQ6l701YbNgZWN4dCYQ68e4j9+95NkxOzZlJYVJTsN9n1jXJ39IhwNQlutVioLJw4qjpnOER46hkNdE59x1G+++Lf89jOn3Ptgju4fNa1VBZM0shS7q/iI6u/yAeXfowdJzfx8qE/c+TsXiLx9BbBuXSOx+HTEOyg2FZLJ1/GJTWr/j973x1fR3Wm/czcolvVJatatiVZci+4VzDGxpTQAoQWamgJbLIku2n77bfZzZfsJkDKAiGEDnEA0wymGHdb7kXu3ZbVu3R1e5v5/ph7p565RbqyZXue38/ynTPnvOc9Zc77nvPMOYOvDr6HD/a8im53R3yboxHhAwbLRJ4KlkVDfSMa6huwaf1GjCwfxZETZaWgRSQUny5pW6HsFwBwwyPFmHNj/oDK4HOFFX6hGhHe2x6UkODZBdHd78p1BpZhsWlFJ4orzMjMN0AOo5nG9GszMfXqDJw95MHu1b3obAzAYhfWEMx2He78aRFWPNeCk7tdXDZxiPCgX2rhKdkDrOYXx4Nmc1KLxNcHSP6xbPxKAREeRburD2/t3ox/7NsGZ+R7zBT/R9TCkc4eHQvLc4ahOF0Ym016A0Zl5+NMd7tIN5U+w1I41tGCpz59C0tHT8BD0xegPGcYr2+GyYKn5y7BVeVj8aPP30WH2xmTCG9x9uJHq/6O2aUVmDW8ApkmM9rdTmxrOIWdDWfBgH/rRVRNXJ3OKBmJn8xbhpFZuXxZWJbFnpZz+NO2NTjW2apa78R6lbVDqojwyxXJrQ+QfRgOFDhbLvODSD6ZIjz1RLhxxEyYRl/J3wp11cG9bwUYnxOeA5/COu0uAIDOlgvb7Ifh+PrXxHzc29+Abd4ToE3cCzXmSbeib81vEe4+J53jEdLG0pPxOeDe8TekX/f/AACUzgDLrMcQOLcNiLyIfTEQ4Ro0aEg9NBJcw2UN0v7quBNdQhiZCI+RF3GhPFEinCSbOx6tpy0gmuByBPWMZdlY/VYbgn5W4ZzqdBTGzUmXCDq0pU+soGQCM3KilT8SXSg70N7gFy7Ihb+oiPD1x1bhw72d5MwuEeh0ykUeOaKOe1trO9pa27G1ZhtGjCzDzLAeRrnTTXTahgYRbsgrh2X89Xxw2NkG1453AJZF2NEE1453kH7V05zGaTbYF/wAPR/+kJiXe/sbsM3/PnTpBQAA05hrYSiagGBjrULXZPRkQ364a15Axq0v8MHWBc/Af2YT/20kYto4eXF9/fwQ4Yf8o/DNn18iKHF5IRzZnuL1+nBg/0Ec2H8QmZmZKBtTIF28UCxocCDbHCRNhLf0NkZ23HILlMMyiqCjdAizYZn96j8pQdYf/SbCAaDH3YGP976Nbw5/givK5mLZxNsxoWQ6DKJPGRj1aZg2Yh6mls1GY08dtpxcjS0nV6Ou8wRYlo1JSpBIcIA7znDmqKswumACXt/yLDacWMXJEVWArOR8IHkCG6uepPZ+1fKNYNmNRL0uFcj7tBwsyyJ6kk59fT3qz9Vjk8GA6jFVAGVX+l1QLkwPVSL80BYHDtU4MHEB9wKhyULj5ieL8NefnuVJGVF2KSfCM/MMWHR3Dv+ZHJYBaj7uRts5znfrz85ykRIDq/sB+GoN/l3Y++eTuNzBRHwER68Du3buxu6du1FQVAhdfljpZ5PGe8UzIB/CErM5zb31IqkUCjNLBfkpsjmpJsIBoLmnHq9tfg6f7n0bcyquxpLxt6CqYKIkD2uaHYvG3Ij5o5fibOcJrDu6EttPr0dbXxNZ/4g6FqMV6Wby8cF6Wo/rJ92N8cXT8cqm3+JA0y6F7gqbkwIi3MTk4MUkfLU9B44kHHeoIJE5TvREkmAohJPHT3DkhMWCyVMmcfUp+7zZYK0PJAuKFvXzOLbC0cWR4FFk5Bqg01ORMOU6Q91hN17517MYMc6CoJ/F2Nl2jJ2TDqNJqE+dgULFFCvKJ1vh7A7Blik94teaocPtzxTi7/+vCWcPePjxQdV2ERBvfUBnAAxpQr0GvAy5PVJsc3ad/gJrDyW+PvDV+pqE4w4VDGR9AAyjaN+UEeEy+ENBfHG0Fi/WrEF9T6RNKEDepyUtzALZVivunzYf3544A9kW4cXATLMFr9z+CP66Yx0+ObQH/nAIktTyPsNSCIRD+OzoPtScO4k7Js7Ad6fOgz1NOMlofEEJZg2vwGdH90n7oryfsdx3v9efPYoNZ48JhRT1XZIdn1xYiv9afCuyzdK1OYqiMK1oBH69+Fb88MvlaHD0qNa7HIo5XAqIcFtPICmbc6lCbX1gRlUBCol+FSB9ACgQW42UVhGeQiKcppC+4AnJJwZdNX8D4+kFwMK55a8wj78+QmxTsE6/G64dbyLc26jIJ9zXAvfOt2Bf8AOuhAYz7AueQu8nP1bomiwR7jv4EaxzHocukzs5Im30YhiKpyDYuCd22hh5CUObRoRr0HCxQiPBNVzeiDPZUZsgccbvQhHhhEIACAZYvP2rOtzzizL+2E2dnsL823KRmWfAR39qhtcVljin1gy95Cj0rpYA6o97xLlGnB1gytWZuP7RYZI3vkNBFt+82YHjO91Sh02imcpESOLIq090FfWmVrcpnOiOK5qK4nGXrvdx7FQdDh5LZOGYAk0DDAsUFhagqroK5RWjQH32DYKA0ukm9tELTISDgm3GvaBtwhvS3oOrEOo6G+mgLNy7l8M2637Q5gwAgGXCjXBu/DNCnacVeTG+Pnh2vQP71T/mpOsMsM19HD3vPU50WpMhwn2HV8I69/vCbvCymTCWzUHg7OY4ZYydF9fXB58ILzW0Yem1SwgKXBoIh8JYs2ZtQnFpmgbDMLBYLKgeU4XKqkr0BKKL5dF2Ui5oREEm+JAUEe7wdMPp60OWlfsecUFGCfdN7lCYsGOJNPm9cEQ4WBYuvxMbT3yF7WfWozx/DK6beAcWVd8AvWjSTVM6DM8ux90zn8DNU+7DsZYDWHPkE2w/vQ7eoEdBSqSbM2BNE178Ot1+FL6gB+OKr+DDsiy5eOrq/0Bx1kgs3/kSwkxIUseykvOB8ueBtHFIjZSYOm8scq0liIf6s2eQnW5DadGwuHGHErbtOYD6xta48aLtRVM0ho8cjqrqKpSVDceJDzgS5mIlwhmGxapXmlE+yQZrBjf1GjXRhpnXZWHbZ90JvPzYfyKcooAFd+Qgu1B4QbLxpBc7Pu/hh/VE5PTnpcXBJsJzDOWYungkLlV0d3dj187dCcWlaBoswyArKwvVY6tRUVmOrac/B0BoO9J4r3gG5LYlvs3p7GuDP+hDmoEjAUqyR8SYM/Xf5gwGEQ6WRZe7A5/v/wfWHlmJScNn4sbJd2Nq2WzQlDDvMeiMGD1sPCrzx+GumY+jtn471h5dib3nahBmwgqbk23NQ5peIEX2nqtBnr0QpdncEZ0UKIzIHY1f3PAnvLThv7Dh+CqF7gqbM0AiPEg7E/bVTh45gooRJcjOykgo/lDB52s2weX2xo1HUzQYloHeYERlVQVGj65AYVERPme2n9f1gWRgz9JD8jzGsBU+Txiu3hB/nHp6jgF6A41wKPpyrVJOZ7Mfnc3cCXKHavpQOLILM67LwrSlWfyOcoDrV+k55KVES7oOtzxdgP99qg4BLxNRj2y7rBlSEt3nju7SU7c5tI7iX+ri05wHm1M+bAryq+O3ZXtLM9hQENUVI+LGHUoY6PrA/g2fAFD6FAMlwuU43NqI/1n3GXbVn0GICQNRslw50eCfDYPOgFsmXIGHZ16F0swchX8OAAX2DPx80U1YXDkev/rmYzQ4uiNi1IlwUEC3x4WXt6/DulNH8OTsxbi6YmyklgADLTrePw4Rrhg/xPUjex6MOj0enbZQQYCLUZqRjbsmzMTva74CI7YnqgsGIlVSSIT7rHosvXahan4XOwa6PpDlbYIXIPpVMgcAALeuBsiakJRWEZ4aItxYPAmmqqv463BvEzz7P4kIAIJNB+E/vQXmcdcBAHSZxbBOvR19655X5sOy8Ox8C7aZD4BK415KMU+8Bc4Nf0C4t1GhazJEeNjRDM/ut2Ff/AuuvtLssMx4BI7GveAnQCppY+UlPKsaEa5Bw8UIjQTXoCHGZCdlE90YEy2lnDhEOLEMnEVtOOnFy/9yGt/5yXCMmmQDRQE0TWHSlZnILjTi7V/Vo7cjyDunY+ekSyaR+zc4oifE8LnqDTQW3pGLK7+TK4nr6g1h5QutOLLVCZYVJjDkoqtMhCQLWvEXV+MhVRPdfHshxlfbcKmit88Vc5JL0xQYhkVmVgaqx1Sjuno0LFZhkhUQR5Y73USn7cIR4frsEbDNvJe/x3h60bfpL1ziSF7BtuPw1H4I2+yHuPLbcmGbdT96V/07H0+cl6vmr7DO/C5oG3ekoXnirXBu/BNCrUeITmuiDjvj6YVn91tIv+433IReb4J1zpMI1G0D2FDMtPHy4vr64BLhGZQbpspyQuaXBoKBILBG/T4dISH0BiNGjhqB6jFVKC4t4eunp6WJj5sUEQ6oPGOS0ZXYpo3ddTwJnp9eCB2tB+Anjn1DkQgHRcEf8uNocy2ONe/Ha5ufw7Xjb8PVY29CUWZppDwcLEYbppbNwZSy2XD7nNh2eh02nliF460H4Qm4wLIs8u3Fku59sGknXt38LOZVLsEDc3+E/PQiUKBg0Blx+7RHQFHA33e8yJEbogqQlZwPVBLhkYUK1Xri7H1BSR7KcuM/O16nA8V5WRhXdXE9Z0dPnkU9yCQ4FVm8ZFkWw4blo2pMNSpHV8BoNEojqvldMl+ND4tj5883Ed7VEsCXr7fg1qdLQNMUKBq45t5hOLnXhc6mwKAR4aMmWTF9mbATNRRg8dkLbfBHiYl+7CwX+2oALtjR6GY6C+WVmbhUYW4yYddO9fvRxVSr1YryilGoHlOF3Lw8YtzzQYS7/U70eLpQkFEMACjKLJEIuhiIcJai4A16sP30euw4swHFmWW4ftJ3sLBqGbKsufznOSiKQoY5GwurrsOC0cvQ7e7A+mOfY8vJr9HQfQbeoAcAUJAuvNzEsizWHVuJrafW4PqJd+HO6d+DzRR5+dJoww8X/xoMw2DTyS8VuitszgCI8BAbQHmCvlpncyPKR5SiuHBgR3ifb3y1YavqvWj/omgKpSWlqB5ThZGjRoDWSclY1fqMZSvirA/s39SDjma/oItSO8UlBQozl+Ugv5R7mUJvoGE00Qj4uCOS49mKziY/8kq4l+Mz8gzQpwE+DxKyOUyYRdMpLz7+kxdr3u3AjGVZuGJxJjLzDfznPdSQXWjEqAkWHNvpEvVnpe0yiz7JBpb75rlIfeL6gDWdTJwPts3JthaivFKddIyCZsNgAz6Mr66IG3coYaDrA1zFQek/SMZa2fiVCBEu0+PdPTXYWndSMXaLbQUbuWukdZhZVoFnrrwe1flFimfO4fNAR+tgM3LPiJ6mMaesEh/d/0O8UPMN3j+wA55gQL3PiMpyorMVL+9Yx5PgfJ2Ir1JEhA/PyMGkAk0HpeoAACAASURBVOFkq1aXA3/evhZmgxHPzFkCs4HzoReMGI2Xdq3njoqX17sCrORXqojwoIFO2OZcjBjo+gDTKKwPyP0quQ/DgQI3B5H5QaS0ivABEuG0DukLhePLARbOHW8h1NPI58UyIfRt+DNMlVdGvg1OwTrju3DvfAdhV4cin2D7SXj2vQ/rrOg6XB6scx9D36r/AxB0TXyDCQvvvn/AOvMR0Hbu5fG0sTdAX/O/CLUelskcokS4Bg0aUg6NBNegAUj5RFcpPlk56kS4ehk4i9rTzn0H/KbvF2Pq4ixeRmmVBY/9bhSW/3cD6o96QLHAxAXCm/0Mw+LQFofE2hvNNG58vBDTlkoXGTubAvjw+RacO8wt8hCPyZSUP8ZESLKgpZzoyicbinodpInu5QaK4ojq9Ix0VFWNRuXoSmRmqS8uqzvXGEJEOGCbfifoCAkIAN4jXyPYfiKiUQQMA2fN32CZdDP/bXDL1Dvh2v4GQp1nFHmFXe1wbX8D6Yv/hZNjMME270n0fPgUpyeh/Ik67N7aD2CZ+TD0uZUAAGPFIhhLp3PfMIo1KUkgL66vD/KO8MsMFMWNLTRNY8SoEaiqrlL9pqQcCRPhivELCRPhzb0NmFDK7XK2ptmQZc2GN+DmI1wsRDgbudnj7sTyHS/j471vYeqIObh2/G0YV3QFbCZhdzcFCjZTOq4ZdzOuGXcz2vuasefcFmw9vRb59iKJLi2OBjBsGJtOfIljLbV4eP6/YE7FYtAUDZqicevUB3G0uRa7z21W1LGs5Hxgf74RfjnOdKM2JzsnG2PGVKNidAUsFkvsRGr1KfOx+LA4dv58E+F71/RgwtwMVE3n+qs924BlDxVg+W/rEQrK+wRU5USUly0cSzsmC8BspXHD48MgHo62ftqNplM+IV2SO8vlvlrcekum7jVfLS50Oh2YcBgGoxEVoytQVTUaBUWFCdXKYBPh7oAbvZ5ungTPtObAkmaDx+9KcCyMhl14IpyK6NHYU4eXN/wW/9jxMuZUXo3FY29CRf44mAxmPk+KopBjy8e3pz2EW694AA3dp7G7bgu2nvoGI3JH8/HCbBjtfc3wh3z4aO/rqK3fiqcW/wdGD5sAANDROjy28Gc403EUjb118W3OAIjwyw0UwJM1RcVFqB5TjZHlI2E0KL99LUF/1wdA8q9YHN3lwNFdDpluUttFSS8AAGVjrDwJbjBRSM82oLPZD8nzqGIruluEV5fTzDSs6Xq4ekKxX7gnyHF2BbH23Q5s+bgLo6+wYdqSLIwYb0GaWd3f9XtFhDYvVtQZKSAzT1iOZFkWjvagODZxfcCeLSXB3Q4hH83mpBbJrg8oxyaSfyyLkwARLskh+oI6xGOflAinaQrjCkrw2OxFWFw5XrFJxRsMYM2JQ/jrjvUAgJ9f/S3MKC2HLuIwWQxG/PjK67CoYiye2/wV9rfUc32I1GfEY4FcVxD6XgqI8HyrHWl6Yfz64NAufH3yEEABM0tG4ZpyjojPt6bDqIs+Y9J6V4CV5QWkjAi/3JDM+kB0FiifO0p+Sh2AyMX5J8IN+aNhHiOcJBPua4d793uKvPxnd8B3ciPM45YBAPS5o2CZegecm14QyYzkwzJwbX0V5km3gjZzY4tlyh1wb/0bwj3nCIUh6yjWk9evu44jwhc8DYACbc6EZeYj6Fv5DMAyMplDkAjXoEFDyqGR4BouayR6/FXSRLhaXikgwpVyxRecRfW4w/jguQY4uoJYeHsedJG3tbOGGVAwIg31Rz3IKjCiZLSwiNNyxofOpoBEjtFMo3yydFG6/qgXHzzbhK6mAK8PaVFUrl3MiVCMia58siEXr010+weWYfldRDarBel2K8ZMGI+q6urEZSCGw05ss/NLhNPWXNjmPizECwfhWPcHov7BlqPwHvoC1hncrnFdegGsM+6D48tfSSbfnAosPHvfh23Wg6Bt3K4r87jr4Nz0Z4TaT6hOLBJx2BlXO7z73uOObqIoUEYLzNPvR6BhF8CECDKHDhF+2SCyyEJRFIaXDUd1dRWGjxgOvT6+SyWv1sEmwhu7z0nyL8wcjuaeBolCFxMRHg3zBb3YenIttp9ej7KcCswqvwrzKpegPG+MYqErP70IyybcgaXjvw1vwC0pa6ujkf/d7mzBc6t/BrffiaXjbwMA6GkDvjX5Xuyu2wxJEwimDIpaUegfDY5fz5cyWCpic8IMcjIzYDKZMGv+HAwrKIifVn5B9LuGPhEe8DH48rUWlIy28Meij52dgfHzMlC7vpcgR/msJ0qEUzSw8M4c5JWm8bLazvmxeUUXQb66HOE/dV8tbr1pvtqAQFE0WJaBwWBAeUU5qqpHo6i4SDHWkUC2Oer2hkvTPyLcF/Ciy9kOFHLpzAYLsq25HAkuincxEeFROLw9+PLACqw9shLl+WOwYPS1mF1xNQozSiEGTdEoy6lEWU4lbpp8L4JMkL/HMGG0O1v46zOdx/GfK5/Cvyz7HSaUTAcApJuzcPXYm/FmzfNSu6dmc/pNhF8eoGkaLMtiWF4OjAYDrrn+WqSJvtmrhgGvD5DkQNmv48qJNGxns4+PbzTpkJlvjJDgQiQ1W9HVIuw8B4CcQiPazvmgtF2x5UQKAL+HwcHNfTi81Yn7/q0UY2bZedlMmAWt4745vn9DH+oOeyHunYJYrjPq9BRyS4RTX/xeFi5HWB5bMW5lFwrkH8sAjo6QZnNShAGtD7CiH6kmwhV5KecG0bF7RFYuHpixEDeOmyr5RjcAMCyLHfWn8WLNN9jXVIcwy52o8ORHb+DWCdPx+KxFyLNxLypSoHBFyUj85dYH8fbeLXhrzxY4/T5yn4nDXKWaCHcGfGBYFnQkbHLhcKw4vBtmvRHlWdITYeaUVuDrU4cQCIcgawSpjrK65VUZKBF+uWAA6wNcfbESO67ugwlpuHFc9piQ0irC+0GEQwf73IdBW4TTpdx7P0Coq06ZF8Ogb93zMI9dyk1IANjmPwH3zrfA+JyKfIJtx+A7vgaWyd8GwK3DmafcAee6Z0FBckxpTB25cOnamHvna7DMfAhUGmerTBNuhXvj8wj31hNkakS4Bg2XOjQSXMNlj8EiwlXzGjARTjDMkDqioCiEQiy+fqMVPa0B3PBYEdLMNGo+7cLu1T0AWFRNs8FoEt5GPL7LBb+Pkchxdofwj/9uwoP/VQaThcaRrU589MdmuPtiTVDlyqkvriZNhJMrVZvo9gPGNCMmjqnExLGVKCspwqo1m5GZkeA3/1iAd7yh5lzjghPhthl3QWcTJoLeQ6sQbDlKdk5ZFs4tr8Ay9XZQeo40sE67G85NL4KJHN0kzivUeRqe2hWwzXsCQIRwn/Uwej/7KU+UkyYWiTjsnt1vwTrre/zRTabxN8Nd8wJCLQdVZA4RIpyQ1aUGmqJQWFyEquoqjCofqTyyOQHIq3UwifDG7jpJ3sVZw7H7bI20WQlj38VAhAMAwzCo6zyBus4TWLnvXVTkj8XVY7+FmaOuRKYlB2LQFA1rml0S9r0F/4opw+fgSMs+nOs8iR5PJz7Z9ybmVl4DW+Tb4eOKrwBFceVPiJRQ2Ddx8OVLhGfYbJgyvhoTx1bCajFj9cbtsFrjHysaRWIvIA59IrzxpBc1n3bimvsKQFGA3kDh2gcKcXq/G87uIMHnA1GO/NkQqoX7W1plxoxlwmlAoSCLr19r5/w3ftFFVJ0aET4kodPrMHLkCIyuGo3hw0uVRzbHgtLEc9dyP5u42Jk8Ec5SLBqju3YAmAxmZNvy0NBd16+xcKgR4QAQCAVwrGU/jrXsx/u7XsG4oiuwsPo6zBi5ULI7HAD0OgP0OoGsM+iM+Ol1z2Jf/TYca6lFY89ZOL29WFn7DqoKJsIY8T3HF0+TVEpcm6MR4QroaBoF+bmYMr4KE6or4XS5sbP2cEIEeBSD9qJ8P4jw5tPC9831BgpFo8w4uc+ZEIHd1SL5iBWyi8R+a/+IcFAUaB1gzRSWEl29Ibz84zrYMvXwOMLoaQ+CCXODkHReL8y7jGYd8kQkeMtpn+xZVNociqKQUyIiwVkWPe1BYr1pNid5DGh9AJDOaVJFhMfJTDr2sXh41lW4c/IsRfRTnW14oWY11p8+Cl8wKKShWPiCQSzftw3bz53EP82/FteMnsDft6eZ8MTsxZg/sgq/3/gF9jTVcQrK+0ycN8JTSYQ39/Wi1eVAkZ3bOTt3eCXeu+MJ6HU0cizSuc7PF1yP60ZPxCt7NmFfyzluPsNSvI8g0RGiek8REU7K51JDKtYHuPoaukS4PqMQ1itu568ZvwvOTX9Rzctftxv+M9uQVj6XS59VCvOEm+He9bYyHyYE1+aXYB57HX+Eum3mA/DsehthZxtIa1YkHYVwYW0s3HUG3gMfwjL9AQAAbcmGZfb34Pzy31RkDh0iXIMGDamHRoJr0IAUTXSR2CRp4ER43BLwFjUcZrHjiy50twYwfm4GVv2thX9Le9KVmZLF0SPb+ohyzh3xYMVzTSipNGP98g4EfJFFWZUJKlk99cXVpIhw9eKndKJ7qWPK+CrMmTYxoSObVcEi0qZDkwinzRmwz39UuBcOom/DCwThwmWgcT+8B1fBMuVWANxbqLZZD6FvzX8r82IYuHe8BcvUu0BbuAmoeeLNcG1+AaGe+pgTi3gOO9PXAs+uN2FbFDlu3WiFZdaj6PvkaS4xUebQIMIvZegMenz3oe/GP7I5FoiL2LJFI8k4KE6aPBHe0ivsdAaAkuwRYjUkel2sRHhUpCfgwoHGnTjYtBtmoxWTSmdifuUSTBsxHzaTHTSlJI9KskaiJGskbpp8L0JMGCzLgKIoKXFBGxWZyRcjZCXnAxMlwi91XHvVHNhtAuHt9nhjxFbHpUKEr/tHO8bNyUBxBUea5RQZsfSBAqx4vgFgE5cjfzai1WKyUFj28DCYbUKf37emFyf2uEXRCb32IiPCL3Xk5uXhoYcfhMEY58jmWIhpc9TtDZc0eSJcbHOM+jTk2wukaSU6XZxEeFRkr6cbNae+wbbT62AzpWNOxdWYV7kEYwonw2K0KYhOiqJQXTAJ1QWTwLBhhHmbo4NBRpbLM4trc5Ikwi91PHL3LRKb43S5+yVnsNYHkiXCW8954fcy/NHjFZNt2PhRW0IEdlerbCd4QZqi//SHCNfpaWTkCEuJXU0BdDYG0NkUEMkm24ror9IqE3QGIXbjCR+vgtr6gN4A5BYLz0jAx6KnWThxQbM5/UdK1gcgHo/lYxPJP5bFIY3ZCWQmjvvO7i24fsxk2CIvvXS5nXhl+3p8cGAn3H6fdE2Bz4gjEs92d+CZz97FddWT8c8LlmGYnXsBgAIwoaAUL9/6EH7x9Qf46vgBYp+Jr25qiPAOtxOfHNmLx2dcBZqiQFMUCuzklxV0NI0risowseBubK0/jb/u3oDT3e2Air7CYy9ri34S4Zc6Urk+wD0lQ5MIty94FLRZ6GOevSsk3wJX6snAsfp/kP/4x4juBk9f9CN4aleADUrngSwLBOr3wH96M0xjlgIAdFmlME+8Ba6avwh6EsqfCBHu2vgcLFPvBiL+lXn6g3BteA6st0dF5tAgwjVo0JB6DMzD0aDhYofEzkiNDsmRZaNGjZQmRrqk5LCEsIhjoyKMrE0kAcMCJ/Y48dGfGhEOMmBZIH94GgpHCW/Dt571RY5GI8s5tKUPX73eBr+PESsoiqdeZkE9eezYcrjo4jsq7SFKSowjqzhWlK+anEsdVot5wBNcAJG6EiZH0nDRT2KdUuQ+rdYUknBKtZ2iMm0z74E+s5gP9x75GoGGWhXhwqVjzbNgQ8KuCfv8x0GZs4l5BVqOwHv4c/5al14A68wHRBNG6SIYSU9lOJfGs/0VsNEjRAGYJ98BOnukqv7itInmxT0zMg+dJF5V/0t/YisGTVEDm+ACEA948moV2kk+DopTk8Yv8bVkdEVzTz0YVvhWYmFGMS9U0ayEMZTUd0jfuyMooqK/MlCeTDmuKwWq1x3Asgw8fhe2nVqL//nqX/Hg60vwm1XP4JsjnyAYDoIEiqJh0Blg1KfBoDNKFkwPNu2SqizXgdieJPsmDr4MDI0IYjKiX0jKX1L6WKR0CfsLSfl8JF+NVTyjwQCDD//YgFBAiDx9aRYqp9iFNAnIIT0bFAXMuC4LZeOEsaqrJYC1f+8EE2Zk0UnPorqvpghTlROj3lLoq13qz5HRaBwYAR5FTJujbm+4u/K2JP+IXjZ1n5O0ZUFmCXncVnt2B2BzyPpLbxDMbFybQ+pl4rwYNow+by++OvQhfvnxY3j0rRvx/OpfYufZjYSUHGhKB4POCKPeJCHAWbA42Lgrtt1Tszmk8MvgOSFhMG1OqtYHWJZFfokJBSPMon8mFJQJ18NGcPf1ehqevhCftrjSgowcI5S2QtRXIuHdLQGwwtCPnMhOcMWIG0eOvARGI4X0HKHvdrcFRWWVyuHKK7sGUD3LJtHi7AEPxB2ZJMdgopFXKpDgbef8nOzzYHMudQx8fYA0HsvHJpX2FceRj9mEwT3WGHmyowXv125Hn8+Lt3Ztxs2vPYfXd22Ey+9T79ORGywLhBkGnx3Zi++8+79YeXhP5BhxDiaDAVdFvrdN7DMKQ6tQXdn3WGk/i+vnRuK/U7sNK4/uQzAszPOi8AQDqOvtRJgRHn4DrcPCEaPx6s0P4ifzruV3kZOUFeolRlsQbbvSV73UkZr1AYiqipLVKeGnolqFF4XIMsk+GPdTfb0qKlNnz4d99gNCWMALx7o/x83Lf3YbfMfX8+H63JGwXPEd4poVy7LoW/ssxAbLvuAHoCOnuKmtWUV1JOvOpQl318N74EM+nDZlwDLncdU6EadVyiTnJTyr5PqMnVf01+W1tqZBw4WAthNcgwYWye1YQZzdQaQsknzjO6oTaUc40e7yZSDvDhIVEQCLyik2yQ6h47ud8HuZ6AuIqnKErHgFiW9qq6uXnBzSLiOl7EF441tD4mCBobYjnDJlwDbjbqGvhQJw1rwBJhRSfUM2ehlsOwbfsW9gHn89AIC2ZsM2+wH0rX2e+Eaoc+OfYZn8bVAG7qUSy7R74dryF4Rd7YKe0cm9TNdYb66Gna3csehzn+TKZLDAOusx9K36V9U3SaNpL/iOcA1ESBd7xDsjRHH4dpKPg2I5ie8I9wa96HZ1IjdytH50JzjZNkRVu7h3hEs0YgG334UtJ1fjYONuTB8xnz8m3RNww+13IseWD5pSLvqFmRCOttTirxt/wy8+qeogZAdFrSj0jwZrNidxsLL+fvHvCK8/5kHNyg4s/HY+AICmKdzwaCFe/okHHmdYRY7yWZf7anmlJlx5Rx6fjgmzWPN2BxydHEERfyc3Lqod4RrUwfJ/5W0niiNru4HuCO9ydcIX9MJs5BaEY9octWd3ADbnQuwIlyfqcrXjmyMf40zHMcwYuZCP3+vpAgUK6eYsxZwQAAIhH3ae3YgVe16V6kmqPzWbk8SOcA1xELN/9G99QBxG0RR+8Hw1MvOSPzY3M9eIkeOsqN0YgNJWiEZoFggFGfR1BZGRxxHWOUVGFT8quR3hWcOMELtO3S0BiDtmvHm9IY1G1XSBBHc7wmg+7VPYHLmc4koTDGmC1k3H/QnZCm19YPAhsTmAdE4zwB3hipzk47KoTzMsi1e2r8fKw3twtL0FPMNExe7T0RvR56DN6cAvv1qBtaeO4Hc33AWjTi/kz/+S9xm5tix5HTAFO8J9oSB+s3EVtjacwvWjJyE/8i3zsz0dWHmsFkc7mrGkfDzumTQLI7Jy+bxMegNuGzsNyyonKmpWuVZHCOvXjnANCYGvs6G1I9w26z7QZuGYfc/BzxHsOqeMKssLoQBc216DafRCgNYDFA37nEfg2fchGJ9TsWblr9sB36lNMFVeCSCyG3zSrXDvfFOqJ6H8MXeEIwx3zUswjbspctw6YLniPni2vwLG3UmsEz7thd4RrkGDhpRCI8E1XNbo96Qp1kRXxWaliggnyVd15rmMJc6p3kBh7Ox0Pq3fw+DwVkfCcgTV1CaoKuXnxSYqRzlhVpetTXTPJxStzAJDiQi3Tv4WjAXV/LX/zDb4TtdwaeTOrNwBZcJwbnoJpuprQOm5hSnbjHvh2vYGGE+PwhEOtkZI8wk3AgB06cNgueIuODf8MaGJRSyH3bPzNVimfxeUkVskMk++E+4tf0TY0azqQBPLGCcv7pnRiPDzAdHIhpQQ4XLZsplxMBxEW18LT4IXZBSDomiwLENeuOBVu7SIcJYCbKZ0yTHn206vxRs1zyPTkoOizDJkWXKQackGKApdzjac7TyOus4T8AW9Ks+DTAchOyhqRaG/THENMcGiP/6SMg0p3YUiwlmWxfr32jFmRjryh3MvURWOMmPBt/Pw9Rut/K65ZEgJigaue2QYLOmilxx3uXBgo0PWP2P7WPLnU+6rJS7nPBDhGmJCve1EcWRtNxAivMfTBU/AxZPghRklnDCWJY/bas/uAGzOUCDCWQCZ1hxJ3Pd3/Q1bT69BtjUPhRmlyLTkIN2cgRATQqezFafaj6Ch+zRC4dDAbI5GhA8Yg7Y+QOjr/QFFA1MWZeNgTS/CoYiFVLEVbBjobgvwJHj2sAjpPkAiXPptcaCrNaAYb2LN66umW2HPEpYiz9S64XWG5bkq5JRPke64PHfYG9W8f22m2ZyUQt2eyMcmlX6iQoSrZaZGhHe5nehyO7nwaBxRR6YoCmaDAZ5g5EUSSONEn4MQE8Y3Jw4iEL5dRIJLCsanTk8z4/oxk1VUHRwiPMiEsebUEaw7fRQmgwEABV8w8ixSwMdH92BD3XHcPn4a7hg/HZkm4fmxGKTPMAtlvQuPvSwsGSKcJVaJBjXwFTk0iHBd+jDY59zPB7IBD/o2/gVgwlwa+ZqTLC/viY3wn9uDtJEzAQD6YVUwVV8DT+1HxDUr56YXYKpYgOhbVrZ5j8Oz9z2wIZ9UT0L5Y62rBVsPw39qLUxjI2t2GcUwT7oD7q0vqtZJNK1GhGvQcOlAOw5dw2WPRI6/6tfRZ6S8COenxJTDEsIU+bDCX1YIk8RihThmmw4Wuw4Mw4W1N/jQfNqXlBxZrpAVQaaaPE2ickS/ZHIIURJrM1n9x217DWSQqogFxEsdpLhqzQik7mh0Os0G+5wHAJojAdhwAH2bXgYb9Alp5McbyfL21e2E7/ha/lqfMxLWK+4kpwXQt/b3ACMclWZb8H3QJrtST0JenExlGACEOk7Bu3+FUDZrDiyzHlOKIcokLxqo5cU9MzIPnSReVX9tcSghyMc45RDEXYvGYGVY9A4rrFiIY4vShsJBtDma+fsGvRF56YWKsVjRrIQxlNR3hvrR6OIKzk8vgskgLP40dJ9Bp7MNp9uPYvOJr7Cy9l28tfXPeHvrn/DFwfdwtKUW3qCHYKNj6EBsTxU7GaljzeYkjuT9JWUaUrqE/YVYvoJCDkt4ZlhJH3f2BPH531oQCnIBFAXM+VYuSqotMeSwCjnR66mLs1A1Xdip4XWF8fnLrWDC0o4pf3JIPpb8+ZT7aonLid1mmq82yGBjtZ0omqztiOO92lgo+tHj7oTbL3x/OdOaDWuaPbbNUXt2B2BzyPpLbxDMbFybQ+p1iuczcl2WUyGJd67rJNocTTjWsh/rj32Oj/e+iTdr/oS/b38Rqw9/hDMdxxAMB1Njc0jhKs+bBjIGZX1Apa/3B2NmpmNYmUkUQrIV3K7Y7hbhu+B6I42M3MgLgUQ/iixHbnOyhkk/1dDTEpDHlj1Dwi+KojDjukx+JznLALXr+wRbFUPO6OmCfQz6WTQe94rS9LPNNJuTUqjbE/nYpNJPxHEIg/m90+ZjVlkF6MgLVjHHyEiYWIV8Wzp+c92deOm2h2A1pPE35PZEdc4sy4umKCyuHIfldz+JB66YHyN6An2PjdFfSeMHKzznnkAA3qCfvxsV1eN14ZVdG3Hfh69gxeHd8IfIn4ZSq3e5/SbFiVXv2pMTH4quwV9f+KPRbVNvgz6zhL/2HFmNQOMBke4k1ln4yfhdcG7+C9jIJ8konQH2+Y+DTrMR0/tPbYb/TA1/bcivgnnSrWQ9FYUh+38AwIaCcNe8JHyPnKJhmfkwaGuuUoxCZvLrahI95fJi5hX9pa2tadAwGNBIcA0aMEgTXbW8UkKEKyXwf0UeEWlS0NcTwh+ePIkXf3QKmz7swK6ve0STzsTlyGLLJjDy6Ak40nEmzBoRPrQQ3dQjDQQuNBFuHrcEaaXCW9iB+lp4j60n6K9OhLOhAPo2vihxkm1zH4HOlkdMG2g+BO+xNfy1zp4PyxV3kfVUFCSqDyGMYeDeJvs2+KTboUsvUoohytSI8CEJ+RinHIK4a8LslkiEyxKLnzGGDaPV0cTf09F6FKQXSpNcJkR4YcZw6GlhF0ero4GsP9HMyG10DB2I7aliJzVTkzQuNSL86HYH9q7t5u+abTrc8L0ipFl00jRx5GQNM2DJ/fkSUuGbt9rR1RJQ+FjCf7F9LPnz2X85sdusv76ahgTBxmo7UTRZ2/WHCA+E/Oh0tfH3002ZsPHfc5QKJo2FlxIRXpI1ShKn1dFI1n+wbA4pXOV500DGoBHhLMCyDD7/WwM++EOd9N8fz0n+rRD927W6ixdjMNKYf2t+HJvDXXdFCOoorvrOMOSVpsFoolX8KDIRDgqw2HWonGrD5KsyJCm6mgOy2CS/h/s1apIFw8cIZHbLGR/qDnsiUdRtTmF5moR8rzvkhcfJQJpDP9tMWx9IKVJJhLMsC0bUPuMKSvDmPU/iD7fcj+phRaAlOQmZycPsJjMemnklPn/kx7h5wjTMGF6Om8ZPAyXSTW5PYq1N0BSNCQUl+MutD+L5G+9BWVYu4dRHqSKDSYQLP5X1zoJFa58Db+yrwbbGM4RCAQzLSNsmRUS4hsQwFIlwnT0P9rkPCqcABLxwbnkVrGjzB5dPbCLcc/hLBBr3ZqWY8gAAIABJREFU89dpZdNgGnstMT0b9MK55a8AE/nWPa2DbdZDoAxmsp6Kwqh3O//ZbQicFQh2fW4lTGOuJ4tRyLwQRLgGDRpSDe04dA0aIuCOm0nN0WeEqaQk3UCORo9VArUjy+THRIXDLM4d8eDckciEE4kftymWI4tNcMDE0YWKFcSqy1E7Qk1RZ4N09JmGxCBqwkgAcKGORqf1aci48kn++CQwYTg2vAgm6FP/RpDK0ej+up3w1+2EqXIhAMCQWw7z+Ovg2v6mMi0TgmvTizCNXhQ5Qp2Cbe6j8Ox9H4y3V6FnMkejB1uPwnfsK5gnfRsAoMssgXnqPXBt+D1i1bFqGWPkFZXR36PRtbWhJCAf4wbxG+GN3XV8XB2lw7CMYqBhNyRSI0IVzUoYQ0l952I4Gr0go5i/F2KC6HC2qutPKqPCRsfQQWQSFbWi0B8akkSi/tLFcDQ6w7BY/VYrRk+1IzOfO5py1AQrZl6XjU0fdoj6h7ocvY7CNfflC7v7AJw+4Mbur3vEaqF/R5pjSB+NriFB8OMOqe1E0eT+ejJjYdTmdNVhatksAECGRSDBpXEJ47baszsAm0PWn9SnIamMeDYnkaPRxTbHF/Six9MlinuebI7K0egaEkcq1wck/ZoBtn/VoUhH+l48BU5O7aYejJ+TCbONe0lqxpIcbP64HU2nPDFsDov2Rp9E3rybczHj2my0nfOhtc6H5lNe9HQE4XaEEPAyYBmusHojBaOJ2zmeW5KGghEmFI40I6fIKOmvfV0h+NxhSUeW24poVRhNFBbemcN/15tlgL1rHPC5mUhZoSpn/Hw7dHoh45N73JHj4GXjVn/bTLM5KYC6LyCZ0yRxNHp9Tye+OlqLpdWToKO5Ob6OpnHd2MmYX16Fv+/Zinf2bEFLXy9xjDTQNK6sGIfH516NCYXD+TgUReHR2Vdh9fED6HQ7+cGUdDS6fNzMt6bj4ZlX4pbx02A1piEWFGMBaR1QYROSPxqdf2YI9Z5uMuGGqsm4e+IsFNqlL7AAwPHOVuxoPKtsG6KtlIWJDZiabdeQEMjragD3lJz/o9Gtk2+GIa+cT+o9uQm+MztU/DL1o9HZoA+ura8hbfhUgKIBioZ97iPwHvwMbMivSO8/sQ6Bhj0wls0AABhKJsM0Zim8Bz4h6qksDNmvAhOGu+YvMI5awK3ZURSssx+H79CnYHy9MetEtYxqeYnLH9VTLi9mXgR5GjRoGDA0ElzDZY2kvwOV4ESXmJdiUae/RLi8DFIJ/FRC5BGRCGzF8mQS350Uy5HFVi+/3CHnxcafMMeafQ7KRFfDwMACF4IIN1XMRdrwKXySYMdpeA59yUVTcU7ViHA25EffxheRNmo2KB3nJNvmPgJP7UdgfE5FWn/ddvhPb4KpajEAQJ9bDvPEm+He8QZB/ySIcCYE97ZXYBqzDJTRCoCCeepd8Ox8HYynM2Z9qJZRLS+RjP4Q4dqjkyRUFnvkTThQIry5p56PR1EUirJKVSbPJNsQVe3iJ8ILM0r5cI/fBYe3B5DEvYBEuIY4IIxfCflLFwcR3tMewBevteDun5bxd6+5dxgOb3WgszkQw1fjMGZWOiYtzOSvvc4wvn6tFQEfRyoMnMAmLYT2R06KiXANyYEfd0htJ4om99eTGQtZoLm3gY9n0HGf4DjVdiwxm6P27A7A5lwoIlxsc9qdzQgrdk5dQCJcQ0wM1vqAwlYQwmKtDzi7g6j5rB2L7+JO9KF1FL71WAle+fkphIKMqs05ttOBs4dcGDnexss0mmiUVllQWmUBlvLJEPBHSXBAZ6ChN8TuNUyYxeYPOxHwM9ECxJzXT7wyAyMnCLvAwyEWzm7h2ZCPD9Ewi43G2DnSz32c3CN8ekG5zqCtD5x3sOIfZF+gP0S40+/DTz59F2uOH8ST85egIreAz9KeZsajc67GtdUT8eauzVixfwe8wcipBCyLirwCPD1/Ka6uHA+jXrr07fR7sfLwXnhDAZnZUBLhYkwoLMVbdz2O0swcRfGbHN0oycgmVM2FIcJ1tA4LRlThoSvmoTq3kDtCXoQujwvLD+7AJ0f3weH3Suqdb5tUEOEaEsZQIcIpUzrss78rtHM4CGfN6/yx5skS4e7aj5B+9Q9hyB8NAEgbMQNpFfPhE52mGE3P+F1w1ryCnNKpAK0HpTPANud78B39mjupUaJ/ckS4/9R6BBv3wjiCe1lTXzAOxspF8B34KG6dqJZRJS9x+v4Q4Ro0aEg9tOPQNVz2SPr4K1Z2LY6jNkFiRXFi5E2SQzoCSZGClV7zf0WTEWkUUZwUyJHFVugnjS5PE0MOS4xNyKGfbabW9hqSAvFNRRYQTWFl4aKfxCrv39HomUt+DH4XOIDetX8CGxIdz6fSvGpHo3uPrUHg3B4+2Fg4Hubx10ujRtKyIT9c29/gJwagaFhn3s99G5yoP6UIU9MzUL8TgbNb+Wt9bgVME26JWx8kPePlJZbByj30BPPSkATkY5xyKOOuJQtL8rDoHdI4CHT0tSEQEr4HWZw1nBhPLFTRrIQxlNR3hurR6Dpajzx7IR/mCbjh9Dni608qo8JGx9CB2J4k+6YhJtj++0uKfkuo+H77C2p5E+XIfSxRKhbYt64Hx3b18XdMVh1u/n4xKMXau1SONUOHpQ8Mg94oLHxu+7wbDSe8oiTqPpYijI9OehZTISd2m2m+WipBHMBitJ0omqztkhkLm3sawLIMH560zVF7dgdgc8j6S28QzGxcm0PqiSwLpOlNyLbm8WGdzjaEokd7xtJ/sGyOSjtrUMdgrQ8kZKdi2LtNH7ahp12Y21ROsWPezXkEOYKt8DjDeOs/z2LX6i7Jd7cVoDhyPM2iQ5pFF5cAd3QE8fGfm1Hzaae076rYiqx8A665Lw80LcjVGync+OQwlE+2yNJI5VRMtSBrmEBinjvsRU9rUBybsM7QzzbTbE4/Ie7rMdqFVcaX2yVJD2IBbzCATw7uxh2v/QHPrV+FPp/g41AAyrLz8MslN+Mf9z+NeaOqYTGm4ekF12L5fT/AsjGTJQQ4y7JYf+oI7n77BTy/4Qu4/D4hd5FuJJsAAGVZuQoC3OHz4NdrP8XPvnxfUSUSieJr0nOusAkx+itp/BDFr8wpwPPLvoPfLLkNY/OKJAR4mGHw4ZHdePDj1/DWvq1w+LzEeuezIdpKWRir1EN7cvoHRdfgr8/f0ejWidfDWDSOD/bX74Xn6BpIohL9MoLdYAE26EPfuj+K1KKRsfgnqul9R75CsOM0H24cMRNpI2aq6E9esyLpyIaDcNe8KNKDgm3hPwO0Lm6dyHVU6k4MFj1L5PW/WHlp0KAhtdBIcA0aMAgTXeKqCDndpUeEk1SNNUFVk0OaCMkxSBNdzflIGiyr5lyfHyLcXDEPppHT+etg2wm4935E1JMEIhHOhOFY83shJ4pCxuKfgKINxLS+o6sRqNvJhxtLpsA07oYY+idIhDNhONf/HuB3EVGwzvsBqDR7ws46sYykvGQyNCI8tSAupMVadBBHI8xuEyHCXX4XHN5e/ro0eyRxoiwfixWaEu2XPBJpTBX/iJ1esYhCSNYfItxqtMNuSuevnT4HHJ4esqnWiPAhi0uZCGfCLD55oREuh7AjbvQVdkxbkgUl2SbIWXRXPvKHC0dxtp71Yf3ydrDyNJcgEa4RE/ER2+aQ2k4UTdZ2iY6F7X0tEsK3NKcfNkft2R2AzTmfRHiuvQA6WsdftzoaEWZCF9bmqLSzBnWcNyKckE7N3jk6g/jqzWaEI2Q2TVNYel8RyifalbJFtsLRGcTy/z6H3z5wBF++3oKzh9xw9YYQ8DEQvbOiinCIhc8dRk9bAAc2OfDur+vxu4dPYOcX3ZEjyWPbHL0BuP3HxbBnKw+itGXqcfcvSlAxhUyEG9IozLghC7SOm5MwYRZ7V/fxdRDL5mjrA+cX0nqK0S7iOCT/gZW2YvSi1+fBC5u/xvUv/xb/2LsN7oDwki9N0Rg7rBivfudRbP2n/8BT85ci02wV5cniVGcrvv/h63j8g1dxvKOF+9a4SDepmtyPwvRM/hh2OTzBAN7fvwM3vf48lu/bCo9IH7H65PpRec4HSITnmK345ZU34q1vP4K5ZZUwiGxRkAljR8MZ3LfiFfxm4xdodvaCiQ5CvHxJZkI2GhF+XnEhiXCKNiBj0fdFW5tZ9H79rPCd7lh6AqpEuHvfRwi2n+CD0kZMh7l6CTE94+uDc+OfETVQlM4A+6J/5k5oJOqfOBHuPbQSweYD/LWhaBJMY64jyITKhUoZCXnJ02tEuAYNFxbacegaNESQyqPP4uaFxI8+i3WEmkJqP480FxVxQHLIWolpUJWjsXixghxRrpG6JshWyEnN0WcaUggWGOyj0Wlazznq0Ukey6Jv86tgA17ikUJq3ZV0NLrvxEYEO07DkFcBANDnlcNQOA6BxlrF0UgI+eHa9irSRs4EaD1AUbDOehDeA59wRzcR9U/saPTAuR0I1O+CccRsTo+cUTCNuwHevcuVdUnIR7WMceqEe2YSPBpdQ3yojEHRMY54DJ04Gt9O8vFULEo6Drr9TvS6u5BnHwYAyLblwahPQyDkVxydJh+LFV2IoD+p7wy1o9HtpkzYTcJx0S2OBnJaNf1JZVTY6Bg6CKYMilrRnp2k0P9PyQz9o9E7Gv1Yt7wNNzxaBJqmQOsoTF+ajV1fdQMsKzt+mdNj+tIsPiQcYrHypWbuGPQ4vprcxxL+U/fV+HQpkTPwo9E1JAbi/IEf+0htJ4om97MTGAtbepsQCgdh0HEvDOanF4KmaDAsk5zNUXt2B2BzyPqT+rRcz+SORi/MKAUlOpmoxdGgWsdE/QfL5mjf4UgaQ/Fo9D1rujBuVgYmzufGf7NNhzt+VIZXfnESnc1+mRypzels9uObd1rxzTutsNp1yClKQ2a+EbZMPcw2PexZep5sDgdZuHpDcPWG0NcVRE97ED2tAf473NHCxFsf0BkoXPvwMMkx6F5XGKEAy5PiJiuN7/y0GMt/04TTtZ5oVYICMGqiBaVVJj5tW10AZ/Z7lL6zis3R1gfOL6R9PUa7iOc0SXwjnAXQ7OjBL1b9Ax/u34GnFizF7BGjYdBx6wA0RSm+093hcuKdPVvwzp4tcIp2kfNjt8hWRH9mmC24ZcI0fG/WIpgNRom8MMtgZ/1pvLB1DfY11amvLUSdfHnfG8Sj0X+79HZcUTxCIo9hWRztaMbbtduw/sxRhKNvviRZ7/06Gl2b6MQHyTEAwRfg4w3u0eiW8Uslu8ADjYfgO74hcT0B4poTG/DCvWs5Mq//94hKNMwTrof36GqFXJal4Nm3AhlLfgZdZjEAIK18PgwlkxE4t1MUUax/gkejswzcW/+CzNte4AOtc5+E7+iX3KYTUn0SZQ7y0egaNGhIOTQSXIMGEVI30ZXJhbqjqpY3n042YY5tEYcgEZ7wBFXFkRav5JBKrE10LwyScIK5uBHHG2RHUrZOKUJ8Ijxt5HSYR8/nbwU7zsC17xOu1Vk2cT2hdGZpSzZ0NuFISzboQ9jZptAhmtZ7+AsEW4/CUDSB061sOtIqr4LvyBeq+idEhLMMnOt/j5wHPkD0yHfbgh/CW/tBUs46qYzx6oR7ZjQiPGVQGYNiLjqIo4kXjRQLSVFRwjjoCbjR7e7i75mNFmRbc9DqaCZOlOVjsaILEfQf6kS43ZwBa5rwaYKW3gZBI3laNf1JZVTYaHUdxKaMUCsaYoC0Q+6SJMJZCttXdWH60mwUjjQDAMxWnSiKjGyjuGPTozi8rQ9nDrgT9tUUPhYlC+OjE3qtRoRfHFDp+9F7g0GEd7raEQj5YTZyhFeefRiMeiN8QV/yNkd1ztR/m3M+iPBh6cWgxSR4b70kEWnkP69EuIakcF6IcNW+rhzzAv4wPn2pAcUVFuQUcmTfsDITvvvLUXjlF6fg7AnK5JDn9W5nGJ7jHjSc8ETCZRpHEkhzT259gKaAhd/Owewbhe8kM2EWX7/ejqaTPtzzbyXIzONemDHbdbjjJ0VY8WwzTu7ldNKn0Vhwew50euH53bO6F35vOFphGhE+lCDux4NMhFMsi72NZ/HE+69i0ehxeHzuNRhbUCxpw2A4jC+P1uKlmm9wqrNN2afFY3ekI9MUjSvLx+D7c6/B2IISxXe063u78Nft67DqSC380c+gAeo7Q9X63iAR4aNF30wHgHZ3H97cV4NVx/fD6Rd2qg+k3pMiwjUkBpUp4fkmwkHrkLn4aYkOvWv+CCYcUpGpoiegXHOiddBHNpZEEequV+oQARPwwbn5RWTe+OuI+jTsi55B1+t3yjKCqOyJEeG+w58hOPdJGArHAwAMw2cgrXwh/CfXEmQq/VLVMhLyIumaEBGuQYOGlEMjwTVc1iC+hZ2iiW7MvJKY6JIWacUYOzuDnwD7PGHsWdOtmOhOmJuJ9JzIEc6R8PZ6P07XuqIZ81Z69o3RbxxFJgkUcGqfCx2Nfognuhl5BoydJRwvG0WaWXxclOCApIQIV4E20T2/YBULHrL7JKePBQaFCNfpkD7vQVBGYXeBc9d7CDs7eF0HQoTbZt8P2pzB33PvXYGwo1VWLuGSCfjQt/6PyLnnbxHVaaRf9SN4j3wpOOTEsscnwgNntiDYtB+GkikAAH1eFUzVS+E7soogT91Zl5cxkTrhnpkEiHANiUHNbsRadBBHEy8aKRaSoqIivYphI6QvB7PBjExrNlodTZCMrsTJs2xRPYb+Q5kIlxMSbX1NUo3kadX0J5VRvpAFsg7iOpaVHBriY8An6Kj5XQQf60IS4T5PGD43I04mqwjlrtMo+jqD4I7NTPylRfmip/Cfuq/Gp9OI8IsDKn0/ei/VRDjDhNHiaESGhdulmmvLh0FnhC/oRb9sjuqcqf82Z7CJ8MKMUolsic0ZCkS4hpgYzPWBVBHhHc0+LP+fOjz220oY0jj/Zni1FY/8VwVe/bdT6OtOjAhPxFYoRu0E5eh0FObfloOr7srjd5cDHIm955tehAIs3v2vRtzzS4EIt2XpcdszRfjgd804XevB+Hl2DB9r5tP2tAWxb12fwuZoRPiFByv+Qcn7eox2Ec9p+kHI+kJBfHGkFlvOHMcvl9yC2yYJ3w1+5tN3sPr4QYSjxzgTbYwwdo/MzsePFi7DleVjkaaXLpV7gwH8fd9WvLlrMzrcfQBILzOq1c35I8LFONDagJ9/8yGa+7jPYnFJU1PvGhGeOpD8Dcl9eVXy8VJPhJurFsJYMpEPDjQfhefo2kgU9fUqop6AZM1Jn1kM65Rb+XuMpxeuHW8TyiXAtfPvsM9/ArrMEgCAqWoRDCVTEWzcK8tIXPb4RDjjdcCz+21k3PjfXK3ojLDM+h78pzcIx76T6pMoUyPCNWi4WKCR4BoubyQ42Rk0IhzKdMkS4fNvzud/d7X4sWdNN+QT1IW352PUBJsk3c6vunCq1iWd6NIUbn26RJHHe79riJDggmucW5yGm58qilleoaDJTFBVHGnios3gTHQ1JIKI0x3DCQZIznXE8QbZkZStU0rzIxDhaaWTYJmwjL8OdTfAue1dpSPcDyJcZ8+Bfc5DQljQB+eWVxDdlajmCHsOfo6MrrPQ54wEABhHTEfayDnwn6lReTlApKfKxIJlAQS9cG36I7Lueg2gaIDWwbbwn+E/sQZsyE+Qp65jtIypJMI1xIe8Tc4XEd7QVceHmY1W5NsLcAwH+bSkibJ8LFZ0IYL+Q5UIL8gQ7FqICaHN0QRIJSrTqulPKqN8IQtKHeR1rE1wk8flQoQryy1/9rgFW3Wwkb9UkkQ4QFwI5aPLnleQFkKlHTwxOf0jwjXDEx/Kcef8EOGNXedQXcidiJObPgwWoxVOnwOKHpGozVF7dgdgcwaTCC/IFGyOy98Hh7dXmssFJ8I1xEQyY35/5prx7BRI/pXS3p3Y58AHfziHO/55BPQG7l7ZGCse+20l3v71WbSe88qemfNHhOuNFK5/pACzv5Uj6b9Htzux6pVWhAIMAAqNx71451cNuOeXpcgaxhHh9iw9vvOzYnzypxYsfShPSM8C69/thN/DyHOVPYvqNkdbHxhEsMr6PV9EOCgKfT4vjre3SFQ63NKAUDgEULH7dIbJjPunL8D90+fDnmaWyAgxYWytO4nfrl2Jsz2dEBY5EvPhhDvniQgXobmvF82OHsGmDUK9R7OlpAKFONqjkwBEZLaKsT4fRDilMyLz6qdA6Y18po4NL4HxOEQy+0+Ep1/1FCiD8Hy59/wDYWc7r5Fcf0AgyjOW/ozX0T7/CXQtfxSK9WFJ2eMT4d79K2Cd9Qj0eZUAgLTKRTCOmIPAmc0qMtX1HAwiXIMGDakHHT+KBg2XOCIOuyJYNtlhxUZUHhZDTsw0KulIEy02ahwThvrbqKraqL++qnaRgBaiNJIiiH6xsmuCPrGmFOpy+tdmqu2ogQNfPRHXMkZ1KboUy6VTJGNlP4kyKak8Wof0OQ+ATrPyKZ07liPsaCHIpFT1VOv2thn3QJcuHCnmOfAZgi2HSSpL8wr60Lfuj6JACumLfwLQenJecj0VwgU9fSfWINi0nw/TF02CsWJRDHnkcEEmeUlUdexgRTqqyNSgAhayMTB6TWoY2YioHMq4a1YURxEWvSPdCQ4AhZml4oFWKoHUf1hWfktVf1LfUdpT8Y/Y6VlCoDyZclyXCizKHM5fBkJ+tPU1y0SSbFQM/YlNxpLrTpRAXsfa45ME+DpL3l+S9w+iHELjJ+QvkHzFpHw+kq8mBOgNFDJy9dAZpWO13kAhI7JzTh2s7FlR9/lUHgfJHbmPxV8p5Eg7eGJyYreZ5pf1A/JxRqXvR++pt50omqzt1MbC5p56/poChcLMkoHbHNUxgKBDgjaHrL/0BlnP2DanUGRzul0d8PhdSpsTww5oNmcIIJkxPxJfERZLjsqYR+soDK+2wZhGJ2Tvdn7diVV/a0QoKNwrrrDg+8+OxuSF2aBpKo7NEfWVOLZCUXIVOTmFRtz/f8sw5yYpAX7moBsfPt8En4eRjAJNJ3145z8b0NMmHC1tsetw9y9KYM8S9uycO+rFwU19MW0Oyapp6wPnF/L6lfb1GO0ijkPyH+TtK44Tb9GLJffpNL0B146ZhA/u/yf8YN4SCQHOsCyOt7fgmZXv4vEPXsWZ7nawLCMrSpz1Nlaqm1rf01E0hmfm4PrqSbht/DRcUzkeBfYM4fUVhU1I0kdiB7/e5fZbIUeDOlgAYkpXpcrI62qytLL06jKFFyGiMI2aCdPIGfx1oPUY3AdEJw7yotTXq4h6AtBlFMM6/S7+mvE60LfhJZLKigvXzncQ6m0U9By7DMaSKYmvqxF0ZVmAcXXAs+stXmHKYIZlxkMALdsrqupryWUmv64m0VMuTyWZBg0a+g9tJ7gGDQDnz6XwjW+l+GR3BynzjqaLXxTlG99qZVbRhhhV+hYbi2TMMlddkUpj0e8d4WS58eSkZhe/Bhn4+oy9IxwgNCELpGJHuDG/ArapN/F3wu5u9G1/N4bMxHeE62y5sM24W3ibOeiFa9sbYMMhxVuapLw8B1ci/cqnoM8rBwCkjZyFtLLp8J/dRu7Scj2jk0xZPMbbB8+uN5BRNBGgdaD0abDOfgz+UxuAkFdFnvpbq1zZU7cjXEMMCMOybOeYyhgkHysHsCO8va8V/qAPaQYTAKAoa7jsGZOM0uT+Q9wNRNZ/ILvzSOm5KNJAeTK13Xk6Wo8cm3BiSigcQJernZAPyUbF0J9URoWtF7ezrP6E7DQkCr7OLocd4RzySkz4pxeq0NMWQG97EAEfA6OJQmaeETlFacoqUvTLSO6ijhd/RzgF6X/qPhafLiVykt8RriEOpM2g2vejcVO1I7yh+5zkuiirDLXndioUSdrmqI4B/bc55LGc1KflepJtjtloRbopk5fl8PbAF/QQ8lK360T9NZtz/pHMmC9ryP7sCLdn67Hs/lLMXJqLla80YNNHrXHtHcOw2PBhK/w+Bjc9UYo0Ex2RZcC9Px+JnV/b8fWbzXB0BWPYHNHzGMdWKEZtkRy9kcKkhZm45r58ZBcYJWU9tsOJFc81wdUbItqK5lMcEX7fv5fyR6OLEfAxWP1GB4LB6G5JdZszmDvCNcSBfIwWX5+PHeExdWP5Y89pisKEwuF4Yt41uLJ8DHS0dG9Yl8eFN3dtwvu129Hj5cZviv8j6imRh0bNhxPnLfRXad3Y0kx4bOZVuG38dKSbBBK+zdWHt/fWYHntNgSZMMEmxNgRHk+HVNd7nB3hGhIAi8gYe2F2hNMGIzIWPALKGOmDLAPn9r8j7O5RkZncjnD73IdFG1cAT+0nCPU0kPWUXYR7m+HZ+wHSF/0IAECb7LDO/C4CjbVgWSaxdTVC+VkW8Na+D+ucx4Tj1sdcC33hRISaYh23TtaTk5naHeEaNGhILTQSXMNljX4vbsaZNJHcvbiLooSwRIjw956tw9lDLgAUwiGWIIfFu7+pg9FEiwwvBa8zLPGIojtlf/fwsUgUQUJfVxDyiW79MQ+e/d4JIJpTJPyR345EerZyaOnfBFXpSMuFahPdCwi5052M0xZx9KM9WtVhJ8rkiPD0BQ+DNtn5UNfO9xHqbpCLUTrCCRDhlok3wpBfyd/zndwE/7ldCnlqeTHuHrh2vInMG37FaWwwwzbvcfjP7QSY8ICIcM/+j2Gd+yT0+VUAAGP5AuT901YgHIQC0cmDowl9K59BuOsMUWZKiHAN/5+9746TpCj7//ak3dmZnc23u7e7d3s5Hxe5HAhHUoKAigioICqK/hQM72t4Da+++r7Kq68oiApKODICIh4CB5dzznFvb3PenZynf3/MTE93dVVP2Nl49eXDbXd11VNPVz9Vz1P1ne5KHYqxC+wxSGvRQZ5NvnihWtAAelxdcAdcEgleGZvokQueslGaMXkWKYugdP2HCxGeY8hFiSVBgtu9vfDMSjZwAAAgAElEQVQEXIx6aD5KQ3/aPap8vfw5E+3HJ7opQfUmt5B6vDQSifB4LAdE7augxIiCEiMwM0k7RUSFHGVbgBPhlyqUj4Fp+/G82SDCm3rqFWIrC6so416GPoc5BmTuc7JJhBdbypAb87UA0OVqQ1AWnw0HIpxDGwO1PqBFhBdX5OArv5yBitooAXHj52tQd9SJxrPupP4uHBKx460OuPqCuOPhWuTZovNwg1HA8o+WYdpCGza90o6973ZLnxJX+wpZf0ziK1Sjtihg4lwL1t1djgmzLdAbElcjYRH73u3FP//cDp9LuS8zUStazvmw/j9je4SPURLhx7c70XDCIyvDlqOKnRk+h68PDBDIMVp+PsBEuOqVS1FUDpwxIjzPlIMfXncr5lSOU2QPRyLYcOoQfrftPdT3dEKU1gxUzilhKbFOw3zxRK4LQYQbdHp8c/X1uHX2YuiIwb3casM3Vl4Lk16PP+/dHBORnAhXVauwaZkOWWz3ZEQ4R4oQgaEiwk1jZyNv1jopNdTbDOfuF0kxhMzUiHB9QSUsiz8pZYr4HHDueBIQI2w9CaXde9bDevnd0FlLAQB5c26Ga+vjCLafTn1djXL/IXsrPPueQ/7V/xZtDZMVxfe8CFGxjY2sqQCI4RA8238P74H1VJmcCOfgGL7gn0PnuOSR0ueviIA66We0tOpilREpaZS6SfS2B9Ba70VbvRedTT6qnJ42P9rqfbL/vbB3B2OTBaU27Rd90f/rvWi76EPbRR+88UkrEp98CvgiUt62iz6010ePIyFCX5n+ovJGQV5JZKdcYbVDynKSPDPGs+dIAqnJtD+NTn18YrScqhjZLShl9fljYFtyZyJf0A/75j+py1JlCpp66nJtyF/+GUCIukgxHIBzx9MQQwGGcFpdItz7X0JIvhfzjHXIGbdIUZdaAUJPSl0Rbx/c+56VBAh6Iwylk2Eon6H+f0z0/5wpVyNv6ReZ+kf1oUfbzCFIlOnIkQLURkPaDXUMIsc49VAWPZeN5WRar6cb3oBHSi+xjkFubE8u0g9QTok0kbzE1J9mO4P9aXSTMVfxJnhLX4NG28mEkc+HpT/1kZG+Xl2A1sYcbGQaL2UUd1EefsaxolacqJITjbG2vNYJtz3EHnsJRCIiOhr92P1Oj0KOoqL4v0TMJ1Oelpv4w46xEvL7L4fIwmO1DMEY1ohzLZ9De3aybMSzk9tcC7EFR1XReGr9Gfsc5hgAFQb70+gl1jHIMSTe5muWfRqeXhfbr1P15z5nUDAg6wMsORDR1xlAX2dinpFr0eOe702GtcColkOpOxIRcWhzD37/8Gk0n/codCipzMGtD9bg4T/MwBWfLIe1wCCRXf3xFUaTDtMW5+Pen9bi/p9PxOR5VgUBDgD73+vDm79vgdcVSsnnNJ3x4rmfNqGvQ/nD3qmLrJgwN48ow5aj7BJsn8PXB7IIUdlu0T+kHxEVtqUsShuPyfGR8XxZfoqqmwin34cXD+xEJD4+iiKOtTbi8y/9Cd/6+/Oo62qXrsU7hJg4lKSr/AmhgEGnQ47eiBxD7H+9QTo2GQxYUjNRRYBHZLrqdTp8duEqTC4pl6mvMRYwTFVp0wPU7lRfyftO2hABJChb9jNlGnsGn0YX9ChY83kIsh/wOXc9j7CrmyaGkElfr5JntS78OAwFY6U076kPEGg5wdCfXlew8zzcB1+RknWWYliX3ZdYr6MGUBQ9Kbq6dz0J0Z/4gbzeVqm5rmasnAPbTY8AOj1TZlY+jc67DwdH1sHfBOfgQDQwzPovvrXqSvfNJMobTsnuQS0nu7/4ZsqhKif285faVKpUfqNZ/cU3R3IobEI60X4jnP0rzegvUOkyQdhoFEXrvgYhJ7EY4ty1HsHui/SyVJnsN8LNs6+Hqfoy6dxfvw/eE++pf9VJ6ETWFXa0w73/RRSs+w4gCBBMFliWfhb+hn1AJJykTWR6xieZsnye3X+FddkXoS+qUd8AA0KOhdkeUlJ/3wjn0AT9bVDlMxmIN8K9AQ+6XZ2oKoq+8VCYVwRrTj58QS+k3DI/IBul6f2J6hvo+vfn7Txa+WgWZSJZTN7O+Tk22MyJT9PG90dnt53sKvl8WPrT7lHl6+XPmdF+HHRICwOZxUsj7Y3wo9v7cPaQE9MX52PyvHyMn26BtcgIY44AQRAgRkQEAxE4e0O4cNSNU3scqDvqRij+mdh4TapYLe77oBnzJZol0Q8Sf9gxllSun3Lii7XJ3gjnxERy0G1dObYPxBvhfe4eOH0O5OfaAEDyPbJqVQdp+xzmGJC5z6GP5TSbJvVM6FCWXwGTIbFVQVtfI3WsV/mcwXwjnCMlDOYb4eFwBM//8jy+/ugsFJdH7adyghl3f3cS/vqTc1ESOYWt0xrPuvHo107h2s+MxdKPlMFsiS7SCzoBZdW5uOmL1bjuM2NxYpcdJ/fYUXfUBVdfGAFvWEaI0dcHjCYd8vL1GDMuBzOXFmDmMhtKKdtyyDFnlQ2n9jhwfIcDopiaz2k+48WzP2nEXT+oQVF59EcAlgI97vxeFZ7/WTPOHxqaN8I5tCGCsElyjJafD9Qb4Qy9SDuBKOLN4/tx/cx5mFpWice3vYdXj+yBLxRU2Gf88+nyDkHrG1IeIi75j3Ufw3+s+1jKbfj3Ewew6fxJfPKypVgyLrqlmi3XjJW1U3Guuz1xTyqfoLFWSPOV8j6TjXaP56H6St53kkHlm0VgMN8IN1VOg3XRbZKYsLsHfZueYJdVpbPfYNbnlyN/+eckRSN+FxybHoMYDidZAyPrEuHa/hQsiz8NXSy2zJt/O5ybH41+Vp3WHiw9ifSwsx2unX9C/tpvIFUIJovU22ltEtWnn2+Ec3BwZB2cBOe4tJHmBDXViW7yapMsyEJd/0ghwtnK9XeCSk4rBm6iy5Ea6IFwciIcoAXsAuK9hxmwx84NBRWwLrpVKh7xu2Hf8qRykpVqwE4Q4YIhB7aVn1co7Nj8B4iRUOw0PSLcvfs5WJd+FnpbBQDAPPtGmLY8hkDLUUWbpEuER3wO9L72VeSv+ToEg3rvvDhMtcsQ/4UsS0fyOWVKhHMkgTTnGhoivLnnIubWLAQAFMRI8C5nB7WPEaMrY/JM8w10/YeSCC+3VSnqbe1rZOo+VEQ4RwqgxTTUOIceL400ItznDuPw5j4c3hz9HJ/ZaoClwAC9TkA4LMLtCMHnjqjtUiDuQPVp9FjtSWK+RLMk+kHiDzvGksplRU7yWJkjOYaCCA9Hwmjta0J+RfQb/lVF4xh+RHmQts9hjgGZ+5z+EuFynxMRI2hzNENBpqjaTlbLIBHhHEmgMUccSCK8q9WHV35Tj8/+YDJy8qLk9czLC3HrV8bj1Ufr4feEU1of8LhDePPxRhze2otr7hqLqQtsMBgTeUy5OsxbW4R5a4sQCkTQ0ehHd5sfnU1+OLqDcNtD0hhrytXBVmJEydgclFTkoKw6B9Yi+hKiKALdLX7kmPXIj22NlmvR4/aHqgE04dh2B9kSTJ8T3yP8nh/VoKDUKMn65Heq8PL/NOPcwcEnwjlSw5AS4SydoLYTXyCAH77zKkLhMFrsvdGMKh+TJhHeD7gDfvz8w7fg9PvQ4uzDUx+/H3lGEwBgQnGZ+p5GCBHOkRpUfl8EBosIL1z7BQj6xHqSY9vTiHhknwOnlVWl04lwy5yPwFAyXjr3n98Bf8OBmO6UNSeNuoKdZ+E5/AasS+4BAOgsJbAuvw99b/+I3R4sPYl015ZHobeWQV8ygdmX9SUTobdVqtJZbcK8R5aesvIiUwsODo7+gJPgHJc0ki2wZT7RpdRDytGqm1FOFEWVcJEINoaaCCdBW4Ahak15gkrDgEx0OVIGPehLvkc4K9CPWTQ7YBcB2/K7YbAlPgvmPvw2Au1nNSvRDNhlRLh5+hXIGb9QEhFoPQHv8XeUYtMgwkO9TXDvfxm2K74GANDl5sOy7HMI/O1hyEn7TIhw/9kP4D/7AQBGEA2g8qedEOJvJLFUpjynjAJ23n9SxlAQ4fJPsuaZLCiylqC+6zy1j8lnxuREWXE4AojwsYXK/f5a7I0Kgey2k2lEPh+W/rR7VPl6tU/ki0TaEOUHZExDjXPUzyaadWQR4fIYy+sKwesKAfEcCt+gqDgFIlzd1zkRProx2ER4nASfGiPBiywlMOdY4PW7KX5EeZC2z2GOAZn7nP4Q4XKf4/G7YPf2SgoNFyKcQxsDtz6QXM7RHT3Y8HQTbrx/HPQGAYIOWHp9KQK+MF5/rAGhUCQlfxcRRVw46sKTPziLyfNsWHNbOaYttKk+V24w6TB2khljJ5nRH3Q1+7H9zS4c3mxHSWUO7vr+OIm8Nlv1+MQ3axCJNOLEznSJ8CZ8+nuJPcItBXrc/s2xePWRFpw7MMhEOEfKGDoiXKWJ4oi0k4vdnYCgtkVy3EyVCO/PS8+5BiMmFY/B4dYGTCurhEmfWKp3+r30uJZChCvvXpSfUGJoWZ/pV7sTeTgRnjrUj4hIGFgi3Fg2CdYFt0hFw+5eOLY/oyGTjCvk6cr1Kl2OFbY1X0zYQjgA+6bHpC8iRnVPjwh3fvhbWBbfCUEX7R+WpffCsfF/EfE52O3B0lOWHnF3ofeVLwNgh0kFN/0SluX07QVZbcK8R5aelPIcHBzZAyfBOS55DNREl6iELidJ3dRFnQzuQS1nIIlwqnZJJ7qpTlBp4BPdIUDSQDgJEU5d3QOSEeF6Wznyl94h2VDE74Z985MQw9FgOr3PKsUPE0R4wRVfUQhxbP4DxLByXzqAEsySwa7s1Ln1CeSv+qJERlsW3AHHxv9FuK+JkJliwE5pu5TXNVNoD+Y9JquLz3KTQ2u8IRdxGH5Dc9FBnk2+eAEBTT0NCt9VUVgNEbsp4yBGFRE+RrYHGRDdE5wUyG47mUbk82HpT7tHlY9WLq7xvpMc1MXTZPHSCCfC19w+BjpdNH9rnRen9yXIg0VXFyM/9jaeozuEgx/0yitOQoSnHvMRuaH8ox2rkf0zcznJfzTKwQDL5ygfA9P243nTJcIjYgQtxF7YlQVVON9xmj4W9tfnMMeAzH1OpkR4uS3hc9wBF+yeHkUjDQsinCMphooIj0REbHypBSWVuVh5czkEARB0AlbdUo5ciwHr//s8IhExZX8XCgCn9tpx7pADFbVmLL6mFAuvLEZ+kZE+P0sDoYCIswec2PtuD84edMHnis7FnD1BPP2ji7jvvybAYou+0Z6Tp8Mnv1WNl/6nCSd2pU6EN52O7hF+9w+qUVAWJcLziwz4+DfH4qX/bkHdYU6ED1cMBRGu0kFZmGonqnG5H0Q4ie0XzuB0ZysxRidOppSWY+WEaQCi+38/fuvn0OzoxYSiUhh00S+5hSMRHGy+qG5TWjtTkDTOHQQinCMJaLGO4trAEeEFq++FzmyTijn3voJgT1MSmWRcIU9PrFeZZ10LY/lUqbi/4RB8Z7dSdE+dCA921sF79B/IuyxK3OvMBbAsuw/OD3+t3R4sPVU3wyjLQgptwrxHrbp4qMbBMSDgJDgHBwZgokuvJDMiHPRy6d6DenFooIhwpnZJJ7rJJ6ik2IGZ6HKkiKRBX/Y/jW5ddCuMpbVSdu+pTfA3HIydCbF+ma6e0UA4b/qVyJmwVCoWbDsN98E3mMFpqkR4uK8Zrh1PIX/1A1EtcyzIv+Ib6Hv9YWqbjGginEMTyvFVNTISY1f8PDtEeLu9BeFIGIbYmwU1xbVKHUi7UCzqjEwiXBAE1BRPlNIjYgTt9mbC7um6DyoRzpEEYuzfS4sI/+j9VdInbHf9sytGgkczrb6tDNVT8gAA9SfcOPBBL9H3UiHCYz4lScyXaJZEP0j8YcdYUrkBIsI5kkPT5ygfA9P243nTJcJbYns0AtGxuLp4PM53nGaPhf31OcwxIHOfky4RbjXbUGQplfK6/U44vH0qnzPkRDhHShgqIjwcFvHSr+tgtuqx6OqoPen0ApZcVwpTjg4v/m8d3PbU9giP30MoKKLprAdNZxvw5uONGD/Diinz8jFhjhVVk8ww5ehhMAnQGwTo9ErbCodEhIIRBP0i+joDuHjSjXMHXTh/yAVvjPiOG2C8ZONpN5787gV85ofjJfI616LHHd+pwSuPNOHYdjvS2SP86R814u4f1KCoIirLWmjAp79fjRf+q2nQPo3OkQwi9c3kwSTCKSppjNmygTNrRLgS75w+jFeP7KXMmaPxWEmeFevv/DJqCksAAPk5uZhepvzc8u7G89h64Qy9TTXSFG0g0Hz/IBHhHKmBFusormWfCDeW1iJ/cWIv8IinD45tTwNiJFZQzJwI1+lRdN23Fcr1vfsriJEIAFpcliIRLkbg2PhrmGdeC8EY/YJJ/sovwL33OURcndrtQdMzPnAQbTosiHAODo6sg5PgHJc4iAlPtia6GtWlTYRrlFOLH2ZEuAhZE/efCKffdPYnuhxpIGnQl8Kn0anBdSzwlhXTW4pRuPreRLaAF30bH4co+6QSkBkRLugMsK26D0L802OiCMe2PyPid9F1lHRPjQh37XgK1iX3QMixAAAs82+DY+MjiDhakreHSn9OhI9kkIslg0WEt9mbEY6EJBK8srA6ZkmyN4pIu5CN37LRlTEppfkGuv6DRoRDULyV1+1sRzAUoLQxXXdOhA8/XEpEeIYtI6941O8RzpEcmj5H+RiYth/Pmw4R3tRDvAleWCMTNTqJcKspH9bcxBtVHY7oj88Atc/hRPhwBjFPHKI3wp//5XnoDQLmrSmRnu38K4phKzHixV/VofWiNyN/F4mIqD/uQv3x6BzHYBRQOMYEW7EJZqseplxd4v4jIjzOMFx9Idi7gtG3vSXx2usDjafdeO5nDbjz32tQVB7d2zgnT4fbH6oCgLSI8Nbz0T3C7/5hjfRp9FyLDnf8WxVe/MXg7BHOkRqGHREel5gBEW4yGDCnchy63A409HYr88h8hXRIVYARe4kCuj0ufOftF/Hja2/D5NJy5RggitjTWId/3/AyfKFA9Jqk6sghwtmLeBwq0GIdxbVsEuECClbeA31+Yr9514E3EWg7IyssIGqrLJmEGrKTvNnXwThmilTE33gIvtOb2HoCKRPhwdYT8J56H3lzbgQA6G0VyJv/cTi3PK4qz4lwDg4OOXRDrQAHx9BDlB2JithVVJ5QF9yoe++ofHcKcrTqVqRpB5LJ7kEtWyRiUzHxryjLo8giy8OUg4S2SeQQtUJ5C2r9VadpyhGJSYooy8+RAViPSDoRCDtIVWZiogoAljnXwTgm8Vant243vHW7KYUZe3Jp6JlTuxC5U1ZLScGuOrgPv6UszppYk99fo9hpsKsOnsNvSGk6cyHyl9+nLqtVl0J/QZWWTE9tefT0hMw09ORICrI/qMZ70o0w/IZqjGMMZaIIdDhaEQwHpLQxtkoY9Ea2Dio9iXGfZj9U30DXn2Y7an9KVYRaXqQkChBQWVAtnbfamxTjfXK/RopklGXpT31kpI/mSA1sn508zlE/GylPWvFSP2K8JLEibQxQy1CnaWgiFUoWq0nVZRCrqdKk7JS+nAU5YCRxaEPT55B+g2H78WvsZyfLJgKtfY0Kux9bVKPMwxoL++tzmGOA6m5S9jnsPqO0aWtuAfJzC6S01r5GRQGyX9H9CFELo42p+nOfk0UQPkej/6Q85ivFJpXj84Tx3C/OY/vf2xGJJK5NmpuPL/3PdMxfU6yWQ6k72T2EgiK6WvyoO+bEiV12HNrUi0ObenBoUy+ObO3DuUNOtNV74XWFU/IV8rT64y688ItG2DsTW0vlWvS4/aEqzFwa/8FIaj6n5bwPz/20CX0yWeZ8PT7+zbGYsiCPKMOWo2wKts/h6wOZQz02acRX8nPKgK96LvI8jPghjvuXX4Vya0HiqsomlGnycXlGeRV+fcvdeObTD+BH190Ofezz5IqxW6Yb00xiedTdMpp2uLUB9738J/zHv17Dm8f3Y+O543jh0E489NZ6fPWNZ9DtccVzK/swIdCak4vPLlyJXKNRXoXiOGmcK/aj3cl+xftNZtDy1yKABGXLbGOVrUnnibKGwgpYF94qZYn4nLBvewaIvamdQOKHECnpKQKC3oiCK2VbDIoidYtBelxGY/aVh2I4CNf2JyEGvTEVdbAu+Qz01lJq+ZTX1VQ3wyjLgkabKGXydTUOjqECJ8E5LmmIlAgiGxNdal2pyElSN1VuVhZ2s0eEU3VMQQ5RK3OCSpWdgRw+0c0c1CZKGvRpE+Hs4DQaJArGXBRd81XF5d73Ho1+UokqMw0iXNAhf9k90MXe0gYA167nEXa0p6YnKMEsGexGwnBu/zMifmesTgF5Cz8JfUHloBLhWnpqBevUsknq4qCBGI1Y43TsGvlM+kOEB0NBdDjapPMyWwWMehMhKlaetAvCV9Im3+RYTJu4DzYRnm8ugNmU6NdtjmZEiIW45H6NrIfmWzT0pz4yRmEOKpixmixpVBLhNG1ZWVgxVrRi9R2obFrMOFZTpUnZKX25n3LE2H+8/6QC5WCu6XNIv8Gw/fg19rNLwOmLfgo8jqqi8RRRZB+gH6Ttc5hjgEqFrBLhxZYyhV9ttTdSxgalQnQ/QtTCaGOq/tzn9BsDtT6QCRHudYfw6u/q8c4zzYiEE9dKKnLwme9Pxu1frUWe1TBA/i476wMXjrnwzE8uwm0PSWm5Fj0+8a1qzFiSHhHefMaL9T9tgqM7IctaZMCt3xiLsZNyyNvR9DnklUR24rmTN8SREoaCCA+LSgLvzoUr8Oq938AtcxZDL+gYcYgyzWrKwbeuvBHPfPrLuGbaXJj0BiwdPwXrps2R3wzVVzDNJJaHRYR3e1z429G9+O6Gl/G1N5/FTze+iffOHoM3GFD3Wfm5GF0NuLxmEp742Gfx/1ZcC6NOr6xBNe9J0u85ET7ooJhFkmv9J8Lzl3wSxpLEjxM9Jz6Ar+kIQ2Z6RHjupBXIqZkvnQdaT8Bz7F+p6QmkRIT7z++Av26nlGYsnwrz7I8yyw8EEZ6KnmyZfF2Ng2MowElwjkseA06EC0BhmQl6g5CanKR10+5h+Ex01RqmLofInbhfAcjN08FsVQb1qhr5RHdwIAr0Jkoa9CUnwunBtQDr/BthqpgqJfvq9sBzcnMiC1VmakS4qWo2LPNulNJCfS1w7n0x9UmFlK5NhAeaj8B38n3p3FBUA8uCT9LLatVFC9ipE4j09dQK1qllk9TFkYAI2pgDov3JGZL6mfSHCJfv0VqWXw6j3kQhktWFyfGbckqk0XwDXf+BJMKrimoV11r7GhDVQMOvciJ8WGK0EuF6owBLvgEWmwGWAgPyCvSwFESP6VAvour1AvJshoQcmx55NgPybPrE3q5JiXDZHWQQq6nSpOyUvpwVObzzJAO9zyhOGbZOnmv5HNqzi8IX8KDb1SWdjy2qTmksVKudoc9hjgEUHbJEhMuJ/ogYRru9Wa0DxefQ/QhRC8OvU/XnPqffGE5EeMAXxttPNeKZ/zoHrytB/hpMOqy9vQLfemI25q8tgd6o/jyySp+0/V3/1wd0egGmXAF+r5KgjO4RXo1Zy23Sp5ZT8TlNp7145VfNcNsT22HZSgz46AMVMOUKRBm2HGVTsH0OXx9IDSmNrQNMhG88cxTNfT2KR1VVWIxf3XIXnr7ry5hZUR39ZDiFCM81GPDRWQvw9v3fxheWXYlCc+LrAgadDvctuQI5Bvlb1nQiXNUGRB4WEU65MfZ4IUZpyTFWG3567e144tbPYk5FDXSy7yn3ej345+nDMZEaYwyt33MifHBBW1ujxTqKhMyJcF1eIQrXyLYYDPnR+96jQCSiITM1IlzQG1Fw1VcgGHMkJRzbnkLEa09dTyApwRwJB+Dc9sfE2+WCDtbl90EX25KGE+EcHBw08D3BOTgQdTTSPjfZ2ANMlqzTCfjJC4tw9rAdR7b14NS+PnS1+KO/5mbJSVI3/R6yseeliOzsES4vn54ceW5roQFjJ5sxa3k+pi22oqDMqBSveF7Z2wOML66mAFGI2S6ZjiT74aS/R7igN6Ho6i/LMkTQ+/5jsYwy8VSZSfYIF3SwrbgHuhyrdMG5az1Cfa0AhNj+Ycl1TKSz9wgXI2E4tjwO84xrpL3Brcs+C/e+FxB2tqvLatWlaGf2HuEsaOoJ2nPTKCvTkyM51GMOBm2P8BbZp1lzjWYUWUrQ5+lR2ZikA2kXsvFbNrrS7YflGyj602w8G3uEyz+FDkT3RVfdo6rt2Lor66H5Fg39afcY99EcSRBbXmPFajJbTR7nZCteUpehldOKFU25Otz5nYmYv6YIgi4dO1AOtjXT8vCfr89R5QqHRXz4Ygfe+UtrvOJRtUc4R3LQ+4yGz1E+Bqbtx/Nq7RHuC/rQ6+4CEN0T0mYuhCUnH26/M/W9q/vrc5hjQOY+hz6WR226QuZzQuEQulwdynvU8DmDukc4R0rI+voAiDIa/VAdJ4nY824nOhp9uOPhiaiZapGeb1l1Lu790RSc2tuHDc80o+GEG+GwSK07lXtQ95nM1gd0BgHVk/Ow+rYyzF1dkPhRlgy5Fj0+8c1qvPq/zWntEX7uoBsv/ncTPvntKlgLo0ua42eaMXWxFce2OmTPSzk+kHJUsTPD5/D1gdSQyl7VA7lH+MWeLtz8p1/ia2uux8cuuxz5ObkAAJ0gYPmEqXj5s1/Hs3u34M+7PkSP2wkIAgRBwPyqWnx9zfVYPmGqSn9/KIQPzh7Hb7dsgC8UJdyoYzfTPGQ2Hes0rD3CpTSFvarHizyTCTfNXIAvLFmLMotNLgiBcAhbL5zGozvex4XeTma7D94e4Rwpgba2Rot1FNcy2yPcdvknYCiqkpK8p7fCV39QIwaLQ0DUVtUy4/lMtYtgnrRMuhTsOAvXwTeQbL2KHpdp7xHuPfk+Ahf3IWditD5T1RyYZ90A9/4XmeVTXlej3D+ri6e6lzlVJl9X4+AYVARoBIkAACAASURBVHASnOMSByOY6+dEN+hX/tLZlKvDrCVFmLWkCB5nCBdOOHFkaw9OH7Cjo8kbDUpJOVp1s+5mGBDhbH+dmpw8mwE1082YvcKGiXMtKK4wQaB8syIUECkT1OxMdDlSxAAS4XJYL7sepqqZ0rmv/gA8xzfS66LKZBPhxrJaWBfeLiVFPHY4d62XZckuEe6/uA++c1thnnUdAMBQUgvznI/AteMpelmtumgBexpmPBBEOEc6IMYu1mJoLEM2iPDmngZF9vGlE3Gh82w0N2Fjo4EIryxU7kHbbm8m9BweRDhHKojZGytWIxdPNeOcbMVL6jK0cqxYsWiMKS0CPJU4UA69XsCKm0rx7jNtic/opkSEq/s6J8JHLoaKCA+GA2h3tEpZc41mlBdUoq7DqU3QqvyI8iBtn8McAzL3ObSygqBDRUFiUTkUCaLL2ZGWzxksIpwjGWjPmvA5Q0CEA0D9SSd+/82TuOausVh1cwVMudFJsiAAMy4vxKS5NpzY3Yftb3Xg3GEnQoHIoK8P6HUCaqbnYeUtpZi5rAA5ZuVEPhSMrpXEv/AW3yNcFIFj2+2kNkyfc+6AG//4Qzvu+LdEv1u4rgBHtzj4+sAQYqiJ8C63Ez/e8CreOrYf31h7A5bJiO08kwlfXHE1rpo2G7/dvAHHWhvxmcvX4uPzlyLPSGwRJYo41taEx7a9hw/PHUc4vleyysdoEOFi4iBbRPjimgn4yvJ1mF81HnpikayupwO/37kRH54/iVAkHFOX3e6DQYRzj5MeaHNmVayjuJYeES6YzIqXS8RIGD0b/pddl0qmgKitEvGFCAgGIwpW3w/BlBcXDufuFxFx98ayZJcIFyMhODb9DmUTE6R7/qovwnPoNekN8WwT4SwMBBHOwcGRfXASnOOSBn2BLXElepT+RHf7P9owdUEBqiZaVA42L9+AWUuKMPPyIngcITSdc+PApi4c29mL3vYAoZ+67mSh5FAT4Wp9kFSOwaTDlAVWzFoeJb4Lxhihp/xaPA6fO4JNL3XJ5POJ7pBhgIjw+OMTDCYUrP4cBJ1ButC3+SmEAx5qIEmsU8pAJ8Jty+6Czpz4BbVr/98Q6m6IF4nJzCIRLkbg2PIYcmdcLd1T/qoH4DnwCiI+J72sVl20gD0NM+ZE+NAgbVIilqG/RHh91zlF1tXT12HTyXegHAflokYuEa4TdJhbvUi6FgwH0eZo0W5nVRvTdc82Ec6RKmL2xorVyMVTzTgnW/GSugytHK2vel1hOHpDKCghv3KjRmeTTyGns8mP6il5Sct1t/oRiZCLMsmI8PRiPjLGSvzRjrGi8vsvhyM5hooIv9h5XsqWZ7Jg8cTlqOs4Q+gkFzVyifD83AJMLJsmnXv8bvS4OwkhyX3OYBDhHNqgjzuJK9GjoSPCnX0BvPF4A45u78XtX61F9RSLdM2Uq8O8NcWYtawQzec82PNOFw5v7YGjJzjg6wN5+XrMWl6ARdeUYNz0PImgl6OzyY8NT7XC1RvG3f8xHvlF0blQ/I3wSFjEiV0OUhumzzm+3YHu1jKUVEYJzJrpZll2YrzTkKOKnbnP6ReGmggPI4K9Defx+ReewO3zluKra65DmTUx359cWoFf3XI3XH4fivKsqqdr93rw+23v4m9H9qDP6wEEtS0qfUx07Fa1g0Lt/hHhRXkWPLD0Snxs9iKYCcLeE/Dj+UM7sf7QTnR7XGm1+0AT4RxpQBSidgH1nFkV6yiupU6E5y+4GcbixFdrvGd3wFt/QLsulUwBUVtVxhfGMVNgmX2NdB52dcG58zlCZnaJcO/JdxFoPQ5T5SwAgKl6HnJnrIP32D81y3MinIPj0gQnwTkueQzERLfxrAs/v+8gaqZasWBtKRasLUXRmBzoDYk8ggBYCgyYtrAAUxcUIOALo/6kCwc3dePI1h44eoOIhEVV3TT9B2ZhN8NFUYqGpJz4Z0BrZ+VhzqoCzFhig6VAT/1MGgCIEcDvjeD8ITeObnXg3EEXvM7E2/bZn+hypIUBJMItM9bCPOlyKc3ffByuo//SkAnCRuVQEuH6/DGwrfxcor6gD32bHmfonz0i3HduK/zntiF36loA0QmDec5NcO9dzy6rVVcaEwsaOBE+NBgKIvxo40E4vH2wmQsBANfN/RhONB/GG/teQCgSIvQidGD2McKLUifPlAUjhv7ZIMJNBhPuWv5lXDYuMXbUdZyCw9MLWjFOhA9/kB5+NBDh9u4A/vrjc7j7uxNRXJGj0CHoj2DXhi647SH0dQZwYGOPQs5rv21A42k3cvL0KCwzYeFVRTCYlIRD01kPnvnPekT3giRGiVFBhHPfkw6Gggjfd2En/CEfcgy5EAQBn1v9VTR01WH3+W2IiJFRQ4TnGs34xrU/UXx95HDjHkTE6FxFrScnwoc76ONO4kr0aOiI8HA4grMHHXjkK8ew9LoxuPbuKhSUmqTnbDTpUDvTivEzrLjpSzWoO+rEkW29OLXXAUd3EOFQtP/1Z33AYBSQZzNg8mX5mLOyEFMW5MNs0VO/4OZzh/Hhy53Y8UYXfJ7oG6p/+UE9PveftRIRnpOnwye/XY2Xf9WEEzsdSOXT6OEQ0F7vl0jw+Nvliexk9ECXo47haD6HIynkdjzERDgEwBMM4Nm9W/D+maP45pU34qOzF8Ckj9qbSW9AcZ4VcgTCIbxz8hD+Z+NbaHfaE1EGOS5TfIzZaMTVU2cr5C0dPxkfnD2OHo9LHUfF/EkyItyo0+HaaXPx9ZXXocJWqBgJIqKIfU0X8D+b/oGz3e2IxNbi0m33ASXCOdLDABLhgsmCoqsfSDzLSBi97/8eYji6BkDGS4pDlUwBUVuNiRMEFF75lcRb4AAcO55D2NVFkZk9IlwMB+F4/xGU3v1UTC0Btiu+Du/xdwAxolk+bSI8BXAinINjeIOT4ByXNjQX2GQZkP5ENxiIoO6YAxeOO/H6H+oxaY4N81aVYNbSIpRU5Cp+HS0IQI5Zj2kLCjBtQQFu/+oEnDlgx+GtPTi5tw+9HX5EQqDHkZJfHiZEuEZDWwoMqJoc/dT5rOUFyC9mD0GRiAhndwj1xz04vtOJ8wdd8Djin6GSNwUjIJfUS3+iy5EE8bVn+UMfACJcMJhQuPY+CIbYr53FCPo2/wURtz32TEWGTBA2qpAqEeEFq++FzlwgXXHuewXBzguxXDSZWSLCIcKx5XHkTlmN+EqRbe2D8Bx4BWI4wC6rVRdrYkGUS/vNdbCem0ZZDiZUBDPV12DAiHCXz4lX9zyLz615EAIE6HV6PHzDj7Fq2jo8u+0PONp4AP6Qb8QS4XkmC2ZVLcBdy7+EOdWLpPzhSBhvH34J3qBHWZ7Vzqo2puvOifBBgmz9QeHNWbEauXiqGedkK15Sl6GVI2393GEHHn3oFO7+94mYOCdfSjfm6DBxjhXP/LQObfVe1Rjgsgfx4cvtGD/Dgk//e62CABcjIo5ss+PV3zTCYw+xY7URToRzJEe/fY7yMTBtP56XJMJPthzFrnNbsGZ69M2gIksJfnnnk3j/2FtYv/1PqOs8i3AkNGKJ8AJzERZPXIW7l38Z40omSnmD4QD+tu9pRll6O3MifBhBc/ySZUByXzGQRLgIEQFvBFveaMP+D7qw4sZyrLypHMUVOdKzFgQgN0+PmUsKMXNJ9AeQbfVeXDzlRst5D1rrvehq8SPoiyAcEhEMxH6cEqtLEACDSQeDUYApR4+ichPKx+WiZqoFVVPMqJxgVvzIX3mfgLMniIMf9mLra53o61ISLY2n3Xj6R/W46/vjUVgW/SJK/I3wVx5pwvEdqRHhartm+xxyfJDLUcdw3OekB/XLG8OBCBcBtNp78fDrz+K1Q7vx7atvwpyx46Cj6PXUrk347ZYN8IdCCZuTdKMT4Ua9HismTMO3rvgoppRVKGR+dOZ8LKyegMe2v4d/njwEd9APRe+O+RMaES5Ah+ljxuKh1ddjee0UoqWBFnsv/rD7A7xxfD+krRX70e4DRoTzzpMcqglmrF3JtTVarKO4pk2EW+deB9PY6dK57/xueE5vj53JyrLqUskUEJ07AMbiKlgXy7YY9Dlh3/Q4NQaLHmaPCPeefB/BtlMwVkTvzVQzD7lTr4Dv9Mak5ftDhDOWBTkRzsExjMFJcI5LHJRAbQAmupEwcPaQHWcP2fHGEzqMn2bF7GXFmLmkCGMn5sFIvL1jMArSZNXrCuPCcScOb+nBmYMO6Gh7RzIXdYaeCLcUGFA91Yw5qwox+TIriitNlMlqXF/A3hlE/QkPjm21o/64B66+sHRdiP+rMUHNxkSXI0VQAvZsEuG5ExYhb+pK6TzYWQ/XwbdkZWOBN1UmCBuVQ4A+fwzyl3wqoWLAA+f2ZxD/xahmwJ4FItx3+kP46/cgZ8JSAICxfBryLrsF7v0vpxQIpxWw90PPVIJ1qSy1Ng4SQ0mEiyKwfsefMW/8YiyojdqeTtBh6eTVWDhhKY407MdbB1/G/gs70elsh3y2N1yJ8BxDDiaWTcPlk1ZjxZSrMaV8BgTZa0iiKGLL6Xfw3vG/q4RqtrOqjem6cyJ8MCDKm1bhs0cDEd7V7MMfv3sGt/+/Wiy4sliK86om5eFLv5iKl39dj5N77IgviiF2p3NXF+Lj3xgPa0FiOhcOidjyWgfefbYVfm8EgKAdq6VEhMd9H0MOJ8KHNYaSCA+GAvjtv/4LU8pnYGxR9C1po96I6y+7FWtmXIudZzfhnSNv4HDDPji8vYSo4UmEW3OsmFoxGyumXo2lk9ZibNE4hZxwJIwXdv0Rp9qOUvoGqScnwocnyHYlx69YHrnPGUIiXBAFuB0hvLu+GTve7sDCK0qw6OpSjJtuhcGofuAVtWZU1Jql83BIhNsRgs8dhtcVlrbQEABAEJBn1cOUp4PFZlCtWdAQiYhov+jDvnd7cGhzH+wdwcRFoj9ePOHG8z9vwKe+U4Oi8uiPnqN7hFcDaMKx7dqfRtcbBVTU5kri3Y74ugHb55DjQyKNFsNRJ5IcGhiuRLgAETsunMFdz/wOdy1eiXuXXqH4RLogCLhv6RWotBXi/7ZswMWeLpWdyMdlAQIml5bjgRXrcO30udIb5iQqbYX4yXW34+bZC/HrzRtwsKUeEfmPO2IOWB57leRZcdfClfj0guWwmnIV8twBP/52bB+e3rcVbU67crzoZ7sPBBHOoQ0R6hgscZGytkaLdRTX6ES4LseCwrWfg6CLfi1DDIfQt+VpiAFvNEN0wE+UZdWlqlQAIKLwygch6BPbOzl3vYCwq0etp0JmdojwiNcB59YnUHz7I4Cgg6A3wbbmQfjPbVW8YMIqPyjraiqZ9DZhluXg4MgKOAnOwTHIE91gIIJzRx04f9SJd55rQsV4M+atLsHsZcWompSnIrnN1sSvt132ENz2IJQQE3+oizqDS4TLMX6GBQ/+32QUV5iYnzoHAFdfCKf3OnF8hwONp71w9oSUUXOav9TmE92BBzMQzhIRLugMKL7qixCMsU/EiiL6Nv9FCqYTZaOBNzu4pk8qrItug6EosR+S+/h78DceSSk4zQYRLoYCcGx+DGW1S6IFBB2sKz4Pz+E3IYb8KQXCqQTsLAwMEc6sjoPAUBLhDk8f/uPVr+Phj/wIa6ZfA12MMDbqTVg4YRkW1C5Fp7MNJ5qPYG/dNhxvPoQLHWejb4hTF2kx6ER4af4YTK2YjXnjlmD++CWoKZkIs5G+P/KmUxvwm3d/BH/IBwAKoi1pO6vamK57f4lwDm2I8X9VZE/M3lixmizzcCfC3Y4QXvjlBXQ1+3D1pyqlN7uLyk245/uTsOGvzdjyegcQAXR6AWtuG4PrPjMWOXmJT7+GgiJe/10jdm/oRiQsKmsmYjVl30tGhMtulyVniIhwjtQwlER4Q9cFPPz8ffjxrb/B1MqZUrY8kwVXzfoI1s64Fm19LTjUsAf76nbgVOtRNHRfQDgSovQ/0rdk6HOYYwDd51QXj8e0ijlYULsMs6sXorpoPAyyxd44guEAXt7zFJ7f9QTE2OCutmlSz8EnwjlSAdmu5PgVyyP3OUNMhEMAXH1BbH69Dbs2dKJ6sgXz1xZj5tJCjKkxM38AoTcIsBUbYStW23Q66GkL4PQ+B45s7UPDSY/02XNQfIXcVi8cdeH5nzfg7h+Mh60kqoPZqscnvlmDcKgRJ3ezifD5VxWiqCKhd8MJjypGSGSnXOHrA9mDYvo4fIlwl9+HJ7a/j/fPHMPXVl+HG2bOh14XnwvpcfOcRVhaOwVP7foQ6/dvhy8YUA66ogizKQf3LVmLTy9aiVJL4is+ABCORHCo5SJmV1QjxxC1TUEQsKhmIv74ic/j78cP4A873499bl1JhAvQ4Zppc/DginWYWDJG1dcPNtfjkS0bcLi1ARGRMV5wInxEgozBVNcYCfRraiI8b8Za5E5YJGXzNx6F+8g7FJnpE+GGompYF90mnUe8dti3/ClmEBQ9FTKzQ4S7D/8d+au/BGP5NABAzoQlMI1fBP/5HSq5mRLhLAwUEc7BwZF9cBKc45KGYio0BBNdvyeMiydduHjKhQ3PNKF8XC7mry7FwitLqZNVa4FB8cYP64aGkgiXI8+mR55NDxVEwOsJ49RuJ45utePCUTc8zjDh/FNbXB0YIpwjFbAC4WwQ4abKqbDMWScVDbu60bd9PVSIBfpRa2UF18pJhd5SDNvyuxO2EPTBsf2vEMPBFPWMBez9JMJ9pzch0HwYpup5AKKfbjLPuBqeo29TA+FMiHAtZJ8I58F6ctB8C4hzYuxiLYbGMmRChLfbW/H9l7+G6y+7BV+48iGMsZVLlQiCgDG2SoyxVWLtjGvhC3rh8jlxvuMUzrWfRn3nWdR1nEFzbwOcPkes54myiS7hRamTZ1G1CCrPIAgCBAgQBB1K88sxrmQCxpVMxPTKOZhUPgPltrHIM1mg11H8SwxOrx1Pbfs//PPwywjKtxkAhh0RzpEqyFgtlobRQYQHfGFseLoZrfVe3PHwBGlvU7NVj5sfqEHp2By883QLPvr5aiy9oVTx40JnbxAv/PdFnNprpxDY2SDC6THf0BLhHMmRRZ+jfAxM24/nlRPh59pO44G/3oE7lt6LO5bdi/zcxNt3ep0BVcXjUFU8Djdcdhu8QQ/snl6caz+FM63HUd91Dhe76tDc2wBfMEpwQcyCz5GdxH2OTqfH2MIajCuZgPGlkzG1YhYml89AsaUMZlOe9KMxWju39Dbidxt/hr11WxAWw7IrNJsm9RxcIpxDG4oeMQKJcADw+8KoO+bEheNOvP1UE8pqcjFjcSEmz8vHhJlW5OYZovpnaBaiCAT9ETSd9eDcYRdO73Wg9YIXfk9YWrwXpH/ovkJuq/XH3fjrDy/ivp/VwlKQ2CP8ju/QP40uCMDUxVbc8PlyhV4H3utTxbwsn0OOD4k0WgzHfU66GM5EuCgKONfRhoffeBavHd6Nn9zwCYwrKpX0KM8vwLevvgk3zJyPn7//JvY31kV10+mweuJ0fPuqGzG1rFJ1P3XdHfjVh//A1rpTmDZmLP7tqpuwsGaCZP0WUw7umL8MV0yeiSd2bsRLh3bFyGygylaM7119M1ZOmAajXjm/6fG48djO9/DGsf3wBgMyex0BRDhHyiBjsGiigP7uES4YclC45rMQ4l8rECPo2/o0wj63cr4gCUqPCC9YcQ/01mJJjPvw2wh21WvrqUjvPxEecXfDtXs9im78MSAIEEx5yF/5BQTq90bX+JKUZ9XD0ikVHVn1pNImHBwcAwNOgnNc8hguE92AL4zGM240nnHjrT83oGaqBfPWlOCylSUoq1LuIa6+ByJQhbr+wSPC6YiERbj6Qjh/2I2j2/pwao8LoUBEliM2Yc5gcZVPdIcOtEA4eqE/RDhQcsNDib3AATj2vQ692QaYbYCgNrXEYisBQfEHAGBdcBNMldOkc++ZrfCe2ZamnrGAvR9EeMTngGPz4yj91GOATg9Bb0L+mgcRaDkBRIJqxYl7YpwqE5Mseg7EG+EcbLB9C6RzgDJ2sRZDYxkyIcIDIT/ePPAS3j/+Nj4y7zbcsvBTqC2bBKPepCiWazQj12hGaf4YLJm0WnHN4e1Dm70ZHY42dDnb0eXsgMvvQI+rC26/C26/EwDg8bvgCjilcmXWcuh0egiCgCJLCXIMuSi1lqEgrxhFlhKU2SowJr8ClYU1MBlyUm7fUCSEdnsz3j32Ot488Dzs3j7pmqBsMk6EjzCwY7XE1dFAhEfCIg580I2uZh8++8PJKKuKfgZTrxew+tZyLFpXgrx85fSt6awH639xAW0XfIlaBowIh7YcaoyFJPG1sieR/ZOM1eJ/OFKFts8ZLCLc4bHjjx/+Gq/vex63LroTN8y/HeW2SsWPmQRBQJ7JgjyTBZWF1Vg17WqFyC5XB9rtLTF/045OZztcPgccXjv6PL0IxL74Yff2Sl//0At6lOaPASBAp9OhxDoGuYZcFFlKUGwpRZG1FGX5FSi3VaK8YCz0utSXR/whHxq7L+CtQy9gw5HXEIz9mJL+FQXSphXNntTncCJ8cDFc1gfSkkOpG6IAnyeMxtNuNJ524931gF6nQ0WtGeXjclFWnYuyqlwUlJiQZzPAWmRQ7ZXs7AvC6wrD0R1Ed4sfXa1+tNZ50dHol83lM/vRlNxWG0+78eT36nHPD5V7hN/53XE4sdOBw5vtcPaEYCsxYt7aAkxfmg+97MdgZ/e7cHqvU9ZGfH1gMCHG/yFjnmFKhAMCgqEwNp87iesf/zm+tHId7lq8CkVmCwBAL+hwWdV4PH/Pg3jxwE68fmQP7l16Ba6dPlf1g6hejxt/2bMZf927Gd5gEAKAIy0NuGf947hp9kJ8eeU61BSWQIhpVpFfgB9ecytumrUQj277F+ZU1uALS6+ExaSc8/hCQfzz5CH839Z/odPtTPQxhb0OcyKcIy2QMVg0MdauGX4a3TJlOSwz1kiXQn1t8J7bDWNx7KuIQuJPrJhMiAyC+lCfX4L8ZXdKKRGvA30f/gGIJH4MyNRTkd5/Ity15znkr7gXhpJaAIB51vXInbIawfbTKv1p98RMirdPjpVQILmOND2lsknahIODI/vgJDgHB4bnRDdOiP/zL40YN82KOSuKMWtJESprzTDmRAPvoD8CrzusrptR/2AQ4c6eEIrGREkUMQL0dQZQf8yNI9uib3y77SFZ7dl7yyibE12O9EBbzIteyIwIN1VMhvWy6xRFiq64H0VX3J9lzQExHIR9y1MQw2HNX35qBuz9IMK9J95FsOMsjBXTAQA5E5dh7PcO9u+mtEAJrDkRPrhg+xZZHtrYxVoMjWXIhAiHKMDtd+Hl3U/j7/tfwmXjF2HtjOuweOLyGAGtJMRJ2MyFsJkLMbViVpqtkD14gx609jXiePNB7Dj7AQ437IE34I7dpNz/Kds52qbKRM12VrWxegFXXQ/NR8nzclIiHbBjtcTV0UCEA0DDaTd+/9ApfOpbEzB1YYFkUyQBfmx7H175zUXYu6JvObBjNVnNrBgreuMpfBo9iRwa2adoI9oYqOxJZP8kYzXuc1IDJQIeUiIcItDpbMcTH/4aL+x8EpdPWoU1M67B3JqFqCis0njTOopS6xiUWsdk1BbZgtNnR3PvRRy8uAs7z23CqZZDUfJb5nOofh00m4bCnjkRPrwwHNcHMiHCyXgxHImgpc6DljqPlEyzCwFK3yUoT4i0zL8eIrfVxtNurP9ZA+7898Qe4XqDgDmrCjBnVYFKxzi6WwN4+8/tCATi804y9uLrA4MBZswzjIlwiIAnGMCvP3wb/zp5GF9bcz2unDobhtgn0nWCDncuXIE7FixX/UDEHwri3dNH8ejWf+FCd0c0UWbToUgYfzuyB9sunMbnl1yB2+ctgVVGdM+vGo8/f+J+ldyIKOJoayMe2/Eetl44LWsXWR/jRPioBRmDJS5ktkd40boHAFl8ZSgaiwk/3pl1vQHAc2IjAi0n1XFQCutI/SXCI+4euPa9hMJrvw1AgGDIQdkXXsvSnTFA6MqJcA6O4Q1OgnNc2qAu1A2viW44JOLCcScunHDiX881YWxtHmYvL0b5uFyc2N2HhlMutRx5XUTaQBPhr/66ActvLoMgACd3O9Bw0gNHd/ytVmlamlTOkBLh4EgKMuCD9LiUQVsGRLhl+moIxtzs60yBv/4APCc/BCDE+kbqeioC9gyJ8IinF87tT6L41v9WTE4GFJTAOitEOEdyKMgDmm9hFIgfsRZDYxkyJcIhAL6QD3vOb8Oe89tgMxdifOlEzB23ELOr56O2dDJqSmrTeit7ICCKEXQ629Hc24CG7vM43nwI59qPo83RAo8/4QsTY5HS2IcrEc47UBKIIqWtyVgtlobRQ4R3t/nxlx+fx433V2PpDWXQG5S2vO3NDrz1xyYEvBGGnIEkwsm+knqsxh4Dif4KaBPhHMmhGRvLslH7jPZYqOh7DNtX6qAs5PA5sPH42/jgxD9RYi3DxDFTMX/85Zg+dg7GlU7E2MIazS0vBgOhSAgd9hY0913EhY4zON5yGBc6z6DN3oRAyC/lo/mc4UyEcyTBCFgf0JSjVTcpm1F3Kveg7vPZIcLrj7uw/r8a8PGHqlE+Pvl8sP2iH68+0iR9DYWvDwwtRioRLgrAibYmfPXVv+D6mfPwjbUfwfjixCfSSaL6RFsTfrN5A7bWnUYwEta06Q6nHT/f+CbePXMEDyxfh+W1U6R9yEm5PR43/rp3M146vAsOn08dw40wIpx3nBRAcdaUaSw7u+KZK68JhhzFW+ADiYjfjb5Nf4IYic5LhoIId237E2wr74fOUqwuPFAgdM0aEc7BwZF1cBKc45IGczFimE50/d4w6k+6UH/SpZAl/6X24C3s0ie6Tee8eOWRBpkH157o9mfCTOTO6kSXgw1RfiAo0wVKerpEeKD9PMRIGMIgLH72ffBYYi9wDA0R/fTbjAAAIABJREFU7t77AmxrHoChdGI/70YboY6zmhMLToQPEmTDTLJPo6dFSsQy9IcIj4t2ePtwtPEAjjYegF6nQ16OFdZcG6qKxmFcyQTUlNSisrAapdYxKC8Yi7L86OfNs4WIGEGnsw1tfc1o7WtEc+9FXOg8i4vd52H39MITcCn2+QZA+FP5WER4HLKdgSEnwjm0kfA5ZFurbVfqWaxYjVw8HZR4SV2GVo7WV92OIF579CK6Wvz4yH3VMBgFBAMRbPhLCza/1oZQkDYGDAYR3r9YjT0GkhEiLU5nrIxx0KEZG8uypetzlI+TaftKHdQ2AFFEl7MDXc4O7Dm/DQa9AZYcK/JzCzC+dBJqSmpRXTwe5QVjMcZWgXLbWBRZSrL6RnMwHEC7vQXtjha09jXhYtd51HedRVPPRTh9dngDLoQiIUWZVHzOcCXCObTBfEaqdqU9a8LnDEcifED9XXaI8Isn3Hj84Tpc8ckyLPlIMXLz1DGmzx3G/vf6sOnFTjh7Y/2Trw8MIUTZ0cglwoPhEP5+dD92XjiL+5dfibsXr0aOIbFs7vL78MSO9/Hcvm1w+n1SumJcpti0KIrY13gBD/7tL7hm6lx8Y+31GGsrUtz/O6eO4Ddb3kFDX1f0B0sC6DHcSCLCwZESKM6aMo1FunuEi6EgAh0XYKqYPBBaK+A7twO+C3tjZ0JUE5X+dD2V6ZkT4WFXF5zb/oSCa7+TjVtiItR5FoqlP0LXrBDhHBwcWQcnwTkuefCJbn/kZGei2x85RO4sTXQ5koG2aKeVng4R7j6xBc2/+zRyqimfWGZEhapkSQk2gu1n4T76jqrgYBPhEb8L7X/4GPLm3gwh9qvwdKLfVNaBw/ZmeI++mdCTMbHoNxHOkRpk62nDlQiPIxyJwOVzwOVzoK2vGfsvRD+fptMJECBAEAQIgg4F5iIUW0qQby5Ama0CBp0BxdZS6Q0HQdCj2FICb8ADT8AdFS4Abp8TnoALfe4euPxOdLs70evuRiQSgiiKiP9H6q+e/JL+VD4WER6HbGeAE+HDHKTPZsdqidyjhQgPBiLY+FIrTu7pw+R5NtQdcaL5vJcugypnIIlwaMsZUCKcx2spQzM2lmVL1+coHyfT9pU60GwggVA4BIe3Dw6vHc29DcDZqE6CEPc5OgiCgFLrGBRZSmA121BiLYPJkINCc1FMfwEGnQFF1lL0uXsSP5oSALu7B76gF72e7the4t3oc3dHPY0oIoJILGt2fA4nwkcmmM9I1a60Z034nOG6PgB1ueG0PuC2B/GPP7bigxc6UDvbgjE1OdDpBEQiIjoa/Kg/7oHPEwZEvj4wLCCCaLeRS4QLENHpsuPn776JN47sxXev+RhmVlRh+4UzeOSDf+Bib1fitiTdxKREOEQR3mAQfz++H5vOn8CXV6zD9TPmocvtxO+2/Qtb6k4hIkZLyP3JSCfCObRBiwEU11QTzFg7p/JpdDGCxt98AvkLb4SgJ+gfxuOhJksKMhDyw7n7JUCMKAqJEAEyDqLpqUrPnAi3v/cIQj0Xoc+XbZ+Toimm9PvKSAieo28AYiShp+pm6DrK9VQmgt4mHBwcWQUnwTk4wCe6ackZoIluf+QQufs90eVIDayAnRnIp0yEi3Ad3QjX0Y2KqFgAIY+AKsiUBeuCKl12qJI5+ER4qPsiHB/+lqqjlv4A1EG0lE5LlOnJmFhwInyQkBiuGL4F0jlAGbtYPiKWIZtEOM3fRSJiVCcRAMLodnWgx9UZUzZRVtnHBFBOiTSBvBTVQeW/aJNfToSPZpA+mx2rJXKPFiJcjIhoqfOipS5Bfgtg1E2VM1BEeApyBogI5/GaNlTtoxkby7JR+4z2WKjoewzbV+pAswFSB6WOUYki4gusbfZmtNtbGH5EeZC2z6GOAZn7HE6Ej0wwn5GqXWnPmvA5w3F9gFFuuK0PeJxhnNzlwMld8TRZn03T5/D1gUHAqCHCARERnGhrxt3P/g7WnFy4/D7KmC0bdFMkwkVBgMPnxS82/h2/3PQPRMTYPQJqm451mpFLhHOkAloMoLhGc+K0tTXFM48eBrsb0fPuY9HEWCW0uEgO+roaUZYoT5cZ7UmqOIiipzo9MyIc4QBce55n6E9RjwDNblNaV1PdDF3HuJ7JiHDueDg4so9B2oCUg2O4QlQeiSL9iihPk10RablFhcMSlSfKc0mOMk1UVpi6HK26GWm0veGS3YNajgilGFlLydpImYVszf7JIXJDeQvkM6NcobQDBwNqc1AFaax0iIzf0tNkKk6EpMGg6pIYLceWqRVgCnSTSKpnbGrA0JNlZqJIme2wTslrZFmtukg9KfKYZWl1sdqDQw2RMt4m9S0UIfIjrfFeVNsNzSeoxkq1+yF0YutJ913yc+JOqWMJzTfQ9ae1k9qfUhWhlifjAFoxtS9WC2S3newqWZYjJbDthGa7ojwrcUWZOXmcQ+m/8TxpxUvqMrRyKceKSccAUVmC0rHIPqrOQrmDdOVoxGqqNCk7rS/yXpMyGD6HfBIAZSyk9hmw7Y3sewzbV+pAswFSB22/qO4D9IO0fQ5zDKDokKLPoeuvvEDXU9vn0HqEyucw2piDBdLuqb0myfhF5tb2FXx9QKoYisv9lEPkTjIG0voi7zUZQdH+5MBFsSWavZH2L2rYm/yc1v+Y4zGjHxN2IoqA0+/TGLMVN5PcpmV5wuEIxNiPu5g2LSb0UIJII9udqDgb7Z6038t1INqdgwGRWK9ixguM4hoJ9GuCZl0AZeiTzom1PFpdKpmJH0akpKcinb1eRZUJ0NfGUqhLq3zK62oUmSmvq5FlGT9Q4ODgyBycBOfgICc8o3miSwtUKXVnJodPdC8pyII2VsDLDIQHighnBqecCGcJyjYRzpEcmRLhaZMSsWuk3XAiXLs8GQfQimWbCOddKBWwfba27YryrMQVZWZOhDOlIDUiXN3XaX0jkYVsf0VhToRnCZwIz9DnMMcAig6cCB+FIO2e2muSjF9kbm1fwdcHpIqhuNxPOUTuJGMgrS/yXpMKRBBNNcqIcEWeLBPhckNm2nTswsgkwjmSIlMinCxHKU+/xolw+gm7/JAQ4RwcHFkFJ8E5LmmwF3ioUyN6gMyUoz1JHNKJLqUcn+iq5XAkwTAkwkWRFVxzIpwliBPhg4/+EOHUsYs1TseukXbDiXDt8mQcQCuWTSKcQxtUHy4dqHoNpWlFeVbiijIzJ8KZUpCcCBeTy8kmEc77TsrgRHiGPoc5BlB0GEFEOIc2+PoAu+6U5JBpVF9Bdg2+PjDyEYsBFI+ebfu0NE6EJ7Hp2IWRRoRzpIj+EOG0tTX1IyISOBFOP2GXH1QinHchDo6sg5PgHJc8LsmJLqMcn+hypI1hSIQDrOCaE+EsQVkhwjnSQn8+jc6JcJr/IjPR/ClVEWp5Mg6gFcsaEc6RFMxYTXZR23ZFDTnKzJwIZ0pBciI8BTnZIsJ5/0kLnAjP0OcwxwCKDpwIHzXg6wPsulO5B7Vsvj5w6YAT4XLhSW2aE+EccvTn0+icCKekjWAinIODI+vgJDgHB4jgV3402ie6lDQ+0eVIG8OUCKfL5EQ4SxAnwgcffI9w4k6pk2eab6Drz4nw0YpYO1JjrPiBqtdQbFdLjjIzJ8KZUpAaEa7u67S+kchCtr+iMJUI50gfnAjP0OcwxwCKDiOBCOdICXx9gF13KveglsPXB0Y1iGfCifDEcVKbHtVEuEokRzJwIlxDJifCOTg4MgcnwTkucTCCX/nRaJ7o0gJVSt2ZyRm5E10ObYigBdDDjwhnB6ecCGcJ4kT4wILa/BkS4WmTErFrpN1wIly7PBkH0Ir1nwjnSI5YO7LsXnZR23a15CgzcyKcKQXJiXAxuZx+EuG8CyVHqj6H1qqcCFf7S5r+I5MI59AG7RmRdk/tNUnGLzK3tq/g6wNSxVBc7qccIneSMZB3nHRAPhNOhCeOk9r0qCXCeR9KBmoL9YcIpyWrHxGRwIlw+gm7PCfCOThGHjgJznFJQ9ABzOBXfsQnuhnKGZkTXYHHHpoQox2HEkBzIlxb5ugmwkXecbQhCBDISWIMnAgn7pTWn0YtER61Cw4NSM0Ta0eW3csuatuulhxlZk6EM6UgOREuVceW0x8inHcbTQgCJc6JgRPhGfoc5hhA0WGYEuGCwJd/koGvD0B2DwPh7/j6wGiEXhdbHyCeCSfCE8dJbXoUEuE63nGSQICKRI6jP3uE07KrHxGRwIlw+gm7/MAR4QJ3OhwcAwA+C+K4pHHtp2qVgS2I4Fd+NNonupRyl+JE15QrYNF1heBgw3zl/YTdyzBMiXB6cM2JcJagTIhwXP4VxgUOAJg6di7mjF8KgG4C/SHCVYs4RCWcCI+nkV6Fqgi1PBkH0IplQoRPrVyI2rJZamU5JKz8+DiVz+ZEOJFn2BLhYnI5GRLh8z5aRGrDIcMNC++E2WgBkLrPofQmToST9TPHAIoOw5AIXzfnbkoqhxwrPj6eMe4QacoLGj4nmRxtX8HXB6SKobjcTzlEbs0x0JgrYObVBeBg467l10BqUeKZcCI8cZzUpkcZEX7TrKUqORwJGGrmwDCZvT7QLyKcfxqdkjZCiPBxK4DK+fSLHBwcGYOT4ByXNApLcwAQgS2I4Fd+NJonuoxyl9pE11ZiBIc2BKMZQl4hYfcyDEMiHGAF15wIZwlKiwjXm4C8Ymo9HAmU5pez+w0o421S3wIijfRZclG08Z48p8+s2f6OrF9bT06Eq3UvsoxRK8mhgKXACL1Bp/LZnAgn8gxbIjwFOWkS4aY8PfQm/oZEMpTaKtL2OZTexIlwsn7mGEDRYZgR4YXc5ySFrYSvDxAZBsjfjZz1AUsRXx9IBpPBiAKzBVKLEs+EE+GJ46Q2PUqIcINOj4LcPJUMDiX0hdqxGt8jnOwf8sNRSoTbKiiJHBwc/QUnwTkuaSy7lgw4GMGv/Gi0T3QpaZfSRHfuGhs4tKErroJh4qLoCStgH6ZEOF0mJ8JZglImws3FwMQrqHVwJHDF3Fug9hdK9IcIJ6WStjusiHBSY6IsbXxIpNF8A13/4U6EL5l8g1pBDgWmLC5Bni26AK3y5tQYK36g6jUU29WSo8zMiXCmFKRGhKv7Oq1vJLKQ7Z/4t2J6LvJLOSmRDGvn3IxMfA6lN3EinKyfOQZQdBhGRPiSyderK+FQYN5V5A8Wac+ItHtqr0lTjrav4OsDUsVQXO6nHCI3dQycsjIfHNqoKCjGvHFTFI3OiXC1H4kfJ7XpUUCE5+fkYUHVJFV5DiVMiz4WPVA/jgQukT3C1ZUw9FSkj0IifNbtFGEcHBz9BSfBOS5pFJTmYMGaMnpgCzAmqIoL7OA3qRztSeKQTXTJCQOj7szkDP+J7uLr+afQU0HuyrsSJ6yAfRgS4ezglBPhLEEpEeELPkOVzaHE/ImrUFE0Dmp/ocQlsUe4SOolPyfulNafRgERXmqrxszqZWrlOFS4/MaxFJuL2QDL7mUXtW1XS44yMyfCmVKQnAiXPQuWnBSJ8FlX81gtFVy/4FOJdkzT51B6EyfCyfqZYwBFh2FAhF9WuxYFeaXqCjgUsJbkYObKUtW4EwdfH2DXnZmc4b8+MGsd/xR6Krh10ZrogazRORGu9iPx46Q2zSDCCaGqPMOFCL9u2gJVOQ41jNNXQV86LnqifhwJXAJ7hIuilkyyf8gPRw8RLhSOAyaspQji4ODoLzgJznFJQ6cTMGdZKZiBLYjgV37EJ7oZyhm+E93qaWbk2fiwmAoMNbOhK6xMJLACdk6EJ5E5OohwYco1VLkcSuQYczFvworE+KMx0b0kiHCVXvJz4k5p/WmEE+Ezxl4OkyFXrRiHCjOXl4FuczEbYNm97KK27WrJUWbmRDhTCgaDCM8rNqBsYg5ZMwcFhZZSTKuen7HPofQmToST9TPHAIoOQ0yEz61ZBZ2gVwvnUECnEzD1cr4+QCujSqPUnZmc4bs+MGaKGbn5fH0gFUyrrEGZrSh6Imt0ToSr/Uj8OKlNU4hwMXEoXVDlUTXT4BPhl9dMUZXhUEMw5cI4bUUiQf04ZNf4HuFsmaODCBfHrwKMZooQDg6O/oJHcxyXPJZeU4nK8bH9i2iBLYjgV37EJ7oZyhmeE93VHy+BwciHxVSgK66CaeknlImsgJ0T4UlkjnAifPJVEMfyX3qnijtWfQVGgykx/mhMdDkRTtwprT+NUCLcoDfhI/M/r1aIg4qq6TZMW1ICqRFJO4SG3csuatuulhxlZk6EM6VgoInwmWsL+KfQU4TRYMIdK78CQNaOafocSm/iRDhZP3MMoOgwRER4ReEEXD75OrVQDiouu6oCZeP4+gCtDK3caF4fWHBLMfR8fSAlVBaW4OYFK+TNDKlFiWfCifDEcVKbphDhxKH87qQLQ0mEL6qejCmlVar8HHTkXvMgYDAlEtSPQ3aN7xHOljnCiXC9CcLKhyiFOTg4sgEezXFc8rAWGHHbl6cgx6z//+yddZiU1duA75nt7k7Ypbu7QUBKugWVFkUFAxEBCRFEQcEARMWf+qmolIR0dy8Nyzaw3TEb8/0x7Oy+EzuzAbvgua+Li31PPvO+p57znEDvwBb0KKgSD/2DX4PplKwkCkO4OmMk3uVMp3joRp3tqdVc3PdVGqy6vIJpQGOpo74BuzCEG0jzKTWE23lB1w9BpuceJ4EWPi7VGd1xBlCstSpB0RWGcI1fqlN51tU36Ja/qhjC+zebjIdjgLYwAp3IZDJ6Tq6BnaslWmW62F/CEK4R5hkzhHsEW9Gwj5NmboISaFmjC10bvgCUvc/RWePK2+doyqCn7Etl0KyDumTQL6M6fZ39iPSPUvc5etsAHTI8YUO4maklg1u+jq2luEbAWKztzeg5IRhzMT+gHUeP27M4P1Czgx2BTWwRGM+oNt2p51NNZ7smDOHa/Ujh3wbL9FNkCHe2tmNci+7IxPyA0Zi4V8eq9xtSR+3PUczvv3FH+H/NEC7rMBOlS5COiAKBoCIQRnCBAGjV3ZP+Lxd2NqVVUCUe+ge/BtMpWUkUhnB1xki8y5kOgJufBYPf9MbMQgzUS4Pc3g376T/rHZxqD6CrpiFc30Bff5olKRX/MUN4/9XIvBrpFk6gl1GdZtCxXh+gWGtVgqIrDOEav1RXfXqKDOEtgp6jX7PJ2kIISsSnhj1D36v36ElXmXtUBvSV+2KeJZfdktKRBhaGcL2pYJwh3EA6GuPrfnN9sXY01cxJUAIWZlbM7L8Cf1fVsaRl7XN01CZhCNfMX28boEOGJ2gI79d0Ei2Ce2onJCiRBl086DK2+qMnzTqj6xtplnudtaaU6ZTcV4j5AXXGSLzLmQ6Ak48F3aZ5YSrmB0qFi60DX49/E8m7LfbShSFcux8p/NtgmX5KDOFvdHyBIBcvrTCCkrHuPQPzpn2ljtqfo5jfs39HeMlpataP4n8+hYbwugNQdpilI4JAIKgohBFcIHhE33HVaNTe7dFTaRVUiYf+wa/BdEpWEitV0dUR71lQdK1sTRj+jg9mFqI5LAsyW2fsXv4apYnG0aT6BuxV0BCOUt/gWhjC9SYkM0HW/k1kQV10CyUoEblMzqu9F1LNvTZQrLUqQdEtjyFcaxJHIxNhCC900+xVdAqiM77mOEBXNCVKfJ1rMKb9+8hkos8pCzVbuNB5TDVUr09ZbHxSyKMyoHOMVfiHVq3RUXZLSkcaWBjC9aaCYUO4EekolchNoOebPljZifuMy4KFuRWzh6zG7tFO4LL2OTpqkzCEa+avtw3QIcMTMIQ39G9Pn6YTtRMQGEXnUYHUauP66Emzzuj6RprlXmetKWU6JfcVYn5AnTES73KkY2FjwnNveGEq5gfKhKO1HZ8Mm4KpiYnOdk0YwrX7kcK/DZbpKmwIlwHDGnWgqY/YyVomZHJshi7ExKu21F37cxTzE3eE60/z6TGEy9zrIuu1FJlc6DkCweNEjOoEgkfITWTMWN6EJp3cH7mUVkGVeOgf/BpMp2QlsdIUXT3xnmZF18rOhAlLA/CpYaX1GwTGY9HyBexeXInMXOM96huwV0VDOPoG18IQrpWQTIas/QzoPg+EIa/MuNh78vGLPxPkodrZqm6tSlB0y2oIL3LT7LOKJ6Wrvdd81q1Z6+/vNPMvWc5n3RDu71qbWf3W4mjjjqBsyOTQe3INOo+u9qh5LiozmiMwYQjXCPOUGsLNLOT0eM2HWh3sNSMJSkEN7wZ8+vLvwhAuSUqzDuj+o9R9jt42QIcMj9EQ3qRaF2Y8vxoTMalaZuQmMl5c1Jg6YqG87jh64j3N8wOWtiYMXOCHe5CYHygPvRu1ZuHgV7A0N9fZrglDuHY/Uvi3wTJdBQ3hMpmMYY068FLLHsjFMehlRu7oif3rv2DiW1/qoWeso3IUd4TrT7PqG8JlnvVhzCbVNYMCgeCxImavBYJimJnLmbaoEZ0H+mFpbUrpFVSJh/7Br8F0SlYShaKrzhiJdynS8alpxcuLAvEJFgpuRWDRchDWo5Yhdw+WeugbsAtDuIE0q6gh3M4LOsyEbh/qFkJQKlztvVg8diOtanYDirVWJSi6whCu8Ut1Ks+6+gbd8j8pQ3ijgE7M7PsNTrYe2hkKSk2vSTXoNi5Ieke4ZjmkhLFaMc+Sy25J6UgDC0O43lQoqyHc0duczlO8qNVRGMArgiDP+iwZ+xO1vFXXmJS1z9FRm4QhXDN/vW2ADhkq2BBuYWZFpzqDmdJjOaYm5tqRBKXC1FzOyLkNadnPFwsxP6AdR0+8p3F+wD3Yin4f+OFeXcwPVAR9GrVhbv8XCXT11NmuCUO4dj9S+LfBMl2FDOFO1nYMb9yR8S17aCYuKANyRy8cpv+EWf3uUg89Yx2VozCE60+zChvCazyHbNRvYO+tWziBQFChmMyfP39+ZQshEFQlTM3kNO3ojlegDQ8iMkhJyAFkhf3uo/+KOrWihY7F3KQeUp9SpSMr/qh6liSl3bnKNFZeyqQZGp+Ogby13HTkXbZ0ZEiTKfamir0jaRDNt6k/HQtLOR0GuzJ0pi/OnmJiqJBboRHYOzlha2dX5jRMfeti0eIFCpKiyI+5KfXULoagVTY0/yjJXaYZXUcE7Si6y5NGdF3uOuuzjry04spKSLMkOVV/lFpOrXKvHV+f/DrjFs+rWkdkA9cgbzhUdyBBmbC2sKNLgxewtbQnIv42GdlpRaVUZ7155Kb5sQz2LZrPmn1W8aS009aufjqkkmmkqkd+nTJoZaldwTX7AR2PGm66+gbd8usq+9r9qU5BdMYvHAe42HkzqOWrjOnwPtbmZW9fAWLv38fexgp3V+dypVPZ5ObmcTc8CncvL8wtLMqcTlBTZ4KaOpEQnUni/Sx0lznNNlhHW65VTkqbjjTwkxsv6asn0nhGjxUNtgEljdWKxdI3VlNlbNRYTQbU7GBPn3f98aoljBEViZuDN90aDqKgIJ87D66Sl59b5j5H18io3H2Opgx6yr5UBs06qEsG/TKq09fZj0j/KHWfo7cN0CGDkX2ObvlVHgGudRjdYTZ9m03ErJwG8OjwcHw83bG3sylXOpVNWnoG0Q/i8A0MLHMapmZy6rZzw9XfhvjIDNISxfyArjhabjryLls6j3d+wNxSTtP+LvR4zRuHcs4PJCckQH4e/j6e5UqnKlAR8wO1vPzp1agVD1MTuf0wWme7pvlNJM+SOqNnzFO8+Ogqb5rlX1ZCeSv+rKv+6W2P9dRjzb6yeBhd7YFENiPKdPEwxd+pNFGtMDrHcCW9d42MC99PY+/qzOw8kG41GmsmKCgHMktbLFoMRGZpT8HD2yiz0op5Sv5D4qHpp3e8oMtRR3BdYx21g/5xkY5gOgXQNV7Sn2YJ4yB9cuqtA0bIqbOeGJNXyfFlMsDBB3mX96D3UmSW5Vvo+6zMDwgET4BjMqWuJXMCgQCAnOx8Lh6O4+91d4i+l6F2N05BlXjoH/waTKdkJVEouuqMkXhrpGNiKqNNP1d6jHXHylYcC6jJ9r1H8KlWHQ+v8h/Do1QWUPDwLlk7VqA49w/KgjyVh97BdVE3pG9wqnfQKlPqKLmgo4hpPCh1KwCFwfQOeJUlpKlHqSjMr4yDaBnK0skJyGQaXbu+96nLr/j3kJtAQBvVIN2vBYgdRY+VTEU6u8//xk8HPiMtKwmdymwx/hOGcC25ij/rV76L3HT1Dbrlr0hDuK2lIwNbvkrHuoOwMqsYA0LI+fP4uDlRr9bTfddeRmYW/x46Sb2mTcs1sVpIfm4B4VdT2LvhLvcuJVOg1GynH5UBfeW+mGfJZbekdKSBhSFcbyqUZAiXm8io0daelsPccPaxQCbX08kJKoT07BQ2HljBttM/kpefS1n6HB21SRjCNfPX2wbokKEMhnAZMrydqjOo1XQaB3bGwqxiFo6cOnSIlo3r4eP1dF/hEX0/ltMXr9KqU6cKSU+Rnc/1Y3Hs+yGUh+FifuBpnh+Qm8po1NuF1iPcsLCpmPmBe7duoVRk077l028UrMj5gQKlkrD4+3yzfyt7Q86QX1Ag+XjCEK7djxT+bbBMP2FDuIlMTn2vQMa26Epdd39MTcTc2uNEmZNO9rH/I2vHZygzklSOesY6KkcNPUj30EnHQEnHPJeGg24/ZYl5gY7xjvpZYy6vxDFYUZyS09Q9BlP9qSydnKA9r2ZkXjrjWzkj6/w2sqajkVmUXweGZ2d+QCB4AnwijOACgZGc3vuAlAQFu34JB3QPAHRPzuhWvrQGw9LgUjetAbnOFLXylPprKpoasYxWdI2MZ2A0oz0FqhFO38BcEkxTKdDMTUaNpnZ4VbekYUcHbB1NteQUqKhIJbc4efdvknfzOLk3DpEfc0Ptrv1pNQzhxg7Wi8UtacCu9fhowF4SJRmtDSoHxg7WdcXVetBj6NcZqbgM+g3hht4VNi7IGw1H5lEHAtuVlLvgMbHl1A8kpcey/8qBRo60AAAgAElEQVRmlYNM+zPpao+lLrr6liIvnelpFMISFTu9/Z4R/ZREpiLBdfZCJdYbma5HnW7a5V5bemPCqMNpvjAZtKnZF0drN3o0HKUjVvl4VpTcijaCFyf0YhIPQ9M5/+8DMpIVpR6rPQpSPPBjHKvp8tcurNpGCT3xtPo8I+Lp6wz0jNW03YwZq2nE0tFOuQRYEtDYFt8G1rj4WWrlKXi8JGckcDhkG6EPr3E+9Cige7yiLkMyVMMafX2Orv7FqHGdgZ06pehzdNd9DR+d/aDOjshgn6Orr3wSfU6vRuNxsHamVY3eOmKVD2EEN8yVAw9JS1Rw9I8IQF+509/naPUQj7XP0dOea42bNOtIBcbTVVGK/fmk5gf8GtrgVs2KGu3ssXao2PkBYQQ3zJ3YaM6G3uDk3avcfhgNaDZvj7685NPrKPsSb83xjdagSDuerAR/zTKpc4GSnjqqq05qumnkrZGa9F1odUu6ynhZDOHFZdf+7ZoPjla2dK/ZmEAXDxp6VUPw5Mk++D0FaXEozvyldtPV72ht3DBqDFYUV3eaeh7VD/rn1sq+GUR3/qU2hBdz0HOxop5Ij5zLYQiXATQcjMzWA1mrCfrzLiPPyvyAQPAE+ERYhAQCI2nZXXWkVY/h/pUsiUDw9GDqVQtTr1pYdn6pskURCJ4qBrQaD8D4bu9UriACwVNE9cZOVG/sRJtBfpUtikDw1OBo40L/R32OQCAwngZdPABoO1j0OQKBsQS7+xDs7sOI1t0qWxSB4KmicE7Nup+YHxAIBILSIq9sAQQCgUAgEAgEAoFAIBAIBAKBQCAQCAQCgUAgqCiEEVwgEAgEAoFAIBAIBAKBQCAQCAQCgUAgEAgEzwzCCC4QCAQCgUAgEAgEAoFAIBAIBAKBQCAQCASCZwZhBBcIBAKBQCAQCAQCgUAgEAgEAoFAIBAIBALBM4MwggsEAoFA8BSRnZXFOzOmcfXKpTLFP3xgH/Nmz6pgqQSCZ5Py1jeBoKohyrTgaSc6MoJ3ZkzjfnRUZYvyVLFy+cds+/vPyhZDINDLretXWfHxIpKSEitbFIGgyrDt7z9ZufzjyhZDIKiSVMbcltClBIKnE9PKFkAgeFb5ePmn3Ll7l5deHEv7tm21/L9d/x2nz55VP9vb2RMcHMSwQYNwc3OVhItPSGTOu28ble/R48e5eu06t+/eRaFQ4OHuQcvmzejYoT0W5uZGy5+QmEhySgpB1aoZHUcg0MWiubNp1qo1vfsOqGxRSuR+dBQmpqa4e3iWGK6yf09BQT6XL14gNSW1TPHjYh8ScvlyBUslKC2L5s4mNTVF/Wxja4uvXwDP9xuAl49vlZHL3tER/4Bq1Klbnxat25QpTWPrVmnlk8lkODg64R8QSK++/XF1cy93+pqUt74VpyLfg6By0KwfxWnaohX1GjTkpw3rDKYze/4inJycy9WfHD10kK1//c6yVV+VKl5FlmlBxfLLjxu4eL5IN7CzsyegehB9+w/E2dW1hJj/LTIzM7l88QJZ2Vl6w2i+S0srK/z8AwmsXp3OXXtgVgqdqJCkpERSU1MICCi/bqQpn42tLR6eXnR9rhc1a9Upd/q6uH3jBlZWVuVOR+iIpScnO5t/d/7D7ZvXSUiIx8nRicDgGrTr0Akvbx+t8NdCLnPp/Dnu3r6FpbU1QcE1adO+A55e3pJwcbEPWb54Aa9MnU6t2nVLLZex+Twpzp05zZ5d/9D1uZ44NXOuFBkEVZuE+Dh2bt9KZEQYmekZuLi6Uq9hI9q064itnV2lyHTq+FH+/O0XJr/2BkHBNfWGu3zxAv/7fl2p62tMdCS3b9yoCFEFzzDG6BTGhnF1d2fKa2+WmN+KjxdhYWnJ9Df1G6CfhN5eGXNbQpcSCJ5OxE5wgeAxEBsXx2+b/uRO6D02/b1ZZ5i79+4RERlF82bNaN60KQ6ODmz662/6DRnCqTNnJOGu3zQ86I2IjGLitOm8PXsOFy5dws3VFXd3d2LuxzBv4SJ+/f2PUv2GvzZvYcr010sVRyDQxbWQKzyIialsMQzyxYpl/LjuW4PhnpbfI6jaXAu5Qn5BAQ2bNKNh46Y4u7pxcN8eJrw4knOnT1UZuWxt7Th/9jRz332LObNmEPvwQanTNLZuGStfgVJJ0+YtadikGXb29uzYtoUJY0dw24i+sjKpyPcgqBwk9UPjn19AIA6OThI3RydnLl+8QHCt2hL3wkWJ5elP4uNiuXzxQkX+PEElEx5+j5joaHX7a+fgwM6tm3ll7DCJwVRgGMm7bNIMbx9f7t29zZcrljH5pTFcuVT6urN7+1bmzHyjQuVr2rwlTZq1wNPbh8sXLvD6pJf5Z/NfFZLH40LoiKXjwf0YXho9lE3/9zNm5ubUqFELUzMz9u3eyZY/f5eEzcnO5svPlzPrtamcO3saFzc3sjMz+f3njUx5aYxW2cjJyebyxQukp6aVSqbS5vOkGDb6Rdb99CtNmrWolPwFVZsTR48wfuQQzpw6gbOzC4HVg1DkKPhx/VouXjhXaXIlxMdz+eIFNn5X8iLIDWu/KlN9FQiMwRidwtgwmzf9XqJefe70Kfbs+oc7t28aTOtp1dsFAsGzh9gJLhA8Brb9swNfH29GjxjBpytXkZaWhp2OlakeHu5MnThB/Zz6WhrjJ01mzrwF7Nq6GVNT46poeno6L0+eQp3atdi66Q/JTnKA/Px88vLzy/ejBAKBQFCh1G/QiDHjX1E/K6a9zoypE1izagUbfv69hJhPVi5Q7c5ZseQjln40jxWrv0Emk1WSdFCvfkNGjB2vfh43YTITx47kr99/5d25CypNLsF/A131ozjF/Y4eOsjhA/sYPGwkLq5uT0I8wVOOq7u7pAylT0lj1mtTWb74Izb+9hcmRuoGAu13CRATFcnSRQuY//67rPvpV5ydXSpJOpV8xfsypVLJ+zNn8PPG7+nzwqBKk0tQsaz+bDmuLm6sWP2N1gkESqVS8vzNlys5fvQwH3/2JY2aNFW7Z2VmsXrlcr78fDlOLq607dCxXDI9qXxKi4mJCX7+gU80T8HTQX5eHp8uXsDz/QYw9fW3tPw161JlcOr4UW5dv0rNOvW0/M6cPMGNqyGVIJVAUDY2bljLwk8+0+n3oxGnXhUi9HaBQFBVEFq0QPAY2LL9H/r07k2Pbl35ZMVn7Nl/gEED+huMZ29vx+QJL/P27DmE3gujZo1go/L7dOUqTE1NWb5kMZaWllr+JiYmmJiYqJ8vXwlhz/79RERGYmZmRqMGDRgxdAhmZmYA/PC/n/ny628AeGXKVADmfzAHP1/VEb0x9++z6a+/uX03FF8fb0YOG4a/n8rvrXffo0ZwsMS4f/3GTb5au5b+ffrQo1tXtfv+g4fY9PdmVn++ArlcblCut955j/r16vLyuBclv++b9d+RmZnJW6+/ZtT7ElQu2VlZzHv/bd6du4DD+/dx/eoV5HI57Tp2oX2nzlrhL50/x5FDB0hOTKB+oybUb9iIn75fx4KPP5WEC7l0kcMH9xH78AHBNWszaPhIrK2s1f4PH9xnx9bNRITfw9LSiurBNejYpTsenp4sWzifC+dUJzDExT3EytpaK31jyc/P5+Txo5w/c4rYhw+wd3CkTbuOkt+mfgdz5nNo/16uXwvB1MSULj160qJ1G+7cusmRg/sJu3cXb18/ho4YjbOLdHFLfFws679eTXhYKF7ePnTu1oO69Rtqv78L5zlycD/JiQnUa9iY1BTpUb7GyCt4MphbWNCtZ2/Wf/UlOdnZWFhaGvw+8XGxLFs0n4FDR9KmfQd1Wnt37eDIof1MnPYavn4Bavf/fb8ehULBy5OnlUq2Zi1aMm3GTBbNe599u3fSvdfzRpUdfXWrIsudvb0D1aoHUVBQoHaLjoxg1adLmTl7Lh6eXmr3X37cQFZWFq9MeVWSxr27d9j37y7Cw0JxcHSidZv2tO/cRWd+10Iu88O6bxjz0kQaNm6idi+pDarINkYgKIlbN69zaN9eoiLD8fb1o3vP3jqP5zSmDymp3xQ8GWzt7Bg17iWWzP+AiPAwqgUFs3L5x3To3A1TExMOHdhLWloqb73zAVbWqqOuExMT2LHlb+7euYWjozMt27ST9A+FpKYks33zX9y5fRNTUzPq1m9I7779sXikSzx8cJ+dWzdz714oXt7e9B84FG/fous6MjIz2L1tKzeuXyU3V0G1oBq0bNWG2vXqG+VvTB4AMVFR7PpHdfxtUHBNPMtxZYi3rx8fLFjEhLEj+P7br5k5+wMAblwN4cihA8RER2JqZkbdug3oN3Awpo90kE2//cIP61UnebwzQ9V/vvnO+3j5+BqMaywymYyGjZsQFnpX4j73nbfo3e8FiUHy1PGjbP3rDxZ/ukoS1tA3LU5KchIrli6iSbOWDBw6XO1e+E0unD3D+TPBTHxpvFrPM6QjCrS5ef0aXZ/rqfMI/uILCm/euMauf7Yya86HEsM0gJW1FTPf+4Dwe6F8/cVntGjVukxH+pc1n8MH9nFg727mLV4mCb9o7mzad+pK5+49JO779uzi/JnT5CoUNGnegl59+qt/69Url9i2+U9ee/Ntdm7fytUrl+jQpRtdu/fk6pVL/Lj+Wz5augLLYkf3l5QeqMZl+/7dRezDB7i6uhNUowbP9e6LuYVFmd6RoOoRGRFORmYGDRo31elfvDw8fHCffbt3Eh52j+zsLAICqzNw2AicnKRH7GdmZbL1r03cuXEdV3d3WrfrQMjlSwRWC5LoIznZ2Wzb/Cc3roZga2dHp249tE4rsLK2okGjJvy4YR2Ll6/Ukm/jhrUMGDyULX9KT2c0VtbiFBQUsGblp+Tn5fHazHfV83yG5Nz2959kZ2fRpn0H9uzcQXhYKGPGTyC4Zi29eQn+m3Ts0o3DB/Zx42qIZMwGqvFHTFQE3Xr0IjomqtRp69LbCzE0nweG57ays7L48L2ZvDdvIWdPneTc6ZN4ennz0qSp6jDG6koVMT8gEAiqDuI4dIGggrl05Qph4eH06dUTVxcXmjdtwo7du42O7/doYict3bhjkgoKCti+cxdjR43UaQDXJCkpiUnTpxMdHUNgQABmpmasXL2Gt96drQ5Tt3ZtXF1UOyN6dOtGj27dsLO1BeBKyFWGjRnLndBQ6tetw63btxk6egw3b98GwM7Wlk1//S3Jc9eePRw6cpQ/NNx37N6NmZkpcrncKLmcXZz5+bffJCt98/Ly+N+vv+Lv52fU+xJUPgUF+Vw6f45RA/ty/uwpvLx9SE9LY9GHs9m++U9J2L9++5XZM18nOSkBLx9f9u/9l+kTx3P6xHFJuH+2/M37b79BXl4e1YNrsn/PLqZPGE9OdjYAUZHhTH35RS5dPE9AYHUcHB05c/IE2dmZADRr3VqdVofO3WjdTnuy2FhOHD3Cms+Wk5OTQ2C1IJITE1j04Wz++u1X7XcwuB+XLp7D29ePhIQ45r77FjNfm8JHH7xHakoKfv6BHNq3l+mTXiIjM0OSz5qVn3Ln1k0CqwVx/WoIs16byp5d/2i/v7deU7+/A/v28NvPG8nMSC+VvIInR15uLvYOjuoJa0Pfx9XNnbjYWA4d2CNJZ+tfmzh1/BhHDx5QuymVSrZv+QunMu58a9+5C55e3ly+eN4o2UB/3arIchcTFcWtmzfo2LW72q3wzthsjTtjw8Pvce/uHYnboX17mTHlFaIiwwkKrklqSjL79+7SmVdkRBjz3nuboJq1JAquoTaoItsYgUAfu/7ZxluvTiY29gEBgdW5dO4cM6ZM4MiB/VphDfUhhvpNwZOj8M7g9Ee6we0bN1i7ehUfzp5FfFwslhZWagP4rZvXmTJ+DBfOnSUgoBrxcbEsmPMO366RGkvDw0KZ8vJYTh47ip9/ICYmJmzb/KfakHDz2lVenTCOsLBQatWuQ+id20yb8CKhd1XjfYVCwdvTp7Jt8584OTsTUC2IO7duEBkZbpS/MXkAXLl0gekTxnH50gX8A6px6+Z1Pl1cvp1D7h6edO7aXX0kekpyErNnvc7D+zH4+gVgZmLGd2u/YuGH76vj1KhZW71rvEPnbnTo3A0bW1uj4hpLdlYWJ44eoVO37hL3kCsXSYiPk7glxMdz5dJFiZuhb6qZ14fvziI9LZ0+/V9Quxf/Jj4+vtwLuyfR80rSEQW68fH358ihA0SEh5UY7vjhQzg4OtK1e0+d/nK5nJEvvkRc7EPu3burM4wxlCWfuNiHXL1yRSvstZArxMZKr8n5ZOE8vvt6DS4urri6u7Nu9RcsX1RUZ1NTUjm4dw+z35rBjm2bsbaywcbaVu13+eIFCgryjU7v4N49zHptKokJ8dSuWx+lsoAjB/eXehGKoGrj4emNiakpW//8XaLH6mL+++9w6cI5nF1dcXP3ZPeO7UyfMJ7MrKLxS3JSEtMnjGfn1s14eHmTlpLK4g/n8L/v1xMfF6sOl5aWyowpEzi4bw+BQcHk5eYyZ9Yb7Ny+RSvfca9M4vyZ01y9cknifvzIYR7ExPDCkOFacYyRVZOvVn3G0UMHGTbqRbUB3Bg5Y6Ij+XvTb8ycPpVLF89jaWWFvYNDie9S8N+kVp26tGnfgR+/WytxVyqVbNywniHDR2FjV7a+X5feDoZ1aTBubqvwvu45s95g/derQQY2xcYpxupKFTE/IBAIqhZiJ7hAUMFs2badBvXrqY2yz3XvzpJly4mLi9c6plwXN2/fRi6XU6tGDaPyCwuPQKFQEBxU3ajwTk5OHPp3NxbFVka3b9eG2XPnEREZhb+fLy2bN2PksKH8/udfjBg6RB1OqVSyZNlyenTtxrw5KuP0pFdeZuK0V/nyq69Z/flndO3cmb+3buPO3bsEBwUBcOjIEbp27sShI0fVR8MXFBRw4tRpZr0xw2i5+j//PL9v+pNLV67QuKFqt9KpM2fIzs7huW7djPr9gqrDgMFDJceZLZ4/h7/++D/6vjAYgNiHD/h+/TdMenUGLwwZpg7Xt3tH8nJz1c+JiQms+/pL3nznfbp0fw6AQUNHMH7kYLZt+Yshw0exf8+/2NjY8PmatTonA7v16MXenTtwdnah38DB5fpdbdq1p22HjsjlRevMVi7/mD9//5VBw0dKwr4wZBhTXntT/fzOjGlcvniBP7bvxs7OHoDn+w1gwtgRHNm/j159i06UaNS0GUs//xJQLYZZMn8O365eRdv2HbGxtTP6/ZVGXsHj5eGD+/yz5W+69eyldjPm+7Tt0Ik9u3agVCqRyWQkJiZw5/ZNWrdrz/Ejh9VHkN29fYvkpCRat2tfZhn9AgIIfzSRa4xs+upWWctdVnYmv/28ketXVZOx4WFhpCQnUa9hI1q3aVfq35OWlsrqz5czbsJkBg8fVWLYxIR4Pnj7TZq2aMmkaUX3oRrTBlVkGyOoXA7s/Vdd/oqjeerAkyYxIZ5vV3/OpGmv03+Qauw27pVJzJv9tmpHX+s2kp11hvoQQ/2m4MkRevcOcrmcoOAi3SA8LJRf/t4uOc5bqVSyesVyGjZpwpz5i9Xf7deN37Nxwzq6dH+OmrXqALDm80+pVbsOcxculbTDhemsWbmCDp26MuPt9wAY+eJLvPfmdH5Y9w0fLV3B9ZArhN69zfe//IGXjp3ZhvyNyaOgoIA1n6+gaYuWvL9gsVrOb1ev5O8/fivPK8U/sBp7du0gJzsbB0cnftu8U7JrtHmbNixbOJ+YqCi8fX1p1KQp/QcNYfuWv7XacENx9XHjaoh6V3lKUjLh4fcAWPBJ2U4JKembFic/P5/F8+eQmZnJZ199q5Zd85ucOnSIFo3qMn/hArWep09HFOjntbfe5sN3ZzFl/GgaNGpMx87d6Ny9Bza20qvSwsNC8Q8ILLG9LWwDIu7dU9fl0vI48zl1/BhHDh1g/U//h6eXNwCt23bgnRnTeGHYcElajZo20zqVpyzpbd/6F126PcfbH8wzWk7B04eVtRVvvP0ea1auYNTg/rRs3ZaOXbvTpl0HyYmHAKu+Xi9pk4eMGMUrY4ZzeN9etS790/frKMjP56vvflTXxbB7d5kyfowkrf/76UcAPl+zVn36gqe3D999s4bnevWRXFESVKMW7Tp1ZuOGdXzy+WpA1a7+9P06Bo8cLTHElUZWiTz/+5G9u3fwycrVkv7FWDkT4+NZtuorYagTGGTcK5OZ+vJYrly6QINGqvJy7Mgh4h4+oP+QYfyw9muDaRirtxujSxs7t1XIvbt32HHgmGQ8ZKyuVBHzAwKBoOohdoILBBVITk4Ou/bspU+vIgNG9y6q41J27dmjLxoAWVlZHDpylC/WfMX4sWOwNXJV/f0H9wGwsZYeEzNx2nSatG4r+ZeQmAggMTQDtGqhOiYpMiqyxLwiIiO5ev06QwYV7RiQyWQ81707IdeuAdCmVUtsrK05fvLUozhRRERGMeeddzAzM+PIMdUO3sshIWRkZNCpfZExxpBcDRvUx9/Pj737i3Y27t6zl47t22Fvr33nuqBq07ip9BixJs1a8iAmRn000pkTxzE3NdOabHxp4hTJxNHJY0eRI6NTsdWktnZ2NGvRilvXVeXSxsaGhPg4du/YTnaWdGdoRWNiaqo1+dikaQsS4uNQ5ORI3Bs1aS55bty0OXZ29moDOKiO7nR1cycmWnrcVP9BQ9V/y+Vyxk2YTHpaGtdCVPeNnT5xzKj3Vxp5BRXLbz9v5J0Z05gxdQK9OrVh3PBB1G3QgJcmFh3XZcz3adexE6kpydy9fQuA08ePEVyrDoOGjeLWzevqHQ1nT58ksFqQeldhWbC3c0CZX2C0bPooa1y53BQTExNatW1Pq7btGTJiFL369OPWjeu8MW0iuQpFqX7PiaNHyFHk8MLgYSWGy8xIZ87bb+Lh6cXb738omTw2pg0SPDu4eXjQsEkzrX/GnMbzODl5/BgymQl9BgxUu5mYmjL2lYmqhTG3bkrCG+pDnmS/KdBNdlYWp44f44e1XzNkxGisbYp0g+69nte6zzomKpJbN68zdOQYSRs1dOQYbGxtOXvyBAAP7sdw+eIFhgwfrdNYWphO7/4D1G4ymYyOXbpz68Z1AKxtbAD4e9NvJCbEa6VhyN+YPCIjwwm7d5dho8ZI5Ozao5dWeqXF9tE4q6BAdbqU5rHJjZuqxmcxRhz1WZ64hX1Zjz59GTR8JM7OLkwcO4KYqNIdMWromxaiVCpZtfxj7t6+zaLln0vGm/q+SXE9T1B6goJrsvH3v3l37gIKCpSsXvkpo4cM4MvPlknqRlJSEhYW2v1I8RPQHB2dALROuSkNjzOfA/t207R5C7XBGqBh4yY4OTlz+/p1SdgRY17UjF6m9GxsbLh44RwXzp3Rebyu4NmhR68+/LxpCy++NJHQO3dYNHc2Lw4byK8bvyc/L08dTrNN9vTyxsvLR6JLHzt8kD4DBkp04sBqQepTVQo5sPdfuvd+XnL9QKdu3UlPSyM6WrudHvvyRK5cvMDli6qTRo4ePEBCfDwDBg7VCmusrIXs3bWDnzasY878xdSqXbdMcnp4egoDuMAoAqsH0bFrN37asB5Q9RH/27CeoaPGaB1Rrg9j9XZjdGlj57YKmTn7A63xkLG6UkXMDwgEgqqH2AkuEFQg+w4cJD09nd///JN9B4oMtQUFBXz344+MHSXd3Xb5SghNWrcFVKvyra2tmDB+POPHSleglkThjvPQe2HUr1dP7T7rzRmkpamOTTx95izfrP9O7adQKDh5+gxnzp0jLj6emJj7j9y1V9AVJyw8AoCZ776Hq2vRrvbk5BTS01VHNZubm9OhXTtOnDrNi6NHcejIEVo2b4abmysd2rVl/6FDPN+rJ0ePn6BRgwY4OzuVSq7+fZ7nry1bmPXGDPLy8th/6BALP/zQ6PclqLpYWllKJi+ioiNx9/LSWt2tSXRkBJlZmbw1fbLE/WFMDNUfnajQ74XBhIWGsmblp6xZ+SmtWrflhSHDqd+occX/ECA1NYUzp05w7cpl0lJTOX1StfgjLy+3xPvpLCwtKSg2CaV2t7CkID9f4iaXSQf1vn4BmJmbq5Xm6Ogoo95feeQVlJ/mrdoAcO/ObRQKBZOnzcBc455HQ9+nTr0GOLu4cv7saYJr1uLk8SO07dCR+g0b4eTkzMljR+j7wmDOnDpBax33wpaGmJhoAqsXnTxSnrJTlrgW5ub0HTBQa1V2l+49effN6ezYtoUBg3VPNOkiKiIcN3cPyU4OXWz67Rfu3b3DkhVfaB2xaUwbJHh2qN+gEWPGv1LZYmgRFRmOh6enVptfvXowMpmMmJhoSZ9nqA950v2mQMWNqyH06apaIJqfn4+VtRXDR49j6IjRknB2dtoTflGRqnG6j4/0iiBTMzP8A6qpJ8ILw3n56F4QFRWpWny6+MP3cXIpGu+npqSQkaEa79eoVZtXprzKH7/+zLa//6ROvQb0HziEDl26YmJiYtDfmDzuR0UD4O3rb/C9lZYH0VF4eHqpDR65CgUXzp3l0oVzJCbE8/DBg0fuJetG5Ylbu159rb5s2MixTBo3ig3fruGDhR8b/XsMfdNCLl04z727d+j5fF88PD010pB+k/TUVH61sSIzI1Ot5wnKhomJCZ26dqdT1+7ExT5k357d/PLDd1wPCeGrDRsB8PXx49q1EEm8hPg45sx6k3fnzqdaULB6YYV/oHEnwOniceYTHRnJ7Zs3eGPaRIl7RmYG6RpHWBtjLDAmvcmvzmDVik+Y/dbr2Ns70KXHcwwYNKzEUxgETy82tnYMGj6SQcNHcvf2Tbb9/Sc/freWlJRkyelq169e4fzZM8RER5GRnkZUZDi5uSqDW0ZmBslJSXj7lnydXlZmFokJ8az/6kuOHiqa2ys0uGemax/LHhBQjS7dnuPH775l+aqv+N/36xk2eixW1lbkpupeqFuSrIVkZKTz1coVWFpZ07xVa4lfaeS0tbVHIDCWsS9NYKawzQwAACAASURBVNKLo7h4/iwpSckkJyfS7wXjTzQzVm83RpcuzdwW6C7rxupKFTE/IBAIqh7CCC4QVCBbtm8HoGePHhL3sPAI4uLjCY+IIMC/aCLHwtycr79U3dHn7uaGr49Piav3deHr44ONtTV7Dxygf98+avfix6nHJySo/05PT2fSq6+Rl59P3969aNGsGfn5+cyY9bbBvCwtVUaJsaNGUaumdGK/+ECiW9fOfDD/IxQKBQcPH1a/j+e6d2PewkUoFAqOHT/Bc92LjjA3Vq6+zz/Pmm/XcvX6dZKSkpDL5HRo19aINyV42rC0tCI1JcVguEJj2cuTpgFSA7KDo6M6zMzZHzBx2nSOHDzAof17mPX6VF6f+S7PF7sLsSK4e+cWc2a9Qd36DWjRui3u7p54e/vwfz9vrNB8NCnIzyc/Lw8nZ2fA+PdXWfIKYPjoFxk2aiwAz/XuyyujhvLd2q94+/2ihT3GfB+ZTEabDh05d+YULwwexvmzZ3hlyqvI5XLadurM8SOH6NqjJzeuhjB52mtlljc1JZl7oXfo2qOn0bLpo6LLXaOmzfD08ub2rRsSd6WORSXFKSgo0DmJpcnQUWPY9MvPrPh4IV+u3YBzMaONMW2QQFDRKAsKJGNGCwtLUlKStcLl5ipQKpXqvkEfmn3Ik+w3BUWYm5uzaPnnALi6uuHpbbxuYPHoNILUlGRsNYzkOdnZ6p3jyke7nzMy0iVtWVE6qjZt4NCRVA8OlvgVH+8PHTmGFwYP49SJ4xw/fJBli+dz4vhhZn+40KC/MXlYWhX+nhSt31NeLlw4R3CtWoBqJ8/st2aQl59Ptx49adREpYMsmPOOwXTKE1cXjk5OtG7bjksXzkncDfVlhr5pIY2aNKVW7Trs2bWDrj160ahpM7Wf5je5fukSdYIDcXVxMnrSWWAYN3cPRox+EQtzC75dvZKYqEi8ff0IDAriwL5/Cbt3l8BqqivFXFzdaN22HTNfm8pHHy/nxvWrmJiaShYjlpYy52OgDIKq3/D29ePlSVO1/HwMGBzLmp63rx+ffL6aqMhwjh48wJ7dO9mxbQurvllP9SCxEPFZJqhGLd54531SUpI5fHC/2gi+avlSTh47Qp8BA2nboRO2NrbcLHaahYWZOXK5nDQDerKpqQlyuZx2nTrrNPwFVg/SGW/MS68wYewIVixdRGpqCv0GDNKbhyFZC7GxsWXMyxP5dPECft34PaPGvVxuOQUCQ/j6BdC9Z282rP2GrIwMho96UXK1UlnR1NuN0aWNndsqCWN1pYqYHxAIBFUPYQQXCCqIBw8fcurMWZYu/Ijne/WU+I0cOoTOPXuzY/e/TJ04Qe1eq1ZNmjdtWq58ZTIZUyZOYMWqL9i2Yyf9nu9dYvijJ05w7cYNThzcj9WjAUz6ow4+RyE9glahcbdKcFAQcrmc1LS0EuXu0LYdSqWSg4ePcOHSZZYuVE2GdWzXjvz8Anb++y/Xbtzg44ULSi2Xt5cnzZs2Ye/+A8THJ9DruR6YGlihJ3g6CaxWnYT4OG7euCY58itdY0BavXrh5KmSho1Lrk/2Do70GTCQPgMG8u4br3L4wD7JZL4ir3RHKetix9bNeHr78OGiT9RuWY/hKNnw8Hu0Kbar9+L5cyiVSvU9fsa+vyclr6BkHJ2cGD52HN+v/ZoBAwdTs47qZA9jv0+7Dp358L2ZnDh2BDd3D/z8AwHo2Lkb78+aweED+3FwdKKGxvF5pWH916txdXWnV59+pZINtOvW4yh3SqUS10fKZ+GVIvFxcepJXkByXCKAr58/SUmJkslgXVhZWjNvyTJen/wyCz54j09XfaU+crA0bVBFtDECAcDd2zdxc3dXPwdWq05ifLxWm3/u9GlMTEwI0jAGGOpDCjHUbwoqluo1ahpsR/ThHxCIXC7n+NHDDCm2czwhPo7w8HuMGDMOKDIeXTx3Tt1XFCegWnXkcjnp6WkGZTEzN6d9p86079QZH39/fv3pBwqKLdDQ529MHv7+j37PscMMKbaLqLxXtezdtYPQO7eZNfsDAM6cOsntWzf4a8de9eRu5qNdpgoN3ShXQzcqTVxjKVAqcXZxUz/b2NiprzUpJE+jLzP0TQuRyWRMf/NtIiMiWPTh+3yxdoP6ihTNb5KVkkaD+vXw8XLXSkdTRxSUHnt71S61wmsOevcdwB+//sy3X65i0bLP1DvQxk+aio2dHbNeVxmCh49+EXt7hzLnW5Z8bGztSE9PIyc7W73YBrTLYbXqwYTf+5fqQTUqZOFKadLz9QtgxNjxDBw6guEvPM+pY0eFEfw/gp2dPXY2qvKRlJTIzu1bWLx8Jc1atlKHSUpK5Orly4DqdBQfX3+OHz2kde92VmaRLmJmbo6fXwApSUml6pe9fHx5rndfdm7fwpTX3pTUmeIYI2txuj/Xi/DQu/z0/XoCqwfTtkPHcskpEBjD6PGvMG64aiFH8WPEy0txvd0YXdrYua2SMFZXqoj5AYFAUPUQd4ILBBXEtn92YGFhQZdOHbX8HB0dadWiOTt27X4seY8dNZJ2bdowZ958PljwEecvXCQlNZWU1FQuXLrEz7/+hlwux0Qux8rSioKCArbv3EVGZiapqWl8vU51z4uFedHxs15eniQlJXH46DFAtRrOxdmZYYMHseHHjWzd/g95eXkUFBRw5+5dIiKL7hO3traiTauWLPvsc+rUroWbm2pwY2VlRYd2bVm0dBn+fn4EBgSo4xgrF0C/Pn3YuXs3+w8dot/zzz+WdyqofNp37IyXjy/LFi3g1vWr5OflcS3kMr9u/J6M9DR1uLYdO1E9qAafLV3M1SuXUCqV5CoUXAu5rA4XcukiZ06dUCu2kRFhhN27J7kb2cPTk4tnzxIX+9DgnXL5eXnkKhRa/0C1SjUqIpxLF86Tn5fHg/sxLJk/p6JfDz+s/ZrLF8+Tl5vLjashfPnZMjp364GPn+q0CWPf35OSV2CYgUOG4+7hqT4hBIz/Po2aNMXS0pK1a76gXYdOavcGjRpjZ2fHV198Rut27Ut9V1VqagqXL15g9luvc/zoYd567321cmesbLrqVkWWu5TkJH78bi1JiQl06qY6ecTDyxtXN3d+/mGD+p7xU8ePcfTQQZTFVph36NoNRycnPvt4MfdjVEfvZmVmcS1Ee/LJw9OTuR8t4c6tm6xaUWS8N6YN0vceBIKS+pPiFBQUcPrEcdLSUrl98wanThynafOiSdP2HTvj4+df1Obn53P18iW+Wb2SfgMH4+wq3Z1gqA8xpt8UVC2cXVzp3rM3P//4HYf27yVXoeDB/RiWfjSPgMDqtOvUGQBvX1+atWzFT9+v59KF8yiVSgoKCrhw7gwATk7O9BkwkN9/+Ym9u3aQ/2i8H3bvLjFRqvF+7MMH7Nu9k+SkJACSk5IIuXQRdw9P5HK5QX9j8nB2daVLj578/MN6Du3fi0KhICYqko/mzi71u8nJzub2zRt8/cVnfL78YyZMma42Fls+0kH279lNZlYm6Wlp/PSD6hop82I6iJunJynJSZw+obq6o6CgwOi4xpCdlcXhA/s4fGAfzz1fdLpXg0aN2fXPNm7euKbSu27d5KtVK1AUaycMfdPimJqZMXfhx1hZW7Pg/XfJzMoEtL97QX6+Tj1Pl44o0M/KZUv4Z8vfhN69TWpqComJCRw5sJ/1X6+mbYeOODqprgaztbPj1RkzuXzxPG+9NoWL58+SmZFOQnycpP3WtdMsLy9Xqw/RXPRXSFnyqVu/AQBrv/6S7KwsUlNT2Lzpd1JTpbvyho4cQ15eHovnzVFfC5CRnsal89KTDYzFmPQO7dvLretXycvNJT8/nwvnzpKdlYWn6KueKRLi4/h08QIOH9hHVGQ4mRnpPHxwnz9+/R97d++k96PFeRbmql3eRw8dIDE+nlyFgsMH9gFQq26R0WvoqDGcPnGcjRvWkZ6WRnJSEt+v/Vor37EvT+TyxQt8u2aVuq2Mi33IzRvau7Ul8V6ZyBvvvF/iokFjZS3OS5Om0rxVa5YvmU9Y6N1yyyl4tjBGpzBW7yjEw9OLhZ98xmdrvq2Qa/J06e3G6NLGzm2VhLG6UkXMDwgEgqqH2D4pEFQQW7Zvp1vnzupdzJr07N6d+YuXcO36DerWqV2hecvlcr5a9Tmbt21n7Xcb2Lr9H7Wfhbk5nTt2ZOG8uTg6OtKhXVv69OrFwo+XsviTZSrZenTHQmPF2nPduvHn31uY/uZb2NrY8OqUyYweMZyZM17H0tKS+YuXsGDJx5ibmZGjUPD6tKmSu8y7denCoSNHGTV8mFa6e/cf0FosYKxcAD26deXDjxbi7eVJg/r1tPwFzwYmpqZ8tHQ5S+bP5fUpE5DL5bi4utGidRuuhRTdZWdiYsJHn3zKl58tZ+b0KVhbWaPIy8Xc3IL5S5bRsHETbt+6yf82rCMjMwNzCwsUOTnUb9SY8ROL7h0aOnIMZ0+fYtzwQZhbWPDZmm/17iDY9NsvbPrtF4mbvYMjv2/dydCRY7h47izvvqE6jtrC0oIOXbpyaN/eCn0/gdWDePeN6chkMpRKJV2792T6W0XHb+p7f31fGMyBvf9KfveTkFdgGDNzc16ePI2PF8zl4N49dO7ew+jvY2JiQqu27dm3e6fECC6Xy2nboRM7tm6mTTvtRVq6+P2Xn9j0fz+rJ9GtrK1o2aYd6376P5ycio5UNlY2XXWrPOXuj1//x99//B+gujM3Pz+fwGpBzFu8jGpBwerf/c4H8/l4/geMHtwfuVyOn18AjZo0RUbRQgAbaxvmL17GsiULeGnkEGzt7MjMyKBV23bMW7xMK+/6jRoz/c1ZrFq+lOrVgxk0fKRRbZC+9yB2KT19FNYPTTp3f05ylYGxlNSfFCf8XiiL5r2v3gVbr0Ejxk0o6sNMTE1ZuHQFSxfNV7f5MpmMAUOG8fJE7aNkDfUhxvSbgqrHlBlvUZCfz9KPPkQmk1FQUEDzlq2ZPX+h5Fj1me99wIqPF/LuG6+q2yw3dw9WfbMee3sHJk59DQsLSz5f/jErP12KuakZObkKXpo4hSEjRvPgfgw/rP+W5Us+UpcPTy9v3p07H8CgP2AwD4Bpb8wkJyebjxfMRS6XY2llTe++/dm86TeD70LzfnUTU1Nq16nHyq/WUaNWkS7WonUbunbvyRcrPmH158sB6Ni1G+YaOkjHTl3ZtW0rH743ExtrG8a+Mon+g4YYFVcXN69dpX8PVX9doFSSl5uLg6MTL02cSu++A9ThJkydTmTE28yY/ApyuRxbWzs6devOiSOHJekZ+qbFcXRyYt6ST3jr1cksXzSfDxd9gkwmk3wTlEoszM1R5OZK9Dx9OqJAm5zsbKxsbPhl4/ckxMep3c3NzenVtz8vTZwmCd+pW3e8fH1YvWI578+coV5g4OjkxOhxL+Pt58fnnyxBqVTywpAiHXvebO1rzdp37sIHC5bolKu0+fgHBDLp1Rms/2Y1O7duBqB5q9Za98p7eHqy5NOVrFr+CeOGD8TOzp709DTcPTz46ruN2NiWbne4MekdP3aIowcPUFBQgJmZGXl5eTzfbwCdunYvVV6Cqk1OdjYFBUpWfrJEbeQF1eKdSa/OUNcHaxtbJk9/Q1VWt29BLpdTp14D/PwDJacH9uj1PAlxsfzvh+/4deP3mJqZ0b5jZ617fdt37sJb733A+q++ZPMfv2Fra0daWipt2nfQqScU4uzsoj45Sx/GylocuVzOe/MW8sbkCcx//x2+WLsBe3uHMsspeLYwRqcwVu8oTovWbcoskzF6uzG6tLFzWyVhrK5UEfMDAoGg6iFTGrpgSiAQGCQvL4+Lly8T4Oev3vWsSVZWFlevX8ffzw93NzdC74WhUORQ+9F9dPowNlxxMjIzCQ+PwMHBHi9PT513CT6MjSUuPh4/X18c7O25fecubm6uODoUTZIolUpCw8KQISMwwF+SjkKhIDwikvyCfHx9fLC1sdH5e2sG18DevkjhzVEouBISQvXAajg7O5VJLoDeAwbSv28fyfHygrKzY/8xPP388fSp+FXz169ewcnZBU8vb0C1YyTk8kUCqwdJJuWSk5KICL+n8wikhw8ekJ+Xi7evHz9tWMfRQwf59kdtI0RGZgbRkRFYWlrh7e0jUWTzcnN5+OA+aampuLi54ebuoRVfoVAQEXYPB0dHnf6Fv0fzOEwAU1NT6tZvqP6N0VERKBQK/PwCMLewIOTSReo2aIhcLtf7DuLjYnn44D71GjSSpH3zxjXs7R3w8vahoKCAa1cuU79RYxLj44mLj8XXPwAba2kd1Pf+8vPyuHH9qiQPQ/IKKh7NelGcK5cuYGdnr77DzdjvkxAfR3RUJA0aNZHs+E5MTCAqIpy69RpoTe7okquwfMtkMtw9vHD38NC7g9xY2XTVrbKUO836Z2FugZunp/quW01yFQoiIsJwcnTG2dVVtQsrPl7rfjylUknswwekJCXi6lGUnr66euNqCPn5+dRrKK2rJbVB+t6DsVw+e5YALzfq1KhWqnhVjeycHHbuP07dxo2xcyj7ka6Vgb72H8DJ2VnrGOLUlGTC7oXqrXvG9CfFyczKJDI8DEdHJ9w9PPXWy8SEeJISE/ALqKZljCtNH2JMvymoOCLCw8hV5BBUo+Qx/+2bN7C1tcXLx1dvmIzMDGIiI/Hy9inxGOGU5CQexMRg7+iIp5e3VpnKVSiIjlKN9z29fbTKycMHD0hOTMDWzg4vH1+tttuQvzF5gOpUkvi4WAKrqa5munnjGgEB1fTeTRkRHkZyUqL62cHJCV8fP/XRz7qIj4slISEebx9f7OzsCQu9i7Orq6TtVyqVRESodCNfvyLdyJi4JclnIjfB1d0dVzd3nfdvFxQUEBOt2o3t4+uPUqlU12NN9H1TXeUmMiKMpMREgmvVxtrKWu2ek5XN7m1baFA7iEYN6mnpeSXpiFWN+7HxnDx3hZYdOiCrJDmVSiVJSYnExT7E2toaD09vgwslFDk5RISH4eziItmVffb0SRwcHKlRqzaKnBxuXL+qM76DkxMBAYbHC8bkU0hGehox0dF4+/lhY23D/egoTM3MdPYNiYkJxD14oFUOU1NTCAu9S/2GjbXKTUl++tIDVd8Ye/8+OYocvLx9ynVcfHkJvXEDE2U+bZo1qDQZKorHOT9QVgoKCoiLjSU5MQFHZxfc3N11tj/paWlER0fi4uKKq5s7cbEPycvN1eo3FTk5REaE4ePrj5m5Of26d+T9eYto37mLVr4P78eQlpoi0RNANea6Hx2tpRNokp+fz9Url7SO9zck6/3oKNLT0yV1sVC38/L2kdS/kuTUlY7g2cEYncLYMG7uHri6aV+FUpyYqCiysjJKHLOWVm8Hw7o0lDy3pU9316QkXamQipofeJw8K/MDAsET4BNhBBcIBE8dFy5dYtyESWzd9LvkSHVB2dl75DT2Lq74BgZWtigGmTd7FpZWVsz+cGFliyIQCARPjPMnTlAnOICgAP2Gr6eB/PwCtv57iJr16uPkqn8SRCAQCASVgyInhwsnT9KpdVOcnZ6uxUqaJCSlcPjkeZq0bl0hR7kKBCVx88oV7K3MadawTmWLUm6epvmBiuD2zRu8Nukl1v30q9aiRoFAIKiKPCvzAwLBE+CTqrtkVyAQCPSwZfs/1KldSxjAKxB7W2uyMjIqWwwt7ty6ya2b18nPzydXoWDX9q2cPXWS4aNfrGzRBAKB4ImRm6u679POxtpw4CqOiYkcKytLsjLSK1sUgUAgEOggM0N13LCt7dPf59g9+g2Fv0kgeJxkZWSoy9zTTlWdH6goDh/Yp77X/n5MNGtWraB95y7CAC4QCJ4KnqX5AYHgSSDuBBcIBE8VOTk5/LtnL5NeebmyRXmmcHZ04MadcJRKpd7jVSuDkMuX+O7bNeTn5QFg7+DA3IVLxT26AoHgP0VqUjIymQwnB/vKFqVCcHVyIDUlGW/EYjaBQCCoaqQmJWFjY425gStUngbMzcywsbEmNTkJRx1XcQkEFUVOVhY5OTk4Oz7dpycUUlXnByqCzIx0Nn63jiXzP8DM3JxchYJOXbvz+sx3Kls0gUAgMIpnbX5AIHjcCCO4QCB4qsjLz+eLzz6lds2alS3KM4WnuwtXbtwhNTkZB6eqM0H0wpBh9Hy+HzHRqnuB9N0nKRAIBM8ySfGxODs5YGb2bAzdPd1diL50nVyFAjMD96IKBAKB4MmhVCpJSojHz9PVcOCnBC93F6IexONfvXpliyJ4hkmIj8PczAyXp/wKgUKq6vxARWBtY8v6//0fD+7HkJKSjJ+fP9Y2tpUtlkAgEBjNszY/IBA8boQlQSAQPFXYWFvTvGlTbG2FklKR2NpY4+LkwMOY6MoWRQsrayuCatTCx89fGMAFAsF/DkVODknxCQT6elW2KBWGl7sbpqamxN6/X9miCAQCgaAYKUlJZGdl4f8M9TkBvl5kZ2WRnJhY2aIInlGUSiWxMffx8/F4ZnZNV+X5gYrC08ubWrXrCgO4QCB4qngW5wcEgseNsCYIBAKBAICaQQEkxSeQmpxc2aIIBAKB4BGRoaFYWlni6+Ve2aJUGCYmcoICfbkfFUmuQlHZ4ggEAoEAlSEvMjQUT3dX7G1tKlucCsPe1gZPd1ciQ0NRKpWVLY7gGeRhdDR5CgXBgX6VLUqFIuYHBAKBoOrxLM4PCASPG2EEFwgEAgEAnm4ueLq5EH77jpggEggEgipAemoK8bGxNKwd/MydhFGjmj/mZmZEhoZWtigCgUAgAB7GxJCdlUWD2kGVLUqF07BOMDlZWcTGxFS2KIJnjNxcBdER4dSo7o+1lWVli1OhiPkBgUAgqFo8y/MDAsHjRNQWgUAgEKhpUCeY7OwsYiIiKlsUgUAg+E+Tn59H6K3buLs64+Xx7NzNWoiJiZyGtYOJe/iQ5ISEyhZHIBAI/tNkZWUSHR5GcKAftjbWlS1OhWNjbUVQoB9R4WFkZWVWtjiCZwSlUsm9W7cwMzGhZnX/yhbnsSDmBwQCgaBq8KzPDwgEjxNhBBcIBAKBGlsbaxrXq0lUWBjxsbGVLY5AIBD8J1Eqldy9fh1lXi5NG9SubHEeG96eblTz9+HO9etkZqRXtjgCgUDwnyQvL5fbISHYWVtROzigssV5bNSuEYi9jQ03L18hNze3ssURPANE3rtHSmISzRvVxcTEpLLFeSyI+QGBQCCofP4r8wMCweNCGMEFAoFAICHA14vgQD/u3bop7v8SCASCJ4xSqSTs9i1Sk1No06whVpYWlS3SY6Vh3Ro4O9pz60oIOVlZlS2OQCAQ/KfIz8/jVshVUCpp07zhM2vIAzCRy2ndrD5yGdy+epX8/LzKFknwFPMwOob7kZE0bVAbV2fHyhbnsSLmBwQCgaDy+K/NDwgEjwNhBBcIBAKBFvVrB+Ht7srNK1eIe/CgssURCASC/wT5+fncDgkhITaWlo3r4uhgV9kiPXbkMhmtmtTHytKckAsXSEtJqWyRBAKB4D9BTnY21y5cJDc7i7bNG2Jhbl7ZIj12LMzNadu8IbnZWfx/e3cerlVZ7w38y4YNm5kQ2OAEgqYpqJlTqKUoyiA4hoqvZeU5Zqaeo2Xl26nespM2nMyxTlZqTmmTAyAyaA6gJamIEwqKkYgMMols2LDfP0xiC3uzH9ywdfH5XJfXpc9zr/v+rbV+z6M+X9Zazzz+RKpWrGjqkviAqampySszZublF1/IHrv2zg7bVjZ1SVuE3wcAtryt8fcB2Bya1dTU1DR1EQC8Pz0zfWaenzErPbbfPtv36pWyAl8dAtCUlr+5LDOffT6rq1fmwH365UOdOjR1SVvU6tWr89iTz+a1eQuyY+8+6bZtjzRr1qypywIopEULF2bmc8+ndeuW6b8VXlX01oqqTJoyNW+9tTK9d9s1nTp3buqS+ABYtbIqL02fniVvLMpH++221QTg6/L7AMCWsbX/PgCN6FIhOAD1+vurc/PkM9NTVtY82/funS7dujV1SQCFUV29Kn9/6eXMmzMnH+rYIfvtvXvatK5o6rKaRE1NTZ578eVMnzErrdu2Tc+d+6R9x2LfYhRgS1qx/K28MvPFvLFgYbbvUZmP9ts1LbbSEKt69eo8/tTzmT1nbj60Tefs2HvnVLRp3dRl8T5Us2ZN5vxjdl6d9UpatizP/nvvns6dOjZ1WU3G7wMAm4/fB6DRCcEB2LiqlavyzPSZmTV7Tlq3bpMuPbqnc5cuaVXhP8QASlVTU5Olixdnwbx5WfD63JQ3b549du2THbfr3tSlvS8se3N5pj77QubOW5gOnTqla/fu6dS5c1qUlzd1aQAfOGtWr87iRYuyYO5reWP+grRt1yZ77/7hwj/HuKHmL1yUJ56ZnjeXLc+HumyTbSq7p2OnTq5wJcuXLcvC+fMzb85rWb26Orv26Zmdd9ohzcs8WdLvAwCNx+8DsFkJwQFouMVLl2XmrNmZPWdeqqur07Jly1S0aZ0WLcoTt60FqFfN6tVZtWpVli9/M2tWr0n7dm3Ta4ce6bX9tmnRwo/t7/b6gjcyc9bszJ23MGvWrElF69ZpVdEqzVsIwwE2Zk11dVauXJkVy5enJknnTh2y047bZfse3Txu4l1qamoye87reemVf2ThoiVplqSibZu0LG+ZshYtmro8tqCaNWtSXV2dt5a/mepV1WnVqlV6bt89vXfcbqt7bEBD+H0AYNP5fQC2CCE4AKVbU1OThW8szhuLl+bN5W9l1apV8W8TgPo1b16Wli3L06Fd23Tp3Clt3Xa1QapXr878BW9k8dI3s/ytFVm1qrqpSwJ432vRonlatWqZju3bpWvnTmnVqmVTl/SBUFW1MvMWLsripctSVbUy1dWrm7oktqCysmYpLy9P+3Zt0rljh3Tq2L6pS/pA8PsAQOn8PgBbhBAcAAAAAAAAgMK41INsAAAAAAAAACgMITgATtISxwAAHP1JREFUAAAAAAAAhSEEBwAAAAAAAKAwhOAAAAAAAAAAFIYQHAAAAAAAAIDCEIIDAAAAAAAAUBhCcAAAAAAAAAAKQwgOAAAAAAAAQGEIwQEAAAAAAAAoDCE4AAAAAAAAAIUhBAcAAAAAAACgMITgAAAAAAAAABSGEBwAAAAAAACAwhCCAwAAAAAAAFAYQnAAAAAAAAAACkMIDgAAAAAAAEBhCMEBAAAAAAAAKAwhOAAAAAAAAACFIQQHAAC2ahdfcmn23O+Api6DRrY5z+vy5W9l1iuvbJa5m9Lr8+Zlz/0OyC9+9eumLmWrVUrfFrUPAQAAGkOLpi4AAAB4f5rx0ku57oYb8/Szz+Yfr76aVq1apXu3bjlw//1yzPBh6bPTTk1dYuHdevvv8t8/+GGt19q3b5/evXql9069cuJxx6Vf3z2aprgGeG3u3AwafmzWrFmTiy78Sk7+1IlNXVKj+Lezz85T057Ojb/6Zfbs17epy2kyf589O9ffdHMemzIlc+e+njU1Nans1i29d+qVIw8/PAMO/WQqKiq2WD0N7bd3Ple/+vk12XeffRpt3i1NHwIAANTNleAAAMB6xk2YmBNOHpm/PPZY9vvYPjnj9M/k+GOGp1evnrlz9Oi8OGNGU5e4VRlx4gm54Lxzc/555+b4Y4anffv2GTdhYk77/Bn53qU/TFVV1SbN+8KLMzLi1NMy4f77G7fgf7pr1OiUlZWlXbt2GX3P2M2yxuZS37HZdZdd0r2yMtts03nLF/Y+UF1dnWuvuz7Hnzwy9/35z+nVs2dO+tSJGXnSiOzZr29mvfL3XPStb2fp0mVbtK7N1W/v1z7eUB9u7s/0urbkWgAAAKVyJTgAAFDLm8uX56JvfTsf3Wuv/O9VV6S8vLzW+zU1NampqWmi6rZOgwYesd4Vq/Pmzc93vn9Jfvu736V164qcf+45Jc+7YsWKPDd9ehYvXtJYpdZy56jRObj/x1PZrTK3/f73eXXOa9m2R/fNslZjq+/YfPOirzdBRe8fl199TX5z8y0547On54zPnp5WLVuuN2bxkiXp2KHDFq1rc/Xb+7WPN9SHm/sz3VRrAQAAlMqV4AAAQC1PTZuWqqqqDD7qyPUC8CRp1qxZysr8r0RT69q1S376ox/kw7vsnN/cfEuef+GFpi6pliefeiqzXnklQwYdlaMGHp6amprcc++9TV0W79G0p5/ODTfdnM9++rScfea/bzAAT7LFA/DN1W/6GAAA4IPJleAAAEAtrVu3TvJ2+DPihOMbtM3iJUty+VVX57G/PZ558+alT+/e+cxpp+aIww6rNe7iSy7N89NfyI8u+e9ccc3PMvnRR1Peojx/uu3WjDz9c1mwcGEmjhmV5s2b19ru/K9+LU88OTXjR9+9NoBvjDU39rzihq6xYsWK3HjLrRk99t68OufVlDUry3bbbptTTzk5xw47usFjSlVWVpbzzz03Xzjn3IwdNz677rJLampq8tCkybnj7rvz3PPTM/f119Nlm22y7z775EtnnZnKbt2SJFf+7Of531/+Kkny7Yu/l29f/L0kyWMPP5jy8vIGzVGfO+8elbZt2uSwT3wi5eXl6bLNNhkz9t587jOfXm/sxZdcmn+8OiefP/3TufnW2zJ12rRUr67OPnvvnQvOOzfbbbttkjR43+py3IiT88biRZk4ZvR6f5Djgq99PVMefzwTRo/KNb+4ts5j07Jly1x8yaW57fd/yNS/PlprjlWrVuXaX1+XBydNzoyZM9Ohffvs89G9c97ZZ2fbHt1L7oFS9rehx/AdS5cuzU+vviaPTZmSV+e8lp169czwoUPrPX5J8tOrrkmnTh1z5hmf3+jYdyvlM1vKviSl9VspSu3jjX3XbKxH3vHUtKdz/U035cmpT2VV9aoN7vu7+7C+z3TLf/5hhYaeg43V+oc77qh3rc9/4azMX7Awd9z+21pzjrrnnnz9v75V63nsDTlupdQNAACQCMEBAIB32X233dJzxx1z16jRSU1NTjrxxPTru0eaNWu2wfHz5s3PKZ85PS1btswxRw9Nu3bt8uCkSTn/wq/la1++ICNPGlFr/JNPPZXPnXlWOnbokCMOOywtWrRIRUVFjh12dH502U/zl8em5OMH7L92/JvLl+fBhx7OKSeNWBtcNtaa9SlljS9//aJMfvQvGXj4gBw3fFiWLl2aF16ckbJ1jllDxmyKffbeK82aNctLL72c5O0r9X9yxZXpXlmZww87NG3btMnMl1/O6LFj8/iTT+Z3N9+YioqKHHXEEVm+fHluvOXWHLj//jn+2OFJkhYtWjR4jrqsXLky94wbnwGHHZpWrVolSY4YcFhuvf13mfnSy+m9U6/1tnl48uQ89fS0fPKQQ/J/Rp6S2bNn54933pVpTz+TP952a9q2afOe6xo2dEguu/KqTHn8iez3sX/dXn7FihV58OFJOfG4Y9O8efN6j01dVqxYkdP//czMmDEzRw8ZkkEDj8iiRYsy6dFHU17+9nal9kCp+9uQY5gkCxe+kVM+c3oWLV6c4UOHpntlt0ydNi2X/vh/6ty/5O3z+rcnnsj+++5b5xXgdSn1M9vQfXmnrlL7rSE2Zd76vmsa0iPv+OJ5/5GD+/fPqaecXO++r2tjfVvKOdhYrZvyGalPfcet1N4BAABIhOAAAMC7lJeX5+dXXpGfXH5FRo+9N3eNHpPulZU5esjgnHTiCetdbfvDyy7LmjVrctuNN6Rdu3ZJklNPPikXXvSNXHblVTnxuGPXXoX4jkFHDsw5Z32h1mtHDx6cy668KmPHjasVgk+8/8+pWrkyxxz9r6tUG2vN+jR0jXnz5ueBhx7OmWd8Pmef+e8bnKshYzZVRUVFunXtmpkvv7z2td/fctN6f2jhgP32y7e+e3EefuSRHH7oodll5z4ZfOSRufGWWzPoyIEZNHBgrfENmaMu9z3wQJYuXZqhRx219rWjBh6RW2//Xcbce2+dx+D2m25Mj+7/uhq27x575Jvf+W7Gjhuf448Z/p7rGjp4UC6/+pqMnzixVgj+wEMPZ8WKFRk2ZEiSbPTYbMi1112f56e/kJt+/avs/pHd1r5+7tlfTLLpPVDq/jbkGF5xzc8yf8GC3HrD9dll5z5rx95w08350WU/rbOW+QsWZtWqVenVc8f13hs/8b7Mff31Wq91aN8+w4a+fUw35TPbkH1JNr3fNmZT563ru2ZjPbKu66/9Ra2Qva59X9fG+raUc7CxWrt26VLyZ2Rj6jpum9I7AAAAHuQHAACsZ9se3fPD738v99z5p5zx2dNTVtYs1/76ugwafmwuvOgbWbZsWZKkuro64yfel8FHHbk2nHjHoCMHZsWKFZkx86X15v/SF85c77XOnT+UQw7qn/H33Zfq6uq1r48Ze2/67rFH+vTu3ehr1qWUNcpblqdZs2aZ9MgjeW3u3A3O15Ax79W6t5Df0FX7B+y3b5Jk1qxXGjTfe5njjrtGpXPnD+XAdf4ww0f32itdu3TJmLFj69xu3cAzSQ79xCFJkpfWCfjfS12V3bpl/333zfj77ktNTc3a18eOH58+O+2Uj+y2a73b1+fW22/PwAEDagWG69rUHih1fzd2DNesWZO7x4zJ0YMH1QrAk7d7uz7vXK28ZOnS9d675bbbcumP/6fWX9ded32STf/MNqQfkk3vt43Z1Hnr+q7ZWI+s691Xmde17w1V6jkopdbGsqHjtqm9AwAA4EpwAACgTpXduuXcL56Vc876Qp6YOjU/+8W1uWfcuFStrMpPf/TDvPL32amurs5vbr4lv7n5lg3OsXLVyvVeq+vW6scOG5b7/vxAJj/6lxxyUP8sWrw4kx99NF//8gVrxzT2mhtSyhqdOnbMOV88Kz/7xbU5atgx2W3XD2fggAE57pjh2aZz5waP2VRVVVV5fd687PrhXda+VlNTk3ETJuahSZPy1NPPZMnSJZk3b36SZPXq1Q2ad1PnmL9gQR6aNClJcsttt9d6b978t7ef9swz6bv77hutoUP79knevi11Y+3bsKFD8n+/9e1MnTYte/Xrt/ZW6Gd+/nMb3bYu8xcsyJIlS9cLlde1qT3wXvf33cfwtblzU1VVlQ/vskt9m21Q1y5d0rFDh8zcQOj4y59dU+ufR5x6Wqr+ueamfmbfbUP90Jj9tq73Mu+Gvmsa0iP12dC+l6KUc/Bea91UGzpujdU7AADA1kcIDgAAbFSzZs3y0b32yjWX/zTHjjg5D02anJUrV6Zt27efTXvAfvvlP8/50ga37dN7pwav84mDD8o2nTvnnnHjcshB/TNuwsQ0b948g448cu2Yxl5zQ0pd44zTP5NPHX9c7h49JhPuuz9X/fx/c80vrs15Z38xnz51ZIPHbIonpk5NTU1NDtz/X1erXnjRN3LfAw/kpBNPyHlnfzHdu1dm2bJl+dyZZzV43k2d4+4x96z9+7qeMT1m7L0lh5Lvta53HHHYobn4ktYZP/G+7NWvXx546OFUVVVl6OBBm1RPkixatCjJ21dZ12dTeqAxzuW63glRV61atUnb79ynT6ZOm5a/z56dHbbfvkHbbM7P7Obqt8aet6E9srmUcg6autZ1bYnvewAAoJiE4AAAQIOVlZVll5375O+zZ2fNmjWp7NYtbdq0zpKlSxrltrnNmzfP0UMG5/d/uiMrV67MPffemwGf/GQ6dGi/dkxjr7khm7JGxw4dcurJJ+XUk0/KgoUL88Xz/iOXXXlVTjrxhLRq1arBY0pRU1OTn1xxZbbt0T0nHHtMkuTlWbMydvz4fO3LF2TkSSPWjn193rwkyT9efXWj876XOe68e1R22H77jPrj79d7b82aNRl49LDcM25cLjjv3JSVlfaErsbYt9atW+eIww7NuAkTc8F552bs+PHZ72P7pHtlZUm1rGv77bZLs2bN8sKMGRsdW0oPNMb+bqjW5s2bZ+pT00reNklOG3lK/uMrF+Z7P/hhfnZ53c8PX9fm/Mxurn5r7HlL6ZHNoZRz0Bi1lpeXr31sxnuxJb7vAQCAYvJMcAAAoJY3ly/PCy9uOPyY+dLLmfzoX7Jnv76pqKhIkhw3fHiefe753P6HPzbK+scOOzrLli3Ln+66O1MefyLHDBu63phGXfOft+CtetdthktZY93nSyfJNp0758D99091dXVWVFU1eEwpFi1enAsv+kaeefa5fONrX03r1q2TJG+88fZVnOs+Vz1JXpwxM0nt5yy3adP6n+/VPt+lzLGuZ597Pi/OmJGhg47a4PtlZWUZOGBA5s2bnymPP7HxnXyXkuqq47wmb98S/dU5czLl8cfz4MOTcvSQIeuNqevYbEhFRUX27Ns34yfel+dfeKHOcaX2wKaeh/q0aNEinzzk4Ey4//48+te/1nrvr1OmbHT7AYd+MkcecXgmTX4k55z/5bW3Bl9X1cqVefW1ObVea+zviWTz9dvmmLehPfJe1de3DT0HDa21vrV69eyZefPn59nnnq/1+p8ffGij+7CpdQMAAKzLleAAAEAto+8Zm+9+/5Js26NH9uzXNz26d095eXlenjUr9z/wYFpXVOS73/yvtePP/sKZmfzoo/nu9y/JXx+bkgP23zcVFRWZ/sKLWblyZb56wfklrd+nd+/03X33XHzJpenatUs+fsAB641pzDV77rBDkuSyK65M/wMPzCEH9S9pjVfnvJaRp5+eg/v3z869e6dt27Z59rnnctfoMfnEwQelY4cODRpTn3ETJub56W+HUW8sWpQZM2ZmyuOPp6x5WX7w3xfn4P791479yG67pntlZa64+ppMe/qZ9Ou7R16eNWttgLTuVas9d9wx3Ssr86c770r79u1T2a1bDunfv6Q51nXnqFFJksFHHbnB95PkqCOOyM2/vS1jxo7Nfh/bp979freS9q2O85ok+++7b7p17Zpvfufi1NTU5IgBh623Vl3HpmvXLhus7atfPj+f/bcz85kz/i0jR4zIzn36ZOEbb+SBhx7Od775jaxZU1NyD2zqediY8889J4/97W/5wjnnZdiQwdm5T59Mf/HF3Hn3qAZt/+1v/N90aN8+v//THTnmxBHZs1/ffHjnndOyVavM/sc/MmnyI1myZGlOO+WUtds09vdEsvn6bXPNu7EeeS93I3hHfX1byjloSK31rTXihBNy+x/+mDO/dE5GnHhC2rZpk8effDL3P/Bgyfu0OXoHAAAoPiE4AABQy3HDh6Vb164ZO258nn9heh6aNDllZc2y/Xbb5dMjT8mnTx2ZTp06rR3frm3b/PbG3+SXv74uD01+JA/85LK0alWRXj13zDFD17+KuyGOHT4s0555JsOGDNlg0NeYa5543LH565Qp+eOdd+bJqU/l4wfsnxYtWjR4jVatWuakE07Igw9PyoMPT8ryN99MZWVlTjvl5Hz+s6c3eEx9brnt9rV/372yMrvs3CefOuH4nDbylHTq2LHW2IqKilxz+WX50WWX5+FHHslfpjyWPT7ykdx83a/yX//vu7XGtmjRIlf85Me55Ic/zvU33pjKbpXp0b17Pn7A/g2e4x3V1dUZdc/Y7P6R3bJTr1517svee+2Zrl27ZNyEibnowq+kRYuG/29pKftW13lN3g6Pjx4yOL+6/oYMOnJg2rVtu95adR2bukLwvrvvnt/e+JtcfvXVuXvMPVm0eHG6de2agz5+YJo3b57y8rKSe6CU/S3FjjvskNtvujE/ufzKPPKXv2bchInp17dvbr3h+nz9m9/a6Pbt2rbNNy/6eoYOHpS7Ro/JizNm5Hd//FPatGmTXr165thhR+e0kSNrHavG/p7YXP22Oft4Yz3SGOrr21LOQUNqrW+t3jv1yrVXX5XLrrwqN91ya7pXVuaje++VW2+4Pqd+9nMl7dPm+HcMAABQfM1q3n0/NgAAACi4Cfffn//8yldz5U/+J584+KCmLgcAAABoPJd6JjgAAABbnXETJqZjhw7pf+D6t9sHAAAAPtiE4AAAAGxVlr35Zibcd3+OGDCgpNuxAwAAAB8MQnAAAAC2KveOG5+qqqoMPnJgU5cCAAAAbAZCcAAAALYqd9w9Ktt07px9P7ZPU5cCAAAAbAbNampqapq6CAAAAAAAAABoBJe6EhwAAAAAAACAwhCCAwAAAAAAAFAYQnAAAAAAAAAACkMIDgAAAAAAAEBhCMEBAAAAAAAAKAwhOAAAAAAAAACFIQQHAAAAAAAAoDCE4AAAAAAAAAAUhhAcAAAAAAAAgMIQggMAAAAAAABQGEJwAAAAAAAAAApDCA4AAAAAAABAYQjBAQAAAAAAACgMITgAAAAAAAAAhSEEBwAAAAAAAKAwhOAAAAAAAAAAFIYQHAAAAAAAAIDCEIIDAAAAAAAAUBhCcAAAAAAAAAAKQwgOAAAAAAAAQGEIwQEAAAAAAAAoDCE4AAAAAAAAAIUhBAcAAAAAAACgMITgAAAAAAAAABSGEBwAAAAAAACAwhCCAwAAAAAAAFAYQnAAAAAAAAAACkMIDgAAAAAAAEBhCMEBAAAAAAAAKAwhOAAAAAAAAACFIQQHAAAAAAAAoDCE4AAAAAAAAAAUhhAcAAAAAAAAgMIQggMAAAAAAABQGEJwAAAAAAAAAApDCA4AAAAAAABAYQjBAQAAAAAAACgMITgAAAAAAAAAhSEEBwAAAAAAAKAwhOAAAAAAAAAAFIYQHAAAAAAAAIDCEIIDAAAAAAAAUBhCcAAAAAAAAAAKQwgOAAAAAAAAQGEIwQEAAAAAAAAoDCE4AAAAAAAAAIUhBAcAAAAAAACgMITgAAAAAAAAABSGEBwAAAAAAACAwhCCAwAAAAAAAFAYQnAAAAAAAAAACkMIDgAAAAAAAEBhCMEBAAAAAAAAKAwhOAAAAAAAAACFIQQHAAAAAAAAoDCE4AAAAAAAAAAUhhAcAAAAAAAAgMIQggMAAAAAAABQGEJwAAAAAAAAAApDCA4AAAAAAABAYQjBAQAAAAAAACgMITgAAAAAAAAAhSEEBwAAAAAAAKAwhOAAAAAAAAAAFIYQHAAAAAAAAIDCEIIDAAAAAAAAUBhCcAAAAAAAAAAKQwgOAAAAAAAAQGEIwQEAAAAAAAAoDCE4AAAAAAAAAIUhBAcAAAAAAACgMITgAAAAAAAAABSGEBwAAAAAAACAwhCCAwAAAAAAAFAYQnAAAAAAAAAACkMIDgAAAAAAAEBhCMEBAAAAAAAAKAwhOAAAAAAAAACFIQQHAAAAAAAAoDCE4AAAAAAAAAAUhhAcAAAAAAAAgMIQggMAAAAAAABQGEJwAAAAAAAAAApDCA4AAAAAAABAYQjBAQAAAAAAACgMITgAAAAAAAAAhSEEBwAAAAAAAKAwhOAAAAAAAAAAFIYQHAAAAAAAAIDCEIIDAAAAAAAAUBhCcAAAAAAAAAAKQwgOAAAAAAAAQGEIwQEAAAAAAAAoDCE4AAAAAAAAAIUhBAcAAAAAAACgMITgAAAAAAAAABSGEBwAAAAAAACAwhCCAwAAAAAAAFAYQnAAAAAAAAAACkMIDgAAAAAAAEBhCMEBAAAAAAAAKAwhOAAAAAAAAACFIQQHAAAAAAAAoDCE4AAAAAAAAAAUhhAcAAAAAAAAgMIQggMAAAAAAABQGEJwAAAAAAAAAApDCA4AAAAAAABAYQjBAQAAAAAAACgMITgAAAAAAAAAhSEEBwAAAAAAAKAwhOAAAAAAAAAAFIYQHAAAAAAAAIDCEIIDAAAAAAAAUBhCcAAAAAAAAAAKQwgOAAAAAAAAQGEIwQEAAAAAAAAoDCE4AAAAAAAAAIUhBAcAAAAAAACgMITgAAAAAAAAABSGEBwAAAAAAACAwhCCAwAAAAAAAFAYQnAAAAAAAAAACkMIDgAAAAAAAEBhCMEBAAAAAAAAKAwhOAAAAAAAAACFIQQHAAAAAAAAoDCE4AAAAAAAAAAUhhAcAAAAAAAAgMIQggMAAAAAAABQGEJwAAAAAAAAAApDCA4AAAAAAABAYQjBAQAAAAAAACgMITgAAAAAAAAAhSEEBwAAAAAAAKAwhOAAAAAAAAAAFIYQHAAAAAAAAIDCEIIDAAAAAAAAUBhCcAAAAAAAAAAKQwgOAAAAAAAAQGEIwQEAAAAAAAAoDCE4AAAAAAAAAIUhBAcAAAAAAACgMITgAAAAAAAAABSGEBwAAAAAAACAwhCCAwAAAAAAAFAYQnAAAAAAAAAACkMIDgAAAAAAAEBhCMEBAAAAAAAAKAwhOAAAAAAAAACFIQQHAAAAAAAAoDCE4AAAAAAAAAAUhhAcAAAAAAAAgMIQggMAAAAAAABQGEJwAAAAAAAAAApDCA4AAAAAAABAYQjBAQAAAAAAACgMITgAAAAAAAAAhSEEBwAAAAAAAKAwhOAAAAAAAAAAFIYQHAAAAAAAAIDCEIIDAAAAAAAAUBhCcAAAAAAAAAAKQwgOAAAAAAAAQGEIwQEAAAAAAAAoDCE4AAAAAAAAAIUhBAcAAAAAAACgMITgAAAAAAAAABSGEBwAAAAAAACAwhCCAwAAAAAAAFAYQnAAAAAAAAAACkMIDgAAAAAAAEBhCMEBAAAAAAAAKAwhOAAAAAAAAACFIQQHAAAAAAAAoDCE4AAAAAAAAAAUhhAcAAAAAAAAgMIQggMAAAAAAABQGEJwAAAAAAAAAApDCA4AAAAAAABAYQjBAQAAAAAAACgMITgAAAAAAAAAhSEEBwAAAAAAAKAwhOAAAAAAAAAAFIYQHAAAAAAAAIDCEIIDAAAAAAAAUBhCcAAAAAAAAAAKQwgOAAAAAAAAQGEIwQEAAAAAAAAoDCE4AAAAAAAAAIUhBAcAAAAAAACgMITgAAAAAAAAABSGEBwAAAAAAACAwhCCAwAAAAAAAFAYQnAAAAAAAAAACkMIDgAAAAAAAEBhCMEBAAAAAAAAKIz/D/T/i+Rgt6s/AAAAAElFTkSuQmCC" vertex="1" parent="1">
          <mxGeometry x="40" y="40" width="600" height="400" as="geometry" />
        </mxCell>
      </root>
    </mxGraphModel>
  </diagram>
</mxfile>